0
SECTION
2
HEADER
9
$INSUNITS
70
4
9
$ACADVER
1
AC1014
9
$HANDSEED
5
FFFF
0
ENDSEC
0
SECTION
2
TABLES
0
TABLE
2
VPORT
5
8
100
AcDbSymbolTable
0
ENDTAB
0
TABLE
2
LTYPE
5
5
100
AcDbSymbolTable
0
LTYPE
5
14
100
AcDbSymbolTableRecord
100
AcDbLinetypeTableRecord
2
BYBLOCK
70
0
0
LTYPE
5
15
100
AcDbSymbolTableRecord
100
AcDbLinetypeTableRecord
2
BYLAYER
70
0
0
ENDTAB
0
TABLE
2
LAYER
5
2
100
AcDbSymbolTable
70
2
0
LAYER
5
50
100
AcDbSymbolTableRecord
100
AcDbLayerTableRecord
2
0
70
0
6
CONTINUOUS
0
ENDTAB
0
TABLE
2
STYLE
5
3
100
AcDbSymbolTable
70
1
0
STYLE
5
11
100
AcDbSymbolTableRecord
100
AcDbTextStyleTableRecord
2
STANDARD
70
0
0
ENDTAB
0
TABLE
2
VIEW
5
6
100
AcDbSymbolTable
70
0
0
ENDTAB
0
TABLE
2
UCS
5
7
100
AcDbSymbolTable
70
0
0
ENDTAB
0
TABLE
2
APPID
5
9
100
AcDbSymbolTable
70
2
0
APPID
5
12
100
AcDbSymbolTableRecord
100
AcDbRegAppTableRecord
2
ACAD
70
0
0
ENDTAB
0
TABLE
2
DIMSTYLE
5
A
100
AcDbSymbolTable
70
1
0
ENDTAB
0
TABLE
2
BLOCK_RECORD
5
1
100
AcDbSymbolTable
70
1
0
BLOCK_RECORD
5
1F
100
AcDbSymbolTableRecord
100
AcDbBlockTableRecord
2
*MODEL_SPACE
0
BLOCK_RECORD
5
1B
100
AcDbSymbolTableRecord
100
AcDbBlockTableRecord
2
*PAPER_SPACE
0
ENDTAB
0
ENDSEC
0
SECTION
2
BLOCKS
0
BLOCK
5
20
100
AcDbEntity
100
AcDbBlockBegin
2
*MODEL_SPACE
0
ENDBLK
5
21
100
AcDbEntity
100
AcDbBlockEnd
0
BLOCK
5
1C
100
AcDbEntity
100
AcDbBlockBegin
2
*PAPER_SPACE
0
ENDBLK
5
1D
100
AcDbEntity
100
AcDbBlockEnd
0
ENDSEC
0
SECTION
2
ENTITIES
0
LWPOLYLINE
5
100
100
AcDbEntity
8
0
100
AcDbPolyline
90
11
70
1
43
0.0
10
15.883750000000001
20
-70.152500000000003
10
37.321750000000002
20
-70.152500000000003
42
-0.41421356237313145
10
37.821750000000009
20
-70.652500000000003
10
37.821750000000002
20
-84.652500000000003
42
-0.41421356237310025
10
37.321750000000002
20
-85.152500000000032
10
31.321750000000002
20
-85.152500000000032
42
-0.41421356237309764
10
30.821750000000002
20
-84.652500000000003
10
30.821750000000002
20
-84.152500000000003
10
15.883750000000001
20
-84.152500000000032
42
-0.41421356237309243
10
15.383750000000001
20
-83.652500000000032
10
15.383750000000001
20
-70.652500000000003
42
-0.41421356237309631
0
CIRCLE
5
101
100
AcDbEntity
8
0
100
AcDbCircle
10
164.38635141522053
20
-99.236318987204086
30
0
40
1.0999999999999943
210
0
220
0
230
1
0
LWPOLYLINE
5
102
100
AcDbEntity
8
0
100
AcDbPolyline
90
8
70
1
43
0.0
10
98.389826328297403
20
-85.324671075820632
42
0.41421356237314799
10
98.947034075820625
20
-84.889332671702562
10
100.53133507582066
20
-71.986232671702567
42
0.41421356237313184
10
100.09599667170257
20
-71.429024924179345
10
87.19289667170257
20
-69.844722924179351
42
0.41421356237303825
10
86.635688924179348
20
-70.280061328297421
10
85.051387924179352
20
-83.18316132829743
42
0.41421356237307444
10
85.486726328297422
20
-83.740369075820666
0
LWPOLYLINE
5
103
100
AcDbEntity
8
0
100
AcDbPolyline
90
8
70
1
43
0.0
10
128.08172892417934
20
-113.41760432829741
42
0.41421356237307444
10
128.51706732829743
20
-113.97481207582064
10
134.47234332829746
20
-114.7060280758207
42
0.41421356237308343
10
135.02955107582065
20
-114.27068967170257
10
136.73572207582066
20
-100.37504367170257
42
0.41421356237310536
10
136.3003836717026
20
-99.817835924179377
10
130.34510667170258
20
-99.086619924179345
42
0.41421356237309631
10
129.78789892417927
20
-99.521958328297444
0
LWPOLYLINE
5
104
100
AcDbEntity
8
0
100
AcDbPolyline
90
8
70
1
43
0.0
10
87.372999924179339
20
-64.275158328297437
42
0.41421356237310536
10
87.808338328297424
20
-64.832366075820659
10
100.71143832829742
20
-66.416667075820641
42
0.41421356237310214
10
101.26864607582071
20
-65.98132867170257
10
102.85294707582069
20
-53.078228671702583
42
0.41421356237320994
10
102.41760867170257
20
-52.521020924179361
10
89.514508671702572
20
-50.936719924179371
42
0.41421356237308532
10
88.957300924179322
20
-51.372058328297435
0
LWPOLYLINE
5
105
100
AcDbEntity
8
0
100
AcDbPolyline
90
8
70
1
43
0.0
10
113.03769007582063
20
-97.46529067170259
42
0.41421356237310536
10
112.60235167170258
20
-96.908082924179425
10
106.64707467170258
20
-96.176866924179365
42
0.41421356237300083
10
106.08986692417936
20
-96.612205328297463
10
104.38369692417936
20
-110.50785132829745
42
0.41421356237299051
10
104.81903532829747
20
-111.0650590758207
10
110.7743123282974
20
-111.79627507582069
42
0.41421356237304213
10
111.33152007582072
20
-111.36093667170259
0
LWPOLYLINE
5
106
100
AcDbEntity
8
0
100
AcDbPolyline
90
8
70
1
43
0.0
10
27.289999999999999
20
-21.739999999999998
42
0.41421356237309503
10
27.789999999999999
20
-22.239999999999998
10
40.789999999999999
20
-22.239999999999998
42
0.41421356237306123
10
41.289999999999992
20
-21.740000000000002
10
41.289999999999992
20
-8.740000000000002
42
0.41421356237306967
10
40.790000000000006
20
-8.2399999999999984
10
27.789999999999999
20
-8.2400000000000002
42
0.41421356237309825
10
27.289999999999999
20
-8.7400000000000055
0
LWPOLYLINE
5
107
100
AcDbEntity
8
0
100
AcDbPolyline
90
8
70
1
43
0.0
10
83.596700075820664
20
-53.592816671702572
10
82.012399075820653
20
-66.495916671702574
42
-0.4142135623730957
10
81.455191328297403
20
-66.931255075820658
10
68.552091328297436
20
-65.346954075820662
42
-0.41421356237308471
10
68.116752924179352
20
-64.78974632829744
10
69.701053924179348
20
-51.886646328297431
42
-0.41421356237304796
10
70.25826167170257
20
-51.451307924179368
10
83.161361671702593
20
-53.035608924179343
42
-0.41421356237306345
0
LWPOLYLINE
5
108
100
AcDbEntity
8
0
100
AcDbPolyline
90
8
70
1
43
0.0
10
15.35075
20
-65.102500000000006
42
0.41421356237310153
10
15.850749999999991
20
-64.602500000000006
10
15.85075
20
-50.602499999999999
42
0.41421356237309631
10
15.35075
20
-50.102499999999999
10
9.3507499999999997
20
-50.102499999999999
42
0.41421356237308915
10
8.8507499999999979
20
-50.602499999999999
10
8.8507499999999979
20
-64.602500000000006
42
0.41421356237306578
10
9.3507499999999997
20
-65.10250000000002
0
LWPOLYLINE
5
109
100
AcDbEntity
8
0
100
AcDbPolyline
90
8
70
1
43
0.0
10
113.29789467170259
20
-13.55152192417934
42
0.41421356237325835
10
112.74068692417939
20
-13.986860328297437
10
111.1563859241794
20
-26.889960328297452
42
0.41421356237308216
10
111.59172432829749
20
-27.447168075820699
10
124.49482432829745
20
-29.031469075820681
42
0.41421356237324414
10
125.0520320758207
20
-28.596130671702575
10
126.63633307582069
20
-15.693030671702575
42
0.41421356237304213
10
126.2009946717026
20
-15.135822924179321
0
LWPOLYLINE
5
110
100
AcDbEntity
8
0
100
AcDbPolyline
90
8
70
1
43
0.0
10
126.09723932829745
20
-113.67769407582072
42
0.41421356237303181
10
126.65444707582067
20
-113.24235567170261
10
128.23874807582069
20
-100.33925567170257
42
0.41421356237300083
10
127.80340967170261
20
-99.782047924179324
10
114.90030967170263
20
-98.19774692417937
42
0.41421356237316986
10
114.34310192417939
20
-98.633085328297426
10
112.75880092417937
20
-111.53618532829741
42
0.41421356237308471
10
113.1941393282974
20
-112.09339307582064
0
LWPOLYLINE
5
111
100
AcDbEntity
8
0
100
AcDbPolyline
90
8
70
1
43
0.0
10
30.78875
20
-65.102500000000006
10
17.78875
20
-65.102500000000006
42
-0.41421356237306511
10
17.28875
20
-64.602500000000006
10
17.288750000000004
20
-51.602500000000013
42
-0.41421356237307944
10
17.78875
20
-51.102500000000006
10
30.78875
20
-51.102499999999999
42
-0.41421356237309243
10
31.288750000000011
20
-51.602500000000013
10
31.288750000000011
20
-64.60250000000002
42
-0.41421356237306639
0
LWPOLYLINE
5
112
100
AcDbEntity
8
0
100
AcDbPolyline
90
8
70
1
43
0.0
10
135.50935132829744
20
-95.640293075820665
42
0.41421356237310536
10
136.06655907582069
20
-95.204954671702581
10
137.6508600758207
20
-82.301854671702571
42
0.41421356237307444
10
137.2155216717027
20
-81.744646924179335
10
124.31242167170261
20
-80.160345924179353
42
0.41421356237307444
10
123.75521392417937
20
-80.595684328297423
10
122.17091292417936
20
-93.498784328297404
42
0.41421356237307444
10
122.60625132829745
20
-94.05599207582064
0
LWPOLYLINE
5
113
100
AcDbEntity
8
0
100
AcDbPolyline
90
8
70
1
43
0.0
10
31.265000000000001
20
-103.20250000000001
10
18.265000000000001
20
-103.20250000000001
42
-0.41421356237309243
10
17.765000000000001
20
-102.70250000000001
10
17.765000000000001
20
-89.702500000000001
42
-0.41421356237309243
10
18.265000000000001
20
-89.202499999999986
10
31.265000000000001
20
-89.202499999999986
42
-0.41421356237313928
10
31.765000000000011
20
-89.702500000000001
10
31.765000000000004
20
-102.70250000000001
42
-0.41421356237309243
0
LWPOLYLINE
5
114
100
AcDbEntity
8
0
100
AcDbPolyline
90
14
70
1
43
0.0
10
95.149740075820688
20
-96.276435671702586
42
0.41421356237309503
10
94.714401671702589
20
-95.719227924179364
10
92.350900999999993
20
-95.429028000000002
10
81.81130167170258
20
-94.134926924179382
42
0.00057010314819447945
10
81.810169807021524
20
-94.13478925850427
10
79.447800671702581
20
-93.844726924179383
42
0.41421356237306856
10
78.89059292417933
20
-94.280065328297425
10
77.306291924179362
20
-107.18316532829746
42
0.41421356237316281
10
77.741630328297404
20
-107.74037307582066
10
80.105131
20
-108.030573
10
90.644729999999996
20
-109.324674
42
0.00057019034942172597
10
90.645861999999994
20
-109.32481199999999
10
93.008231328297427
20
-109.61487407582069
42
0.41421356237295825
10
93.565439075820649
20
-109.17953567170258
0
LWPOLYLINE
5
115
100
AcDbEntity
8
0
100
AcDbPolyline
90
8
70
1
43
0.0
10
85.918310075820656
20
-34.684813671702571
10
84.334009075820674
20
-47.587913671702566
42
-0.41421356237302603
10
83.77680132829741
20
-48.023252075820658
10
70.873701328297443
20
-46.438951075820654
42
-0.41421356237310025
10
70.438362924179344
20
-45.881743328297439
10
72.022663924179369
20
-32.978643328297451
42
-0.41421356237301116
10
72.579871671702577
20
-32.543304924179346
10
85.482971671702586
20
-34.127605924179328
42
-0.41421356237308182
0
LWPOLYLINE
5
116
100
AcDbEntity
8
0
100
AcDbPolyline
90
8
70
1
43
0.0
10
79.133581328297439
20
-85.839261075820673
10
66.230481328297429
20
-84.254959075820665
42
-0.41421356237323831
10
65.795142924179373
20
-83.697751328297429
10
67.37944392417937
20
-70.794651328297434
42
-0.41421356237310536
10
67.936651671702577
20
-70.359312924179349
10
80.839751671702544
20
-71.943614924179386
42
-0.41421356237319507
10
81.275090075820657
20
-72.500822671702593
10
79.690789075820675
20
-85.403922671702617
42
-0.41421356237314216
0
LWPOLYLINE
5
117
100
AcDbEntity
8
0
100
AcDbPolyline
90
8
70
1
43
0.0
10
121.59280932829745
20
-52.666475075820657
10
108.6897093282974
20
-51.082173075820691
42
-0.41421356237300083
10
108.25437092417937
20
-50.524965328297434
10
109.83867292417941
20
-37.621865328297432
42
-0.41421356237313117
10
110.3958806717026
20
-37.186526924179361
10
123.29898067170265
20
-38.770828924179348
42
-0.41421356237305601
10
123.73431907582066
20
-39.328036671702577
10
122.15001707582064
20
-52.231136671702565
42
-0.41421356237308471
0
LWPOLYLINE
5
118
100
AcDbEntity
8
0
100
AcDbPolyline
90
8
70
1
43
0.0
10
86.678815328297404
20
-24.388247075820665
42
0.41421356237311246
10
87.236023075820668
20
-23.952908671702566
10
88.820325075820676
20
-11.049808671702575
42
0.41421356237307944
10
88.384986671702592
20
-10.492600924179332
10
75.481886671702568
20
-8.9082989241793378
42
0.41421356237311163
10
74.924678924179361
20
-9.3436373282974294
10
73.340376924179338
20
-22.246737328297424
42
0.41421356237313151
10
73.775715328297423
20
-22.803945075820657
0
LWPOLYLINE
5
119
100
AcDbEntity
8
0
100
AcDbPolyline
90
8
70
1
43
0.0
10
140.15257332829745
20
-57.824285075820654
10
127.2494733282975
20
-56.23998307582066
42
-0.41421356237315765
10
126.81413492417937
20
-55.682775328297431
10
128.39843592417938
20
-42.779675328297429
42
-0.41421356237320028
10
128.9556436717026
20
-42.344336924179366
10
141.8587436717026
20
-43.92863892417936
42
-0.41421356237309503
10
142.29408207582063
20
-44.485846671702582
10
140.70978107582076
20
-57.388946671702577
42
-0.41421356237315121
0
LWPOLYLINE
5
120
100
AcDbEntity
8
0
100
AcDbPolyline
90
8
70
1
43
0.0
10
91.836118671702579
20
-32.02871492417934
10
104.73921867170264
20
-33.613015924179322
42
-0.41421356237303181
10
105.17455707582066
20
-34.17022367170258
10
103.59025607582069
20
-47.073323671702568
42
-0.41421356237300078
10
103.03304832829741
20
-47.508662075820645
10
90.129948328297402
20
-45.924361075820684
42
-0.41421356237305829
10
89.694609924179346
20
-45.367153328297434
10
91.278910924179328
20
-32.464053328297425
42
-0.41421356237312834
0
LWPOLYLINE
5
121
100
AcDbEntity
8
0
100
AcDbPolyline
90
8
70
1
43
0.0
10
64.150000000000006
20
-32.552500000000002
42
0.41421356237307944
10
63.65000000000002
20
-32.052500000000002
10
50.650000000000013
20
-32.052500000000002
42
0.41421356237318868
10
50.150000000000013
20
-32.552500000000002
10
50.150000000000013
20
-45.552500000000002
42
0.41421356237310025
10
50.650000000000013
20
-46.052500000000009
10
63.65000000000002
20
-46.052500000000009
42
0.41421356237309503
10
64.150000000000006
20
-45.552500000000002
0
LWPOLYLINE
5
122
100
AcDbEntity
8
0
100
AcDbPolyline
90
8
70
1
43
0.0
10
94.738132671702573
20
-8.3937089241793394
10
107.6412326717026
20
-9.9780109241793351
42
-0.41421356237310669
10
108.07657107582072
20
-10.535218671702575
10
106.49227007582068
20
-23.438318671702575
42
-0.41421356237311413
10
105.93506232829742
20
-23.87365707582067
10
93.031962328297411
20
-22.289355075820648
42
-0.4142135623730947
10
92.596623924179383
20
-21.73214732829743
10
94.180924924179379
20
-8.8290473282974204
42
-0.41421356237312412
0
LWPOLYLINE
5
123
100
AcDbEntity
8
0
100
AcDbPolyline
90
8
70
1
43
0.0
10
121.41270907582069
20
-58.236039671702578
10
119.82840707582072
20
-71.139139671702594
42
-0.41421356237288987
10
119.27119932829748
20
-71.574478075820679
10
106.36809932829748
20
-69.990176075820671
42
-0.41421356237311052
10
105.93276092417938
20
-69.432968328297434
10
107.51706292417933
20
-56.529868328297432
42
-0.4142135623730544
10
108.07427067170259
20
-56.094529924179362
10
120.9773706717026
20
-57.678831924179413
42
-0.41421356237309631
0
LWPOLYLINE
5
124
100
AcDbEntity
8
0
100
AcDbPolyline
90
8
70
1
43
0.0
10
129.71614892417935
20
-32.047772328297427
42
0.41421356237309503
10
130.15148732829743
20
-32.604980075820663
10
143.05458732829743
20
-34.189281075820659
42
0.4142135623733309
10
143.61179507582068
20
-33.753942671702568
10
145.19609607582066
20
-20.850842671702573
42
0.41421356237306084
10
144.76075767170261
20
-20.293634924179315
10
131.85765767170261
20
-18.70933392417934
42
0.4142135623732543
10
131.3004499241793
20
-19.144672328297432
0
CIRCLE
5
125
100
AcDbEntity
8
0
100
AcDbCircle
10
3.4524999999999983
20
-8.2150000000000016
30
0
40
1.0999999999999999
210
0
220
0
230
1
0
LWPOLYLINE
5
126
100
AcDbEntity
8
0
100
AcDbPolyline
90
8
70
1
43
0.0
10
139.97247207582066
20
-63.393851671702564
10
138.38817107582065
20
-76.296951671702573
42
-0.41421356237310536
10
137.83096332829746
20
-76.732290075820671
10
124.92786332829745
20
-75.147989075820703
42
-0.41421356237308987
10
124.49252492417941
20
-74.590781328297439
10
126.07682592417933
20
-61.687681328297437
42
-0.4142135623730544
10
126.63403367170261
20
-61.252342924179366
10
139.53713367170258
20
-62.836643924179342
42
-0.41421356237310536
0
LWPOLYLINE
5
127
100
AcDbEntity
8
0
100
AcDbPolyline
90
8
70
1
43
0.0
10
39.226750000000003
20
-65.102500000000006
42
0.41421356237308721
10
39.726750000000017
20
-64.60250000000002
10
39.72675000000001
20
-50.602499999999999
42
0.41421356237313145
10
39.226750000000003
20
-50.102499999999999
10
33.226750000000003
20
-50.102499999999999
42
0.41421356237309764
10
32.726750000000003
20
-50.602499999999999
10
32.726750000000003
20
-64.602500000000006
42
0.41421356237309243
10
33.226750000000003
20
-65.102500000000006
0
LWPOLYLINE
5
128
100
AcDbEntity
8
0
100
AcDbPolyline
90
8
70
1
43
0.0
10
103.61115092417933
20
-88.340973328297423
10
105.19545192417937
20
-75.437873328297428
42
-0.41421356237307377
10
105.7526596717026
20
-75.002534924179344
10
118.65575967170258
20
-76.586836924179352
42
-0.41421356237310603
10
119.0910980758207
20
-77.144044671702559
10
117.50679707582071
20
-90.047144671702583
42
-0.41421356237313511
10
116.94958932829749
20
-90.482483075820639
10
104.04648932829744
20
-88.898181075820702
42
-0.41421356237299956
0
LWPOLYLINE
5
129
100
AcDbEntity
8
0
100
AcDbPolyline
90
14
70
1
43
0.0
10
150.35281699999999
20
-102.55076700000004
10
160.89241667170259
20
-103.84486692417937
42
-0.00038728857857489216
10
160.89318540181878
20
-103.84496191684441
10
163.2559176717026
20
-104.13506892417944
42
-0.41421356237318929
10
163.69125607582075
20
-104.6922766717026
10
162.10695407582077
20
-117.59537667170258
42
-0.41421356237299828
10
161.54974632829746
20
-118.03071507582069
10
159.18624499999999
20
-117.74051300000004
10
148.64664699999997
20
-116.44641300000005
42
-0.00038742305908115058
10
148.64587800000004
20
-116.44631800000001
10
146.28314532829739
20
-116.15621107582064
42
-0.41421356237314799
10
145.84780692417934
20
-115.59900332829741
10
147.43210892417943
20
-102.69590332829745
42
-0.41421356237310669
10
147.98931667170257
20
-102.26056492417941
0
LWPOLYLINE
5
130
100
AcDbEntity
8
0
100
AcDbPolyline
90
8
70
1
43
0.0
10
60.340000000000003
20
-70.652500000000003
10
60.340000000000003
20
-83.652500000000032
42
-0.41421356237310542
10
59.840000000000018
20
-84.152500000000032
10
46.840000000000003
20
-84.152500000000032
42
-0.41421356237308982
10
46.340000000000003
20
-83.652500000000032
10
46.340000000000003
20
-70.652500000000003
42
-0.41421356237309503
10
46.840000000000003
20
-70.152500000000003
10
59.840000000000018
20
-70.152500000000003
42
-0.41421356237311063
0
CIRCLE
5
131
100
AcDbEntity
8
0
100
AcDbCircle
10
173.64690122200429
20
-23.815218583423125
30
0
40
1.0999999999999943
210
0
220
0
230
1
0
LWPOLYLINE
5
132
100
AcDbEntity
8
0
100
AcDbPolyline
90
8
70
1
43
0.0
10
13.44575
20
-85.152500000000032
10
7.4457500000000021
20
-85.152500000000074
42
-0.41421356237304302
10
6.9457500000000003
20
-84.652500000000003
10
6.9457500000000003
20
-70.652500000000003
42
-0.41421356237309698
10
7.4457500000000021
20
-70.152500000000003
10
13.44575
20
-70.152500000000003
42
-0.41421356237309631
10
13.94575
20
-70.652500000000003
10
13.945749999999981
20
-84.652500000000003
42
-0.414213562373069
0
CIRCLE
5
133
100
AcDbEntity
8
0
100
AcDbCircle
10
3.4524999999999983
20
-103.22750000000001
30
0
40
1.0999999999999985
210
0
220
0
230
1
0
LWPOLYLINE
5
134
100
AcDbEntity
8
0
100
AcDbPolyline
90
8
70
1
43
0.0
10
61.745000000000019
20
-65.102500000000006
10
48.745000000000012
20
-65.102500000000006
42
-0.41421356237309503
10
48.245000000000012
20
-64.602500000000006
10
48.245000000000012
20
-51.602500000000013
42
-0.41421356237313145
10
48.745000000000012
20
-51.102500000000006
10
61.745000000000019
20
-51.102500000000006
42
-0.41421356237308982
10
62.244999999999997
20
-51.602500000000013
10
62.244999999999997
20
-64.602500000000006
42
-0.41421356237307422
0
LWPOLYLINE
5
135
100
AcDbEntity
8
0
100
AcDbPolyline
90
8
70
1
43
0.0
10
67.959999999999994
20
-8.740000000000002
42
0.41421356237310936
10
67.460000000000008
20
-8.2400000000000144
10
54.460000000000022
20
-8.2400000000000002
42
0.41421356237308854
10
53.960000000000022
20
-8.7400000000000055
10
53.960000000000008
20
-21.739999999999998
42
0.41421356237307944
10
54.460000000000015
20
-22.240000000000002
10
67.459999999999994
20
-22.239999999999998
42
0.41421356237306123
10
67.959999999999994
20
-21.740000000000002
0
LWPOLYLINE
5
136
100
AcDbEntity
8
0
100
AcDbPolyline
90
8
70
1
43
0.0
10
160.11321895347635
20
-90.65156587542387
42
0.41421356237307444
10
160.6704267009996
20
-90.216227471305785
10
162.25472815981848
20
-77.31312754433884
42
0.41421356237311313
10
161.81938975570037
20
-76.755919796815604
10
148.91628981394342
20
-75.171618336180686
42
0.41421356237310081
10
148.35908206642017
20
-75.606956740298784
10
146.77478060760126
20
-88.510056667265701
42
0.41421356237311568
10
147.21011901171934
20
-89.067264414788937
0
LWPOLYLINE
5
137
100
AcDbEntity
8
0
100
AcDbPolyline
90
8
70
1
43
0.0
10
39.837499999999999
20
-46.052500000000009
10
26.837499999999999
20
-46.052499999999995
42
-0.41421356237310802
10
26.337499999999999
20
-45.552500000000002
10
26.337499999999999
20
-32.552500000000002
42
-0.41421356237309503
10
26.837499999999999
20
-32.052500000000002
10
39.837499999999999
20
-32.052500000000009
42
-0.41421356237309243
10
40.337500000000013
20
-32.552500000000002
10
40.337500000000041
20
-45.552500000000009
42
-0.41421356237308721
0
LWPOLYLINE
5
138
100
AcDbEntity
8
0
100
AcDbPolyline
90
8
70
1
43
0.0
10
151.62554958108592
20
-96.335956128626009
42
0.41421356237313034
10
150.7897379598011
20
-96.98896373480332
10
150.66786861639611
20
-97.981509886444584
42
0.41421356237304602
10
151.32087622257325
20
-98.817321507729361
10
153.80224160167666
20
-99.121994866242005
42
0.4142135623730942
10
154.63805322296142
20
-98.468987260064779
10
154.75992256636647
20
-97.476441108423444
42
0.41421356237304602
10
154.10691496018933
20
-96.640629487138654
0
CIRCLE
5
139
100
AcDbEntity
8
0
100
AcDbCircle
10
150.44712820286003
20
-20.966645481095082
30
0
40
1.1000000000000119
210
0
220
0
230
1
0
LWPOLYLINE
5
140
100
AcDbEntity
8
0
100
AcDbPolyline
90
40
70
1
43
0.0
10
148.6080916015971
20
-54.008813815240018
10
152.78455528329579
20
-19.994258174126529
42
0.41421358473539216
10
151.69620923487929
20
-18.601238749463306
10
130.1554712649303
20
-15.956369477232055
42
-0.41421356237312779
10
129.2847944168924
20
-14.841954013282077
10
129.38929747049258
20
-13.990844690679278
42
0.41421356237310802
10
128.51862062245468
20
-12.876429226729325
10
111.59570925007829
20
-10.79855759819293
42
-0.41421356237311335
10
110.72503240204037
20
-9.6841421342430962
10
110.82953545165068
20
-8.8330328441348716
42
0.41421354001077376
10
109.95885867939333
20
-7.7186173894897099
10
93.035946785301874
20
-5.6407443853563866
42
0.41421358473543723
10
91.921531245571288
20
-6.5114212240897249
10
91.817028191882883
20
-7.3625305474116232
42
-0.4142135847354681
10
90.702612652152311
20
-8.2332073861449278
10
70.254172954725519
20
-5.7224538533107783
42
0.030552773466659983
10
70.13230357098891
20
-5.7150000000000176
10
1.952499999999997
20
-5.7149999999999856
42
0.41421356237309426
10
0.95249999999999779
20
-6.7149999999999928
10
0.95249999999999613
20
-104.72750000000005
42
0.41421356237308682
10
1.952499999999997
20
-105.72750000000001
10
40.568006511706187
20
-105.72750000000002
42
-0.030552754361490821
10
40.689875819662205
20
-105.7349538440061
10
163.25193237122218
20
-120.78367769770772
42
0.41421354001074195
10
164.36634782586739
20
-119.9130009254504
10
170.53111324667586
20
-69.705032557530672
42
0.41436903347731646
10
170.09551144362828
20
-69.14779251916633
10
158.51719623275588
20
-67.732391503031906
42
-0.41436902157455957
10
158.08159442723226
20
-67.175151484833307
10
159.03904494680359
20
-59.377342765800492
42
-0.41421356237308599
10
159.59625269432681
20
-58.942004361682415
10
171.17434061440323
20
-60.363614803044086
42
0.41421355047153646
10
171.73154835945039
20
-59.928276419091738
10
176.31107067828941
20
-22.631072709059943
42
0.4142135847354016
10
175.44039383955621
20
-21.51665716932937
10
172.80766560311349
20
-21.193398884287433
42
0.41421354001080374
10
171.41464628480691
20
-22.281744849609066
10
167.23818240519736
20
-56.296302102576036
42
-0.41421356237305829
10
166.68097463998447
20
-56.73164048405237
10
149.04342998307334
20
-54.56602158045294
42
-0.4142135623730841
0
ENDSEC
0
SECTION
2
OBJECTS
0
DICTIONARY
5
C
100
AcDbDictionary
3
ACAD_GROUP
350
D
3
ACAD_MLINESTYLE
350
17
0
DICTIONARY
5
D
100
AcDbDictionary
0
DICTIONARY
5
1A
330
C
100
AcDbDictionary
0
DICTIONARY
5
17
100
AcDbDictionary
0
ENDSEC
0
EOF
