0
SECTION
2
HEADER
9
$INSUNITS
70
4
9
$ACADVER
1
AC1014
9
$HANDSEED
5
FFFF
0
ENDSEC
0
SECTION
2
TABLES
0
TABLE
2
VPORT
5
8
100
AcDbSymbolTable
0
ENDTAB
0
TABLE
2
LTYPE
5
5
100
AcDbSymbolTable
0
LTYPE
5
14
100
AcDbSymbolTableRecord
100
AcDbLinetypeTableRecord
2
BYBLOCK
70
0
0
LTYPE
5
15
100
AcDbSymbolTableRecord
100
AcDbLinetypeTableRecord
2
BYLAYER
70
0
0
ENDTAB
0
TABLE
2
LAYER
5
2
100
AcDbSymbolTable
70
2
0
LAYER
5
50
100
AcDbSymbolTableRecord
100
AcDbLayerTableRecord
2
0
70
0
6
CONTINUOUS
0
ENDTAB
0
TABLE
2
STYLE
5
3
100
AcDbSymbolTable
70
1
0
STYLE
5
11
100
AcDbSymbolTableRecord
100
AcDbTextStyleTableRecord
2
STANDARD
70
0
0
ENDTAB
0
TABLE
2
VIEW
5
6
100
AcDbSymbolTable
70
0
0
ENDTAB
0
TABLE
2
UCS
5
7
100
AcDbSymbolTable
70
0
0
ENDTAB
0
TABLE
2
APPID
5
9
100
AcDbSymbolTable
70
2
0
APPID
5
12
100
AcDbSymbolTableRecord
100
AcDbRegAppTableRecord
2
ACAD
70
0
0
ENDTAB
0
TABLE
2
DIMSTYLE
5
A
100
AcDbSymbolTable
70
1
0
ENDTAB
0
TABLE
2
BLOCK_RECORD
5
1
100
AcDbSymbolTable
70
1
0
BLOCK_RECORD
5
1F
100
AcDbSymbolTableRecord
100
AcDbBlockTableRecord
2
*MODEL_SPACE
0
BLOCK_RECORD
5
1B
100
AcDbSymbolTableRecord
100
AcDbBlockTableRecord
2
*PAPER_SPACE
0
ENDTAB
0
ENDSEC
0
SECTION
2
BLOCKS
0
BLOCK
5
20
100
AcDbEntity
100
AcDbBlockBegin
2
*MODEL_SPACE
0
ENDBLK
5
21
100
AcDbEntity
100
AcDbBlockEnd
0
BLOCK
5
1C
100
AcDbEntity
100
AcDbBlockBegin
2
*PAPER_SPACE
0
ENDBLK
5
1D
100
AcDbEntity
100
AcDbBlockEnd
0
ENDSEC
0
SECTION
2
ENTITIES
0
LWPOLYLINE
5
100
100
AcDbEntity
8
0
100
AcDbPolyline
90
34
70
1
43
0.0
10
171.57921163225569
20
-61.168959082287309
10
176.31107067828941
20
-22.631072709059943
42
0.4142135847354016
10
175.44039383955621
20
-21.51665716932937
10
130.1554712649303
20
-15.956369477232055
42
-0.41421356237314388
10
129.28479441689242
20
-14.841954013282079
10
129.38929747049258
20
-13.990844690679278
42
0.41421356237309775
10
128.5186206224547
20
-12.876429226729321
10
111.59570925007827
20
-10.798557598192938
42
-0.41421356237310608
10
110.72503240204037
20
-9.6841421342430962
10
110.8295354516507
20
-8.833032844134868
42
0.41421354001077215
10
109.95885867939333
20
-7.7186173894897117
10
93.035946785301874
20
-5.6407443853563866
42
0.41421358473543818
10
91.921531245571288
20
-6.5114212240897285
10
91.817028191882883
20
-7.3625305474116196
42
-0.41421358473546938
10
90.702612652152311
20
-8.2332073861449384
10
70.254172954725519
20
-5.7224538533107774
42
0.030552773466659754
10
70.13230357098891
20
-5.7150000000000176
10
1.952499999999997
20
-5.7149999999999892
42
0.41421356237309426
10
0.95249999999999779
20
-6.7149999999999928
10
0.95249999999999635
20
-104.72750000000005
42
0.41421356237308682
10
1.952499999999997
20
-105.72750000000001
10
38.052500000000002
20
-105.72750000000002
42
0.41421356237309631
10
39.052500000000009
20
-104.72750000000003
10
39.052500000000016
20
-87.677500000000038
42
-0.41421356237309764
10
40.052500000000023
20
-86.677500000000038
10
65.18042109252805
20
-86.677500000000038
42
-0.030552773466550782
10
65.302290476264687
20
-86.684953853310788
10
76.108764107959388
20
-88.011822418821509
42
-0.41421354001077609
10
76.979440880216686
20
-89.126237873466764
10
74.553327464815581
20
-108.88535183619403
42
0.41421356237311086
10
75.424004312853498
20
-109.99976730014397
10
163.25193237122218
20
-120.78367769770772
42
0.41421354001074195
10
164.36634782586739
20
-119.9130009254504
10
170.47020024025238
20
-70.201129017159474
0
CIRCLE
5
101
100
AcDbEntity
8
0
100
AcDbCircle
10
173.64690122200429
20
-23.815218583423125
30
0
40
1.1000000000000061
210
0
220
0
230
1
0
CIRCLE
5
102
100
AcDbEntity
8
0
100
AcDbCircle
10
150.44712820286003
20
-20.966645481095082
30
0
40
1.1000000000000034
210
0
220
0
230
1
0
CIRCLE
5
103
100
AcDbEntity
8
0
100
AcDbCircle
10
3.4524999999999983
20
-8.2150000000000016
30
0
40
1.1000000000000001
210
0
220
0
230
1
0
CIRCLE
5
104
100
AcDbEntity
8
0
100
AcDbCircle
10
34.290000000000006
20
-15.24
30
0
40
0.5
210
0
220
0
230
1
0
CIRCLE
5
105
100
AcDbEntity
8
0
100
AcDbCircle
10
3.4524999999999983
20
-103.22750000000001
30
0
40
1.099999999999999
210
0
220
0
230
1
0
CIRCLE
5
106
100
AcDbEntity
8
0
100
AcDbCircle
10
164.38635141522053
20
-99.236318987204086
30
0
40
1.1000000000000081
210
0
220
0
230
1
0
ENDSEC
0
SECTION
2
OBJECTS
0
DICTIONARY
5
C
100
AcDbDictionary
3
ACAD_GROUP
350
D
3
ACAD_MLINESTYLE
350
17
0
DICTIONARY
5
D
100
AcDbDictionary
0
DICTIONARY
5
1A
330
C
100
AcDbDictionary
0
DICTIONARY
5
17
100
AcDbDictionary
0
ENDSEC
0
EOF
