0
SECTION
2
HEADER
9
$INSUNITS
70
4
9
$ACADVER
1
AC1014
9
$HANDSEED
5
FFFF
0
ENDSEC
0
SECTION
2
TABLES
0
TABLE
2
VPORT
5
8
100
AcDbSymbolTable
0
ENDTAB
0
TABLE
2
LTYPE
5
5
100
AcDbSymbolTable
0
LTYPE
5
14
100
AcDbSymbolTableRecord
100
AcDbLinetypeTableRecord
2
BYBLOCK
70
0
0
LTYPE
5
15
100
AcDbSymbolTableRecord
100
AcDbLinetypeTableRecord
2
BYLAYER
70
0
0
ENDTAB
0
TABLE
2
LAYER
5
2
100
AcDbSymbolTable
70
2
0
LAYER
5
50
100
AcDbSymbolTableRecord
100
AcDbLayerTableRecord
2
0
70
0
6
CONTINUOUS
0
ENDTAB
0
TABLE
2
STYLE
5
3
100
AcDbSymbolTable
70
1
0
STYLE
5
11
100
AcDbSymbolTableRecord
100
AcDbTextStyleTableRecord
2
STANDARD
70
0
0
ENDTAB
0
TABLE
2
VIEW
5
6
100
AcDbSymbolTable
70
0
0
ENDTAB
0
TABLE
2
UCS
5
7
100
AcDbSymbolTable
70
0
0
ENDTAB
0
TABLE
2
APPID
5
9
100
AcDbSymbolTable
70
2
0
APPID
5
12
100
AcDbSymbolTableRecord
100
AcDbRegAppTableRecord
2
ACAD
70
0
0
ENDTAB
0
TABLE
2
DIMSTYLE
5
A
100
AcDbSymbolTable
70
1
0
ENDTAB
0
TABLE
2
BLOCK_RECORD
5
1
100
AcDbSymbolTable
70
1
0
BLOCK_RECORD
5
1F
100
AcDbSymbolTableRecord
100
AcDbBlockTableRecord
2
*MODEL_SPACE
0
BLOCK_RECORD
5
1B
100
AcDbSymbolTableRecord
100
AcDbBlockTableRecord
2
*PAPER_SPACE
0
ENDTAB
0
ENDSEC
0
SECTION
2
BLOCKS
0
BLOCK
5
20
100
AcDbEntity
100
AcDbBlockBegin
2
*MODEL_SPACE
0
ENDBLK
5
21
100
AcDbEntity
100
AcDbBlockEnd
0
BLOCK
5
1C
100
AcDbEntity
100
AcDbBlockBegin
2
*PAPER_SPACE
0
ENDBLK
5
1D
100
AcDbEntity
100
AcDbBlockEnd
0
ENDSEC
0
SECTION
2
ENTITIES
0
CIRCLE
5
100
100
AcDbEntity
8
0
100
AcDbCircle
10
179.21897892065718
20
-19.461834389757026
30
0
40
1.0999999999999943
210
0
220
0
230
1
0
CIRCLE
5
101
100
AcDbEntity
8
0
100
AcDbCircle
10
175.33681412576175
20
-55.182271914852052
30
0
40
1.0999999999999943
210
0
220
0
230
1
0
CIRCLE
5
102
100
AcDbEntity
8
0
100
AcDbCircle
10
151.3174074470262
20
-15.532198288883684
30
0
40
1.0999999999999943
210
0
220
0
230
1
0
CIRCLE
5
103
100
AcDbEntity
8
0
100
AcDbCircle
10
-1.547499633620621
20
-108.22749999999999
30
0
40
1.0999999999999959
210
0
220
0
230
1
0
CIRCLE
5
104
100
AcDbEntity
8
0
100
AcDbCircle
10
166.42117038207871
20
-123.69158563297221
30
0
40
1.0999999999999943
210
0
220
0
230
1
0
LWPOLYLINE
5
105
100
AcDbEntity
8
0
100
AcDbPolyline
90
69
70
1
43
0.0
10
82.176909980297651
20
-91.157288503436149
10
92.716509308595064
20
-92.451389579256769
10
115.26591759557067
20
-95.220108456197593
10
118.38623456388005
20
-95.603235091906015
42
0.41421356237311568
10
118.94344229585501
20
-95.167896667887049
10
119.05403864556517
20
-94.267161416223928
42
0.41421354001080002
10
118.61870025943652
20
-93.709953688901294
10
100.70324294419589
20
-91.510211390116538
42
-0.41421354001076899
10
100.26790455806724
20
-90.953003662793947
10
100.49427675167394
20
-89.109349552037074
42
0.41421354001078836
10
100.05893836554526
20
-88.55214182471444
10
83.086399720159037
20
-86.468175419667404
42
0.41421358473541237
10
82.52919195029375
20
-86.903513839033991
10
82.302819594196649
20
-88.747169273169703
42
-0.41421358473543307
10
81.745611824331377
20
-89.182507692536319
10
65.242884850409993
20
-87.156226926655421
42
0.030552773466541897
10
65.181950158541682
20
-87.152500000000046
10
40.025000000000013
20
-87.152500000000046
42
0.41421356237307944
10
39.525000000000013
20
-87.652500000000032
10
39.525000000000013
20
-105.70250000000001
42
-0.41421356237309243
10
39.025000000000006
20
-106.20250000000001
10
10.504999999999995
20
-106.20250000000001
42
-0.41421356237308593
10
10.005000000000006
20
-105.70250000000001
10
10.004999999999988
20
-87.652500000000018
42
0.41421356237308982
10
9.5050000000000008
20
-87.152500000000003
10
0.98375000000000778
20
-87.152500000000003
42
-0.41421356237309814
10
0.48374999999999974
20
-86.652500000000003
10
0.48375000000000362
20
-67.652500872797049
42
-0.41421353171309738
10
0.9837499476600875
20
-67.152500872797049
10
11.407500052339898
20
-67.152499781640714
42
0.41421353171310665
10
11.907499999999997
20
-66.652499781640728
10
11.907500000000002
20
-48.602500000000006
42
-0.41421356237309631
10
12.407500000000002
20
-48.102500000000006
10
18.077499999999986
20
-48.102500000000006
42
0.41421356237310542
10
18.577500000000001
20
-47.602500000000006
10
18.577499999999997
20
-29.552499999999966
42
-0.41421356237308593
10
19.077500000000001
20
-29.052499999999959
10
66.650000000000006
20
-29.052500000000027
42
-0.41421356237309764
10
67.150000000000006
20
-29.55250000000003
10
67.150000000000006
20
-45.440114343701239
42
0.44876269382159317
10
67.261623833265503
20
-45.539436478697503
10
67.382670924576757
20
-45.525270137964611
42
0.34591433867273108
10
67.470301706910632
20
-45.438134933763969
10
69.410633599482892
20
-29.635395149437059
42
-0.41421359565835048
10
69.967841387855827
20
-29.200056732342901
10
87.883300343272879
20
-31.399799910715736
42
0.41421359565837607
10
88.440508131645828
20
-30.964461493621577
10
88.666880377889299
20
-29.120806954172146
42
-0.41421356237306922
10
89.224088109864255
20
-28.685468530153194
10
108.08246504582783
20
-31.000985377889293
42
-0.41421356237308987
10
108.51780346984681
20
-31.558193109864266
10
108.29143111251304
20
-33.401848554071776
42
0.41421354001076549
10
108.72676949864169
20
-33.95905628139441
10
126.64222728314591
20
-36.158798637797503
42
-0.41421356237308637
10
127.07756566462221
20
-36.716006403010454
10
126.85119358147978
20
-38.559658450407525
42
0.41421356237310025
10
127.28653196295608
20
-39.116866215620462
10
145.20199005580403
20
-41.31660860988346
42
-0.41421354001069938
10
145.63732844193271
20
-41.873816337206122
10
138.79436672627631
20
-97.605283598346176
42
0.4142135572125592
10
139.22970514155142
20
-98.162491329247558
10
166.59916434937142
20
-101.52303785747711
42
-0.41421357957493976
10
167.03450275999415
20
-102.08024562626875
10
164.71898444463977
20
-120.93862261174776
42
-0.4142135528665305
10
164.16177669553488
20
-121.37396099520186
10
74.398384190621158
20
-110.35240151631015
42
-0.41421354951744321
10
73.963045788384562
20
-109.79519378700969
10
76.278562540798575
20
-90.936817627382254
42
-0.41421356237304729
10
76.835770272773559
20
-90.501479203363289
0
LWPOLYLINE
5
106
100
AcDbEntity
8
0
100
AcDbPolyline
90
8
70
1
43
0.0
10
151.62554958108592
20
-96.335956128626009
42
0.41421356237313034
10
150.7897379598011
20
-96.98896373480332
10
150.66786861639611
20
-97.981509886444584
42
0.41421356237304602
10
151.32087622257325
20
-98.817321507729361
10
153.80224160167666
20
-99.121994866242005
42
0.41421356237309503
10
154.63805322296145
20
-98.468987260064779
10
154.75992256636647
20
-97.476441108423444
42
0.41421356237304602
10
154.10691496018933
20
-96.640629487138654
0
CIRCLE
5
107
100
AcDbEntity
8
0
100
AcDbCircle
10
-1.5475106327372439
20
-3.153608751998183
30
0
40
1.1000000000000003
210
0
220
0
230
1
0
CIRCLE
5
108
100
AcDbEntity
8
0
100
AcDbCircle
10
82.677500961527969
20
-113.9129139013173
30
0
40
1.0999999999999943
210
0
220
0
230
1
0
LWPOLYLINE
5
109
100
AcDbEntity
8
0
100
AcDbPolyline
90
8
70
1
43
0.0
10
24.290000000000003
20
-24.740000000000002
42
0.41421356237309503
10
24.789999999999999
20
-25.240000000000002
10
43.789999999999971
20
-25.240000000000002
42
0.41421356237309503
10
44.290000000000006
20
-24.739999999999984
10
44.290000000000006
20
-5.740000000000018
42
0.41421356237310086
10
43.789999999999978
20
-5.2399999999999984
10
24.790000000000024
20
-5.2400000000000002
42
0.41421356237310869
10
24.290000000000003
20
-5.740000000000018
0
CIRCLE
5
110
100
AcDbEntity
8
0
100
AcDbCircle
10
154.51475438280187
20
-82.911592113197315
30
0
40
12.262500000000003
210
0
220
0
230
1
0
LWPOLYLINE
5
111
100
AcDbEntity
8
0
100
AcDbPolyline
90
39
70
1
43
0.0
10
127.31582095259847
20
-34.775578680418555
10
127.5421933141547
20
-32.931923201821796
42
0.41421356237311857
10
127.10685489013574
20
-32.374715469846826
10
109.19139736176525
20
-30.17497453335444
42
-0.4142135623731325
10
108.7560589377463
20
-29.617766801379478
10
108.98243128624061
20
-27.774111429163604
42
0.41421354001077065
10
108.54709290011198
20
-27.216903701840998
10
89.688716019976553
20
-24.901385399421212
42
0.41421358473538589
10
89.131508250111281
20
-25.336723818787821
10
88.905135864309898
20
-27.180379494845468
42
-0.41421358473541725
10
88.347928094444626
20
-27.615717914212091
10
69.029618257341028
20
-25.243726926655377
42
0.030552773466759602
10
68.968683565472716
20
-25.239999999999995
10
51.460000000000008
20
-25.240000000000006
42
-0.41421356237309503
10
50.960000000000008
20
-24.739999999999988
10
50.960000000000029
20
-5.7399999999999984
42
-0.41421356237309698
10
51.460000000000022
20
-5.2399999999999967
10
70.459999999999994
20
-5.2400000000000082
42
-0.41421356237309825
10
70.959999999999994
20
-5.7400000000000118
10
70.960000000000008
20
-17.016826117658734
10
72.312648637797579
20
-6.0003907168541017
42
-0.41421356237309775
10
72.869856403010516
20
-5.5650523353777945
10
90.785314264988912
20
-7.7647947012935781
42
0.41421358473542558
10
91.342522034854198
20
-7.3294562819269693
10
91.568894405803434
20
-5.4858007268303339
42
-0.41421358473542041
10
92.126102175668734
20
-5.0504623074637243
10
110.98447905580417
20
-7.365980609883481
42
-0.41421354001076194
10
111.41981744193282
20
-7.9231883372061018
10
111.1934450934385
20
-9.766843709421968
42
0.41421356237312057
10
111.62878351745746
20
-10.324051441396945
10
129.54424104582787
20
-12.523792377889304
42
-0.41421356237307538
10
129.97957946984684
20
-13.081000109864283
10
129.75320710829061
20
-14.924655588461061
42
0.41421356237306484
10
130.18854553230955
20
-15.481863320436036
10
148.10400404582785
20
-17.681604377889279
42
-0.4142135623730776
10
148.53934246984682
20
-18.238812109864259
10
146.2238256221107
20
-37.097189045827854
42
-0.41421356237310858
10
145.66661789013574
20
-37.532527469846805
10
127.75115937661744
20
-35.332786412393531
42
-0.41421356237310503
0
CIRCLE
5
112
100
AcDbEntity
8
0
100
AcDbCircle
10
82.677489322474358
20
-2.7257434480660625
30
0
40
1.1000000000000119
210
0
220
0
230
1
0
LWPOLYLINE
5
113
100
AcDbEntity
8
0
100
AcDbPolyline
90
24
70
1
43
0.0
10
40.368658183851771
20
-111.23681730500763
10
167.79251809858394
20
-126.88249537359383
42
0.41421354001079719
10
169.18553741689053
20
-125.7941494082722
10
182.40988879854717
20
-18.090486651644682
42
0.41421358473539327
10
181.32154275013065
20
-16.69746722698147
10
173.47794679687155
20
-15.734395026320824
42
0.41421356237310558
10
172.08492746693412
20
-16.822741086368239
10
171.41464628480691
20
-22.281744849609066
10
167.23818240519736
20
-56.296302102576036
42
-0.41421356237305829
10
166.68097463998447
20
-56.73164048405237
10
149.04342998307334
20
-54.56602158045294
42
-0.4142135623730841
10
148.6080916015971
20
-54.008813815240018
10
152.78455528329582
20
-19.994258174126522
10
153.45483648868478
20
-14.535254221434165
42
0.4142135623730982
10
152.36649042863741
20
-13.142234891496727
10
148.79943462734781
20
-12.704255640538534
42
-0.036329534497970439
10
148.62145747111219
20
-12.669140363551385
10
103.43200397888987
20
-0.28766797016579027
42
0.06674153810675118
10
103.10276075543004
20
-0.24323584661723463
10
-3.2964402483630906
20
-0.15210977310360571
42
0.41446446494313044
10
-4.5475108160839088
20
-1.4021094455072036
10
-4.5474994504309407
20
-109.9775001308498
42
0.41421353171307751
10
-3.2974994504309403
20
-111.22749999999999
10
40.216321548906748
20
-111.22750000000003
42
-0.030552754361578945
0
LWPOLYLINE
5
114
100
AcDbEntity
8
0
100
AcDbPolyline
90
24
70
1
43
0.0
10
222.21544471670421
20
-19.994258174126522
10
226.3919083984029
20
-54.008813815240018
42
-0.41421356237306345
10
225.95657001692666
20
-54.566021580452933
10
208.31902536001553
20
-56.731640484052392
42
-0.41421356237306989
10
207.76181759480264
20
-56.296302102576036
10
203.58535371519309
20
-22.281744849609066
10
202.91507253306582
20
-16.822741086368239
42
0.41421356237309709
10
201.52205320312842
20
-15.734395026320854
10
193.67845724986938
20
-16.69746722698147
42
0.41421358473538494
10
192.59011120145283
20
-18.090486651644685
10
205.8144625831095
20
-125.7941494082722
42
0.41421354001083899
10
207.20748190141603
20
-126.88249537359384
10
334.63134181614816
20
-111.23681730500765
42
-0.030552754361472707
10
334.78367845109324
20
-111.22750000000003
10
378.29749945043091
20
-111.22750000000002
42
0.41421353171306297
10
379.54749945043096
20
-109.97750013084982
10
379.5475108160839
20
-1.4021094455072003
42
0.41446446494311634
10
378.29644024836313
20
-0.1521097731036293
10
271.8972392445699
20
-0.24323584661723352
42
0.066741538106725048
10
271.56799602111016
20
-0.28766797016578644
10
226.37854252888781
20
-12.669140363551383
42
-0.036329534497992901
10
226.20056537265219
20
-12.704255640538531
10
222.63350957136259
20
-13.142234891496729
42
0.41421356237308016
10
221.54516351131522
20
-14.535254221434162
0
CIRCLE
5
115
100
AcDbEntity
8
0
100
AcDbCircle
10
220.48524561719813
20
-82.911592113197315
30
0
40
12.262500000000003
210
-0
220
0
230
1
0
LWPOLYLINE
5
116
100
AcDbEntity
8
0
100
AcDbPolyline
90
8
70
1
43
0.0
10
350.21000000000004
20
-25.240000000000002
10
331.21000000000004
20
-25.24000000000003
42
-0.41421356237309764
10
330.70999999999998
20
-24.739999999999984
10
330.70999999999998
20
-5.7400000000000162
42
-0.4142135623730937
10
331.21000000000004
20
-5.240000000000002
10
350.21000000000004
20
-5.2399999999999736
42
-0.41421356237309631
10
350.71000000000004
20
-5.740000000000018
10
350.70999999999998
20
-24.740000000000002
42
-0.41421356237309764
0
LWPOLYLINE
5
117
100
AcDbEntity
8
0
100
AcDbPolyline
90
39
70
1
43
0.0
10
304.04000000000002
20
-17.016826117658734
10
304.04000000000002
20
-5.7400000000000162
42
-0.41421356237310025
10
304.54000000000002
20
-5.2400000000000091
10
323.53999999999996
20
-5.2400000000000233
42
-0.41421356237309698
10
324.03999999999996
20
-5.7399999999999984
10
324.03999999999996
20
-24.739999999999995
42
-0.41421356237310542
10
323.53999999999996
20
-25.240000000000009
10
306.0313164345273
20
-25.239999999999995
42
0.030552773466740908
10
305.97038174265896
20
-25.24372692665537
10
286.65207190555537
20
-27.615717914212095
42
-0.41421358473536529
10
286.0948641356901
20
-27.180379494845464
10
285.86849174988868
20
-25.336723818787821
42
0.41421358473535691
10
285.31128398002346
20
-24.901385399421198
10
266.45290709988797
20
-27.216903701841005
42
0.41421354001078065
10
266.01756871375937
20
-27.774111429163604
10
266.24394106225373
20
-29.617766801379478
42
-0.41421356237310952
10
265.80860263823479
20
-30.174974533354451
10
247.89314510986429
20
-32.374715469846826
42
0.41421356237316026
10
247.4578066858453
20
-32.931923201821803
10
247.68417904740153
20
-34.775578680418555
42
-0.41421356237309537
10
247.24884062338259
20
-35.332786412393524
10
229.33338210986426
20
-37.532527469846819
42
-0.41421356237312412
10
228.77617437788928
20
-37.097189045827854
10
226.46065753015318
20
-18.238812109864256
42
-0.41421356237306234
10
226.89599595417212
20
-17.681604377889286
10
244.8114544676904
20
-15.481863320436036
42
0.41421356237301971
10
245.24679289170936
20
-14.924655588461066
10
245.02042053015316
20
-13.081000109864283
42
-0.41421356237306617
10
245.45575895417213
20
-12.523792377889304
10
263.37121648254254
20
-10.324051441396946
42
0.41421356237317231
10
263.80655490656153
20
-9.766843709421968
10
263.58018255806718
20
-7.923188337206108
42
-0.41421354001077237
10
264.01552094419583
20
-7.3659806098834677
10
282.87389782433127
20
-5.0504623074637269
42
-0.41421358473541769
10
283.43110559419654
20
-5.4858007268303313
10
283.6574779651458
20
-7.3294562819269693
42
0.4142135847353911
10
284.21468573501107
20
-7.7647947012936047
10
302.13014359698951
20
-5.5650523353778034
42
-0.41421356237308149
10
302.68735136220238
20
-6.0003907168540982
0
CIRCLE
5
118
100
AcDbEntity
8
0
100
AcDbCircle
10
376.54751063273721
20
-3.153608751998183
30
0
40
1.1000000000000005
210
-0
220
0
230
1
0
CIRCLE
5
119
100
AcDbEntity
8
0
100
AcDbCircle
10
292.32251067752566
20
-2.7257434480660625
30
0
40
1.1000000000000119
210
-0
220
0
230
1
0
CIRCLE
5
120
100
AcDbEntity
8
0
100
AcDbCircle
10
223.6825925529738
20
-15.532198288883688
30
0
40
1.0999999999999943
210
-0
220
0
230
1
0
CIRCLE
5
121
100
AcDbEntity
8
0
100
AcDbCircle
10
195.78102107934279
20
-19.461834389757023
30
0
40
1.0999999999999943
210
-0
220
0
230
1
0
CIRCLE
5
122
100
AcDbEntity
8
0
100
AcDbCircle
10
208.57882961792129
20
-123.69158563297221
30
0
40
1.0999999999999943
210
-0
220
0
230
1
0
CIRCLE
5
123
100
AcDbEntity
8
0
100
AcDbCircle
10
376.54749963362065
20
-108.22750000000001
30
0
40
1.0999999999999961
210
-0
220
0
230
1
0
CIRCLE
5
124
100
AcDbEntity
8
0
100
AcDbCircle
10
292.32249903847202
20
-113.9129139013173
30
0
40
1.0999999999999943
210
-0
220
0
230
1
0
LWPOLYLINE
5
125
100
AcDbEntity
8
0
100
AcDbPolyline
90
8
70
1
43
0.0
10
220.89308503981067
20
-96.640629487138654
10
223.37445041891408
20
-96.335956128626037
42
-0.4142135623731501
10
224.21026204019887
20
-96.98896373480332
10
224.33213138360389
20
-97.981509886444584
42
-0.41421356237304602
10
223.67912377742675
20
-98.817321507729361
10
221.19775839832334
20
-99.121994866242019
42
-0.41421356237309587
10
220.36194677703855
20
-98.468987260064779
10
220.24007743363353
20
-97.476441108423444
42
-0.41421356237304602
0
CIRCLE
5
126
100
AcDbEntity
8
0
100
AcDbCircle
10
199.66318587423825
20
-55.182271914852052
30
0
40
1.0999999999999943
210
-0
220
0
230
1
0
LWPOLYLINE
5
127
100
AcDbEntity
8
0
100
AcDbPolyline
90
66
70
1
43
0.0
10
259.73408240442933
20
-95.220108456197593
10
282.28349069140495
20
-92.451389579256769
10
292.82309001970236
20
-91.157288503436149
10
298.16422972722643
20
-90.501479203363289
42
-0.41421356237307444
10
298.72143745920147
20
-90.936817627382254
10
301.03695421161541
20
-109.79519378700971
42
-0.41421354951743677
10
300.60161580937881
20
-110.35240151631015
10
210.83822330446512
20
-121.37396099520186
42
-0.41421355286644529
10
210.28101555536014
20
-120.93862261174777
10
207.96549724000582
20
-102.08024562626876
42
-0.41421357957490745
10
208.40083565062858
20
-101.52303785747706
10
235.77029485844858
20
-98.162491329247587
42
0.41421355721255798
10
236.20563327372366
20
-97.605283598346162
10
229.36267155806729
20
-41.873816337206115
42
-0.41421354001068511
10
229.79800994419594
20
-41.316608609883467
10
247.7134680370439
20
-39.116866215620469
42
0.41421356237308082
10
248.14880641852022
20
-38.559658450407532
10
247.92243433537777
20
-36.716006403010454
42
-0.41421356237310958
10
248.35777271685407
20
-36.158798637797538
10
266.27323050135828
20
-33.95905628139441
42
0.41421354001079225
10
266.70856888748693
20
-33.401848554071776
10
266.4821965301532
20
-31.558193109864263
42
-0.41421356237306384
10
266.9175349541722
20
-31.000985377889286
10
285.77591189013572
20
-28.685468530153187
42
-0.41421356237307472
10
286.33311962211064
20
-29.120806954172149
10
286.5594918683542
20
-30.964461493621577
42
0.41421359565834698
10
287.11669965672712
20
-31.399799910715767
10
305.0321586121442
20
-29.200056732342908
42
-0.41421359565834376
10
305.58936640051706
20
-29.635395149437059
10
307.52969829308938
20
-45.438134933763969
42
0.34591433867278143
10
307.61732907542319
20
-45.525270137964611
10
307.7383761667345
20
-45.539436478697503
42
0.4487626938215899
10
307.85000000000002
20
-45.440114343701239
10
307.85000000000002
20
-29.552500000000034
42
-0.41421356237309243
10
308.35000000000002
20
-29.05250000000003
10
355.92250000000001
20
-29.052499999999931
42
-0.41421356237309243
10
356.42250000000001
20
-29.552499999999966
10
356.42250000000001
20
-47.602500000000006
42
0.4142135623731939
10
356.92249999999996
20
-48.102500000000006
10
372.11725000000001
20
-48.102500000000035
42
-0.41421356237309503
10
372.61725000000001
20
-48.602500000000006
10
372.61725000000001
20
-67.60250000000002
42
-0.41421356237310025
10
372.11725000000001
20
-68.102500000000006
10
365.49624999999997
20
-68.102500000000006
42
0.41421356237318868
10
364.99625000000003
20
-68.602500000000006
10
364.995
20
-87.652500000000032
10
364.995
20
-105.70250000000001
42
-0.41421356237307422
10
364.49499999999995
20
-106.2025
10
335.97499999999997
20
-106.2025
42
-0.41421356237310542
10
335.47500000000002
20
-105.70250000000001
10
335.47500000000002
20
-87.652500000000074
42
0.41421356237309503
10
334.97499999999997
20
-87.152500000000032
10
309.81804984145833
20
-87.152500000000032
42
0.030552773466250793
10
309.75711514958999
20
-87.156226926655421
10
293.25438817566862
20
-89.182507692536333
42
-0.41421358473543429
10
292.69718040580335
20
-88.747169273169703
10
292.47080804970625
20
-86.903513839033991
42
0.41421358473540204
10
291.91360027984098
20
-86.468175419667418
10
274.94106163445474
20
-88.55214182471444
42
0.41421354001077804
10
274.50572324832603
20
-89.109349552037074
10
274.73209544193276
20
-90.953003662793947
42
-0.41421354001079996
10
274.29675705580411
20
-91.510211390116552
10
256.38129974056346
20
-93.709953688901294
42
0.41421354001078969
10
255.94596135443481
20
-94.267161416223928
10
256.05655770414501
20
-95.167896667887049
42
0.41421356237316603
10
256.61376543611999
20
-95.603235091906015
0
ENDSEC
0
SECTION
2
OBJECTS
0
DICTIONARY
5
C
100
AcDbDictionary
3
ACAD_GROUP
350
D
3
ACAD_MLINESTYLE
350
17
0
DICTIONARY
5
D
100
AcDbDictionary
0
DICTIONARY
5
1A
330
C
100
AcDbDictionary
0
DICTIONARY
5
17
100
AcDbDictionary
0
ENDSEC
0
EOF
