0
SECTION
2
HEADER
9
$INSUNITS
70
4
9
$ACADVER
1
AC1014
9
$HANDSEED
5
FFFF
0
ENDSEC
0
SECTION
2
TABLES
0
TABLE
2
VPORT
5
8
100
AcDbSymbolTable
0
ENDTAB
0
TABLE
2
LTYPE
5
5
100
AcDbSymbolTable
0
LTYPE
5
14
100
AcDbSymbolTableRecord
100
AcDbLinetypeTableRecord
2
BYBLOCK
70
0
0
LTYPE
5
15
100
AcDbSymbolTableRecord
100
AcDbLinetypeTableRecord
2
BYLAYER
70
0
0
ENDTAB
0
TABLE
2
LAYER
5
2
100
AcDbSymbolTable
70
2
0
LAYER
5
50
100
AcDbSymbolTableRecord
100
AcDbLayerTableRecord
2
0
70
0
6
CONTINUOUS
0
ENDTAB
0
TABLE
2
STYLE
5
3
100
AcDbSymbolTable
70
1
0
STYLE
5
11
100
AcDbSymbolTableRecord
100
AcDbTextStyleTableRecord
2
STANDARD
70
0
0
ENDTAB
0
TABLE
2
VIEW
5
6
100
AcDbSymbolTable
70
0
0
ENDTAB
0
TABLE
2
UCS
5
7
100
AcDbSymbolTable
70
0
0
ENDTAB
0
TABLE
2
APPID
5
9
100
AcDbSymbolTable
70
2
0
APPID
5
12
100
AcDbSymbolTableRecord
100
AcDbRegAppTableRecord
2
ACAD
70
0
0
ENDTAB
0
TABLE
2
DIMSTYLE
5
A
100
AcDbSymbolTable
70
1
0
ENDTAB
0
TABLE
2
BLOCK_RECORD
5
1
100
AcDbSymbolTable
70
1
0
BLOCK_RECORD
5
1F
100
AcDbSymbolTableRecord
100
AcDbBlockTableRecord
2
*MODEL_SPACE
0
BLOCK_RECORD
5
1B
100
AcDbSymbolTableRecord
100
AcDbBlockTableRecord
2
*PAPER_SPACE
0
ENDTAB
0
ENDSEC
0
SECTION
2
BLOCKS
0
BLOCK
5
20
100
AcDbEntity
100
AcDbBlockBegin
2
*MODEL_SPACE
0
ENDBLK
5
21
100
AcDbEntity
100
AcDbBlockEnd
0
BLOCK
5
1C
100
AcDbEntity
100
AcDbBlockBegin
2
*PAPER_SPACE
0
ENDBLK
5
1D
100
AcDbEntity
100
AcDbBlockEnd
0
ENDSEC
0
SECTION
2
ENTITIES
0
CIRCLE
5
100
100
AcDbEntity
8
0
100
AcDbCircle
10
164.38635141522053
20
-99.236318987204086
30
0
40
1.0999999999999943
210
0
220
0
230
1
0
CIRCLE
5
101
100
AcDbEntity
8
0
100
AcDbCircle
10
173.64690122200429
20
-23.815218583423125
30
0
40
1.0999999999999943
210
0
220
0
230
1
0
CIRCLE
5
102
100
AcDbEntity
8
0
100
AcDbCircle
10
3.4524999999999983
20
-103.22750000000001
30
0
40
1.0999999999999983
210
0
220
0
230
1
0
CIRCLE
5
103
100
AcDbEntity
8
0
100
AcDbCircle
10
150.44712820286003
20
-20.966645481095082
30
0
40
1.1000000000000119
210
0
220
0
230
1
0
CIRCLE
5
104
100
AcDbEntity
8
0
100
AcDbCircle
10
3.4524999999999983
20
-8.2150000000000016
30
0
40
1.0999999999999999
210
0
220
0
230
1
0
CIRCLE
5
105
100
AcDbEntity
8
0
100
AcDbCircle
10
167.46585568689045
20
-119.28606262684868
30
0
40
1.0999999999999943
210
0
220
0
230
1
0
CIRCLE
5
106
100
AcDbEntity
8
0
100
AcDbCircle
10
82.986358586720286
20
-113.95083683801083
30
0
40
1.0999999999999943
210
0
220
0
230
1
0
CIRCLE
5
107
100
AcDbEntity
8
0
100
AcDbCircle
10
175.94616104444486
20
-50.219541181405852
30
0
40
1.0999999999999943
210
0
220
0
230
1
0
CIRCLE
5
108
100
AcDbEntity
8
0
100
AcDbCircle
10
2.9524893153262841
20
-2.6574626141108433
30
0
40
1.0999999999999999
210
0
220
0
230
1
0
CIRCLE
5
109
100
AcDbEntity
8
0
100
AcDbCircle
10
179.16683977183931
20
-23.989226703836621
30
0
40
1.0999999999999943
210
0
220
0
230
1
0
CIRCLE
5
110
100
AcDbEntity
8
0
100
AcDbCircle
10
-2.0475101617226894
20
-7.653182175563062
30
0
40
1.1000000000000001
210
0
220
0
230
1
0
CIRCLE
5
111
100
AcDbEntity
8
0
100
AcDbCircle
10
-2.0475001046798358
20
-103.72750000000003
30
0
40
1.100000000000003
210
0
220
0
230
1
0
CIRCLE
5
112
100
AcDbEntity
8
0
100
AcDbCircle
10
2.9525004226590807
20
-108.7651362819736
30
0
40
1.0999999999999943
210
0
220
0
230
1
0
CIRCLE
5
113
100
AcDbEntity
8
0
100
AcDbCircle
10
172.27179914211786
20
-80.144807362926045
30
0
40
1.0999999999999943
210
0
220
0
230
1
0
CIRCLE
5
114
100
AcDbEntity
8
0
100
AcDbCircle
10
161.89377798823767
20
-123.63944682051473
30
0
40
1.0999999999999943
210
0
220
0
230
1
0
CIRCLE
5
115
100
AcDbEntity
8
0
100
AcDbCircle
10
145.85840358905961
20
-14.861917095125579
30
0
40
1.0999999999999943
210
0
220
0
230
1
0
CIRCLE
5
116
100
AcDbEntity
8
0
100
AcDbCircle
10
92.612003397967882
20
-2.7342519072595977
30
0
40
1.0999999999999943
210
0
220
0
230
1
0
LWPOLYLINE
5
117
100
AcDbEntity
8
0
100
AcDbPolyline
90
14
70
1
43
0.0
10
182.40988879854717
20
-18.090486651644682
42
0.41421358473538217
10
181.32154275013062
20
-16.697467226981487
10
148.79943462734781
20
-12.704255640538538
42
-0.036329534497951212
10
148.62145747111219
20
-12.669140363551383
10
103.43200397888987
20
-0.28766797016578138
42
0.066741538106760381
10
103.10276075543008
20
-0.24323584661723657
10
-3.2964402483630906
20
-0.15210977310360363
42
0.41446446494312966
10
-4.5475108160839088
20
-1.4021094455072036
10
-4.5474994504309407
20
-109.97750013084982
42
0.41421353171308073
10
-3.2974994504309407
20
-111.22750000000003
10
40.216321548906748
20
-111.22750000000002
42
-0.03055275436170574
10
40.368658183851771
20
-111.23681730500765
10
167.79251809858394
20
-126.88249537359384
42
0.41421354001082611
10
169.1855374168905
20
-125.7941494082722
0
LWPOLYLINE
5
118
100
AcDbEntity
8
0
100
AcDbPolyline
90
12
70
1
43
0.0
10
160.44023473237374
20
-129.76751045049636
10
37.878178180813848
20
-114.71878659679464
42
0.030552754361683396
10
37.81724352683591
20
-114.71505967479163
10
-0.79826298487022362
20
-114.71505967479162
42
-0.19891236737966977
10
-1.858923156650043
20
-114.27571984657142
10
-6.9321458655219459
20
-119.34894319753717
42
0.19891235377695518
10
-6.0482624353011616
20
-119.7150596747916
10
37.465558564036456
20
-119.71505967479162
42
-0.030552754361708741
10
37.6178951989815
20
-119.72437697979925
10
165.04175511371346
20
-135.3700550483855
42
0.19891235745834984
10
165.9636685903929
20
-135.11438579729429
10
161.54653090438899
20
-129.46070734918678
42
-0.19891235745831654
0
LWPOLYLINE
5
119
100
AcDbEntity
8
0
100
AcDbPolyline
90
8
70
1
43
0.0
10
173.22685213050471
20
-122.26177472837367
42
0.19891235745830832
10
173.79217914045725
20
-121.2625626712973
10
185.73690199287933
20
-23.980634454907008
42
0.19891237730102265
10
185.43009890552696
20
-22.874338169220714
10
191.08377780033209
20
-18.457200134218198
42
-0.19891237730097019
10
191.3394470397925
20
-19.379113705623414
10
178.11509565813571
20
-127.08277646225078
42
-0.19891235745835451
10
177.64398981650862
20
-127.91545317648118
0
LWPOLYLINE
5
120
100
AcDbEntity
8
0
100
AcDbPolyline
90
26
70
1
43
0.0
10
-1.6616728653680823
20
10.39795369518755
42
0.19902367596121687
10
-2.5462483719294049
20
10.032216005713988
10
2.5125229067054109
20
4.9249507753233948
42
-0.19902367596122658
10
3.5831079334232641
20
5.3934599453339338
10
71.76706332657227
20
5.3350634682717519
42
-0.030554045888640757
10
71.949875029588839
20
5.3238826883250034
10
92.398314727015645
20
2.8131291554908522
42
0.41421358473549624
10
92.955522496880917
20
3.2484675748574787
10
93.060025550569321
20
4.0995768981793992
42
-0.41421358473542957
10
94.73164886016518
20
5.4055921562793863
10
111.65456075425658
20
3.3277191521460594
42
-0.41421354001076471
10
112.96057591264264
20
1.6560959701783062
10
112.8560728630323
20
0.80498668007006557
42
0.41421356237308471
10
113.2914112870513
20
0.2477789480951742
10
130.21432265942769
20
-1.8300926804411997
42
-0.41421356237307394
10
131.52033793148451
20
-3.5017158763661094
10
131.41583487788435
20
-4.3528251989689792
42
0.41421356237320084
10
131.85117330190332
20
-4.9100329309439239
10
177.13609587652911
20
-10.470320623041262
42
-0.19891237730100239
10
178.1353080472766
20
-11.035647646950828
10
183.78898694208175
20
-6.6185096119483156
42
0.19891237730098318
10
182.9563101331255
20
-6.1474037586903307
10
150.43420201034277
20
-2.1541921722473742
42
-0.036329534497957325
10
150.25622485410713
20
-2.1190768952602212
10
105.06677136188485
20
10.262395498125372
42
0.066741538106760701
10
104.73752813842506
20
10.306827621673929
0
CIRCLE
5
121
100
AcDbEntity
8
0
100
AcDbCircle
10
159.14301500336717
20
-132.12700649530638
30
0
40
1.6000000000000014
210
0
220
0
230
1
0
CIRCLE
5
122
100
AcDbEntity
8
0
100
AcDbCircle
10
0.20173743778885367
20
-117.25269595676515
30
0
40
1.6000000000000041
210
0
220
0
230
1
0
LWPOLYLINE
5
123
100
AcDbEntity
8
0
100
AcDbPolyline
90
8
70
1
43
0.0
10
-7.5787693845620723
20
-104.20597905229587
42
0.19891236737965615
10
-7.1394295563418702
20
-105.26663922407567
10
-12.212652265213794
20
-110.33986257504145
42
-0.19891235377695637
10
-12.578768834992989
20
-109.45597918314564
10
-12.578780200645983
20
-0.88058849780313841
42
-0.19902367596121456
10
-12.212285139486514
20
0.0036734851268960256
10
-7.1535138608516995
20
-5.1035917452636959
42
0.19902367596122827
10
-7.578779644640175
20
-6.1920779210855237
0
CIRCLE
5
124
100
AcDbEntity
8
0
100
AcDbCircle
10
188.09639801308461
20
-25.277853757815354
30
0
40
1.6000000000000014
210
0
220
0
230
1
0
CIRCLE
5
125
100
AcDbEntity
8
0
100
AcDbCircle
10
4.5872566983213048
20
7.892600854180305
30
0
40
1.6000000000000003
210
0
220
0
230
1
0
CIRCLE
5
126
100
AcDbEntity
8
0
100
AcDbCircle
10
94.246770780962876
20
7.8158115610315626
30
0
40
1.6000000000000014
210
0
220
0
230
1
0
CIRCLE
5
127
100
AcDbEntity
8
0
100
AcDbCircle
10
184.8757192856902
20
-51.508168235384559
30
0
40
1.6000000000000014
210
0
220
0
230
1
0
CIRCLE
5
128
100
AcDbEntity
8
0
100
AcDbCircle
10
147.49317097205454
20
-4.3118536268344165
30
0
40
1.6000000000000014
210
0
220
0
230
1
0
CIRCLE
5
129
100
AcDbEntity
8
0
100
AcDbCircle
10
80.235595601849923
20
-122.43839651280243
30
0
40
1.6000000000000014
210
0
220
0
230
1
0
CIRCLE
5
130
100
AcDbEntity
8
0
100
AcDbCircle
10
181.20135738336313
20
-81.433434416904689
30
0
40
1.6000000000000014
210
0
220
0
230
1
0
CIRCLE
5
131
100
AcDbEntity
8
0
100
AcDbCircle
10
176.3954139281357
20
-120.57468968082723
30
0
40
1.6000000000000014
210
0
220
0
230
1
0
CIRCLE
5
132
100
AcDbEntity
8
0
100
AcDbCircle
10
-10.078779546284771
20
-7.1316612278589986
30
0
40
1.600000000000001
210
0
220
0
230
1
0
CIRCLE
5
133
100
AcDbEntity
8
0
100
AcDbCircle
10
-10.078769489241893
20
-103.20597905229587
30
0
40
1.5999999999999988
210
0
220
0
230
1
0
ENDSEC
0
SECTION
2
OBJECTS
0
DICTIONARY
5
C
100
AcDbDictionary
3
ACAD_GROUP
350
D
3
ACAD_MLINESTYLE
350
17
0
DICTIONARY
5
D
100
AcDbDictionary
0
DICTIONARY
5
1A
330
C
100
AcDbDictionary
0
DICTIONARY
5
17
100
AcDbDictionary
0
ENDSEC
0
EOF
