0
SECTION
2
HEADER
9
$INSUNITS
70
4
9
$ACADVER
1
AC1014
9
$HANDSEED
5
FFFF
0
ENDSEC
0
SECTION
2
TABLES
0
TABLE
2
VPORT
5
8
100
AcDbSymbolTable
0
ENDTAB
0
TABLE
2
LTYPE
5
5
100
AcDbSymbolTable
0
LTYPE
5
14
100
AcDbSymbolTableRecord
100
AcDbLinetypeTableRecord
2
BYBLOCK
70
0
0
LTYPE
5
15
100
AcDbSymbolTableRecord
100
AcDbLinetypeTableRecord
2
BYLAYER
70
0
0
ENDTAB
0
TABLE
2
LAYER
5
2
100
AcDbSymbolTable
70
2
0
LAYER
5
50
100
AcDbSymbolTableRecord
100
AcDbLayerTableRecord
2
0
70
0
6
CONTINUOUS
0
ENDTAB
0
TABLE
2
STYLE
5
3
100
AcDbSymbolTable
70
1
0
STYLE
5
11
100
AcDbSymbolTableRecord
100
AcDbTextStyleTableRecord
2
STANDARD
70
0
0
ENDTAB
0
TABLE
2
VIEW
5
6
100
AcDbSymbolTable
70
0
0
ENDTAB
0
TABLE
2
UCS
5
7
100
AcDbSymbolTable
70
0
0
ENDTAB
0
TABLE
2
APPID
5
9
100
AcDbSymbolTable
70
2
0
APPID
5
12
100
AcDbSymbolTableRecord
100
AcDbRegAppTableRecord
2
ACAD
70
0
0
ENDTAB
0
TABLE
2
DIMSTYLE
5
A
100
AcDbSymbolTable
70
1
0
ENDTAB
0
TABLE
2
BLOCK_RECORD
5
1
100
AcDbSymbolTable
70
1
0
BLOCK_RECORD
5
1F
100
AcDbSymbolTableRecord
100
AcDbBlockTableRecord
2
*MODEL_SPACE
0
BLOCK_RECORD
5
1B
100
AcDbSymbolTableRecord
100
AcDbBlockTableRecord
2
*PAPER_SPACE
0
ENDTAB
0
ENDSEC
0
SECTION
2
BLOCKS
0
BLOCK
5
20
100
AcDbEntity
100
AcDbBlockBegin
2
*MODEL_SPACE
0
ENDBLK
5
21
100
AcDbEntity
100
AcDbBlockEnd
0
BLOCK
5
1C
100
AcDbEntity
100
AcDbBlockBegin
2
*PAPER_SPACE
0
ENDBLK
5
1D
100
AcDbEntity
100
AcDbBlockEnd
0
ENDSEC
0
SECTION
2
ENTITIES
0
CIRCLE
5
100
100
AcDbEntity
8
0
100
AcDbCircle
10
4.5974012727649267
20
19.378689934124033
30
0
40
1.6000000000000003
210
0
220
-0
230
1
0
CIRCLE
5
101
100
AcDbEntity
8
0
100
AcDbCircle
10
147.50331554649793
20
7.1742354531093744
30
0
40
1.6000000000000014
210
0
220
-0
230
1
0
LWPOLYLINE
5
102
100
AcDbEntity
8
0
100
AcDbPolyline
90
25
70
1
43
0.0
10
71.96001960403234
20
16.809971768268749
42
0.030554045888632538
10
71.777207901015771
20
16.821152548215501
10
3.5932525078668789
20
16.879549025277676
42
0.19902367596122056
10
2.5226674811490279
20
16.411039855267127
10
-2.5361037974857714
20
21.518305085657712
42
-0.19902367596121698
10
-1.6515282909244533
20
21.884042775131263
10
104.74767271286849
20
21.792916701617667
42
-0.066741538106761214
10
105.07691593632828
20
21.748484578069114
10
150.26636942855052
20
9.3670121846835599
42
0.036329534497978308
10
150.44434658478613
20
9.3318969076964109
10
154.01140229134998
20
8.8939176683690686
42
-0.41421356237308771
10
155.09974835139738
20
7.5008983384316252
10
154.6427384465623
20
3.7788502534544266
10
131.8613178763467
20
6.5760561489998768
42
-0.41421356237319734
10
131.42597945232777
20
7.1332638809748028
10
131.53048250592792
20
7.9843732035776815
42
0.41421356237306883
10
130.22446723387111
20
9.6559963995025786
10
113.30155586149473
20
11.73386802803895
42
-0.41421356237308182
10
112.86621743747573
20
12.291075760013834
10
112.97072048708607
20
13.14218505012208
42
0.41421354001076349
10
111.66470532870001
20
14.813808232089826
10
94.741793434608624
20
16.89168123622315
42
0.41421358473542469
10
93.070170125012766
20
15.585665978123144
10
92.965667071324361
20
14.734556654801242
42
-0.41421358473549852
10
92.408459301459089
20
14.299218235434608
0
CIRCLE
5
103
100
AcDbEntity
8
0
100
AcDbCircle
10
147.49317097205454
20
-4.3118536268344165
30
0
40
1.6000000000000014
210
0
220
-0
230
1
0
CIRCLE
5
104
100
AcDbEntity
8
0
100
AcDbCircle
10
4.5872566983213048
20
7.892600854180305
30
0
40
1.6000000000000003
210
0
220
-0
230
1
0
LWPOLYLINE
5
105
100
AcDbEntity
8
0
100
AcDbPolyline
90
26
70
1
43
0.0
10
178.1353080472766
20
-11.035647646950828
42
0.19891237730100852
10
177.13609587652911
20
-10.470320623041259
10
131.85117330190332
20
-4.9100329309439106
42
-0.41421356237320084
10
131.41583487788435
20
-4.3528251989689792
10
131.52033793148451
20
-3.5017158763661094
42
0.41421356237307411
10
130.21432265942769
20
-1.8300926804411997
10
113.2914112870513
20
0.24777894809517628
42
-0.41421356237308471
10
112.8560728630323
20
0.80498668007006557
10
112.96057591264264
20
1.6560959701783062
42
0.41421354001076438
10
111.65456075425658
20
3.3277191521460594
10
94.73164886016518
20
5.4055921562793863
42
0.41421358473542957
10
93.060025550569321
20
4.0995768981794001
10
92.955522496880917
20
3.2484675748574792
42
-0.41421358473549624
10
92.398314727015645
20
2.8131291554908522
10
71.949875029588839
20
5.3238826883250034
42
0.030554045888640975
10
71.76706332657227
20
5.3350634682717519
10
3.5831079334232641
20
5.3934599453339338
42
0.19902367596122658
10
2.5125229067054109
20
4.9249507753233948
10
-2.5462483719294084
20
10.032216005713989
42
-0.19902367596121687
10
-1.6616728653680823
20
10.39795369518755
10
104.73752813842506
20
10.306827621673925
42
-0.066741538106760756
10
105.06677136188485
20
10.262395498125372
10
150.25622485410713
20
-2.1190768952602212
42
0.036329534497957186
10
150.43420201034277
20
-2.1541921722473747
10
182.9563101331255
20
-6.1474037586903183
42
-0.19891237730098313
10
183.78898694208175
20
-6.6185096119483156
0
CIRCLE
5
106
100
AcDbEntity
8
0
100
AcDbCircle
10
2.9524893153262841
20
-2.6574626141108433
30
0
40
1.0999999999999999
210
0
220
-0
230
1
0
CIRCLE
5
107
100
AcDbEntity
8
0
100
AcDbCircle
10
173.64690122200429
20
-23.815218583423125
30
0
40
1.0999999999999943
210
0
220
-0
230
1
0
CIRCLE
5
108
100
AcDbEntity
8
0
100
AcDbCircle
10
179.16683977183931
20
-23.989226703836621
30
0
40
1.0999999999999943
210
0
220
-0
230
1
0
CIRCLE
5
109
100
AcDbEntity
8
0
100
AcDbCircle
10
145.85840358905961
20
-14.861917095125579
30
0
40
1.0999999999999943
210
0
220
-0
230
1
0
CIRCLE
5
110
100
AcDbEntity
8
0
100
AcDbCircle
10
-2.0475101617226894
20
-7.653182175563062
30
0
40
1.1000000000000001
210
0
220
-0
230
1
0
CIRCLE
5
111
100
AcDbEntity
8
0
100
AcDbCircle
10
-2.0475001046798358
20
-103.72750000000003
30
0
40
1.100000000000003
210
0
220
-0
230
1
0
CIRCLE
5
112
100
AcDbEntity
8
0
100
AcDbCircle
10
175.94616104444486
20
-50.219541181405852
30
0
40
1.0999999999999943
210
0
220
-0
230
1
0
CIRCLE
5
113
100
AcDbEntity
8
0
100
AcDbCircle
10
164.38635141522053
20
-99.236318987204086
30
0
40
1.0999999999999943
210
0
220
-0
230
1
0
CIRCLE
5
114
100
AcDbEntity
8
0
100
AcDbCircle
10
167.46585568689045
20
-119.28606262684868
30
0
40
1.0999999999999943
210
0
220
-0
230
1
0
CIRCLE
5
115
100
AcDbEntity
8
0
100
AcDbCircle
10
150.44712820286003
20
-20.966645481095082
30
0
40
1.1000000000000121
210
0
220
-0
230
1
0
CIRCLE
5
116
100
AcDbEntity
8
0
100
AcDbCircle
10
172.27179914211786
20
-80.144807362926045
30
0
40
1.0999999999999943
210
0
220
-0
230
1
0
CIRCLE
5
117
100
AcDbEntity
8
0
100
AcDbCircle
10
161.89377798823767
20
-123.63944682051473
30
0
40
1.0999999999999943
210
0
220
-0
230
1
0
CIRCLE
5
118
100
AcDbEntity
8
0
100
AcDbCircle
10
3.4524999999999983
20
-103.22750000000001
30
0
40
1.0999999999999983
210
0
220
-0
230
1
0
CIRCLE
5
119
100
AcDbEntity
8
0
100
AcDbCircle
10
3.4524999999999983
20
-8.2150000000000016
30
0
40
1.0999999999999999
210
0
220
-0
230
1
0
CIRCLE
5
120
100
AcDbEntity
8
0
100
AcDbCircle
10
2.9525004226590807
20
-108.7651362819736
30
0
40
1.0999999999999943
210
0
220
-0
230
1
0
LWPOLYLINE
5
121
100
AcDbEntity
8
0
100
AcDbPolyline
90
14
70
1
43
0.0
10
40.368658183851771
20
-111.23681730500765
42
0.030552754361705736
10
40.216321548906748
20
-111.22750000000002
10
-3.2974994504309407
20
-111.22750000000005
42
-0.41421353171308073
10
-4.5474994504309407
20
-109.97750013084982
10
-4.5475108160839106
20
-1.4021094455072038
42
-0.41446446494312966
10
-3.2964402483630906
20
-0.15210977310360363
10
103.10276075543008
20
-0.24323584661722836
42
-0.066741538106760423
10
103.43200397888987
20
-0.28766797016578138
10
148.62145747111219
20
-12.669140363551383
42
0.036329534497951427
10
148.79943462734781
20
-12.704255640538539
10
181.32154275013062
20
-16.697467226981487
42
-0.41421358473538217
10
182.40988879854717
20
-18.090486651644682
10
169.1855374168905
20
-125.7941494082722
42
-0.41421354001082611
10
167.79251809858394
20
-126.88249537359384
0
CIRCLE
5
122
100
AcDbEntity
8
0
100
AcDbCircle
10
-10.078769489241893
20
-103.20597905229587
30
0
40
1.5999999999999992
210
0
220
-0
230
1
0
CIRCLE
5
123
100
AcDbEntity
8
0
100
AcDbCircle
10
-10.078779546284771
20
-7.1316612278589986
30
0
40
1.6000000000000014
210
0
220
-0
230
1
0
LWPOLYLINE
5
124
100
AcDbEntity
8
0
100
AcDbPolyline
90
8
70
1
43
0.0
10
-7.1535138608516995
20
-5.1035917452636959
42
0.19902367596122825
10
-7.5787796446401758
20
-6.1920779210855237
10
-7.5787693845620723
20
-104.20597905229587
42
0.19891236737965523
10
-7.1394295563418773
20
-105.26663922407567
10
-12.212652265213794
20
-110.33986257504145
42
-0.19891235377695637
10
-12.578768834992989
20
-109.45597918314564
10
-12.578780200645983
20
-0.88058849780313841
42
-0.19902367596121456
10
-12.212285139486514
20
0.0036734851268960256
0
CIRCLE
5
125
100
AcDbEntity
8
0
100
AcDbCircle
10
-18.078779546284771
20
-7.1316612278589986
30
0
40
1.6000000000000014
210
0
220
-0
230
1
0
CIRCLE
5
126
100
AcDbEntity
8
0
100
AcDbCircle
10
-18.078769489241893
20
-103.20597905229587
30
0
40
1.5999999999999992
210
0
220
-0
230
1
0
LWPOLYLINE
5
127
100
AcDbEntity
8
0
100
AcDbPolyline
90
8
70
1
43
0.0
10
-15.153513860851699
20
-5.1035917452636959
42
0.19902367596122827
10
-15.578779644640175
20
-6.1920779210855237
10
-15.578769384562072
20
-104.20597905229587
42
0.19891236737965509
10
-15.139429556341879
20
-105.26663922407567
10
-20.212652265213794
20
-110.33986257504145
42
-0.19891235377695637
10
-20.578768834992989
20
-109.45597918314564
10
-20.57878020064598
20
-0.88058849780313841
42
-0.19902367596121456
10
-20.212285139486514
20
0.0036734851268960256
0
CIRCLE
5
128
100
AcDbEntity
8
0
100
AcDbCircle
10
188.09639801308461
20
-25.277853757815354
30
0
40
1.6000000000000014
210
0
220
-0
230
1
0
CIRCLE
5
129
100
AcDbEntity
8
0
100
AcDbCircle
10
181.20135738336313
20
-81.433434416904689
30
0
40
1.6000000000000014
210
0
220
-0
230
1
0
CIRCLE
5
130
100
AcDbEntity
8
0
100
AcDbCircle
10
184.8757192856902
20
-51.508168235384559
30
0
40
1.6000000000000014
210
0
220
-0
230
1
0
CIRCLE
5
131
100
AcDbEntity
8
0
100
AcDbCircle
10
176.3954139281357
20
-120.57468968082723
30
0
40
1.6000000000000014
210
0
220
-0
230
1
0
LWPOLYLINE
5
132
100
AcDbEntity
8
0
100
AcDbPolyline
90
8
70
1
43
0.0
10
185.73690199287933
20
-23.980634454907008
42
0.19891237730102021
10
185.43009890552696
20
-22.874338169220731
10
191.08377780033209
20
-18.457200134218198
42
-0.19891237730097019
10
191.3394470397925
20
-19.379113705623414
10
178.11509565813571
20
-127.08277646225078
42
-0.19891235745835451
10
177.64398981650862
20
-127.91545317648118
10
173.22685213050471
20
-122.26177472837367
42
0.19891235745830602
10
173.79217914045728
20
-121.26256267129732
0
CIRCLE
5
133
100
AcDbEntity
8
0
100
AcDbCircle
10
198.77211215779363
20
-15.304367987568771
30
0
40
1.6000000000000014
210
0
220
-0
230
1
0
CIRCLE
5
134
100
AcDbEntity
8
0
100
AcDbCircle
10
195.55143343039919
20
-41.534682465137855
30
0
40
1.6000000000000014
210
0
220
-0
230
1
0
CIRCLE
5
135
100
AcDbEntity
8
0
100
AcDbCircle
10
187.07112807284477
20
-110.60120391058028
30
0
40
1.6000000000000014
210
0
220
-0
230
1
0
CIRCLE
5
136
100
AcDbEntity
8
0
100
AcDbCircle
10
191.87707152807221
20
-71.459948646657921
30
0
40
1.6000000000000014
210
0
220
-0
230
1
0
LWPOLYLINE
5
137
100
AcDbEntity
8
0
100
AcDbPolyline
90
11
70
1
43
0.0
10
183.90256627521376
20
-112.2882889581268
42
0.1989123574582736
10
184.46789328516638
20
-111.28907690105041
10
196.41261613758832
20
-14.007148684660455
42
0.4142135847354409
10
195.10660087948852
20
-12.335525375064583
10
191.23318985332762
20
-11.859930443446768
10
191.69019975816266
20
-8.1378823584695699
42
-0.4142135623731279
10
193.08321908810007
20
-7.0495362984221854
10
200.92681513608488
20
-8.0126085107137133
42
-0.41421358473537739
10
202.01516118450144
20
-9.4056279353768879
10
188.79080980284488
20
-117.10929069200384
42
-0.19891235745835081
10
188.31970396121775
20
-117.94196740623423
0
CIRCLE
5
138
100
AcDbEntity
8
0
100
AcDbCircle
10
211.22788784220637
20
-15.304367987568771
30
0
40
1.6000000000000014
210
0
220
0
230
1
0
CIRCLE
5
139
100
AcDbEntity
8
0
100
AcDbCircle
10
214.44856656960081
20
-41.534682465137855
30
0
40
1.6000000000000014
210
0
220
0
230
1
0
CIRCLE
5
140
100
AcDbEntity
8
0
100
AcDbCircle
10
222.92887192715523
20
-110.60120391058028
30
0
40
1.6000000000000014
210
0
220
0
230
1
0
CIRCLE
5
141
100
AcDbEntity
8
0
100
AcDbCircle
10
218.12292847192779
20
-71.459948646657921
30
0
40
1.6000000000000014
210
0
220
0
230
1
0
LWPOLYLINE
5
142
100
AcDbEntity
8
0
100
AcDbPolyline
90
11
70
1
43
0.0
10
225.53210671483362
20
-111.28907690105041
42
0.19891235745827146
10
226.09743372478624
20
-112.28828895812681
10
221.68029603878225
20
-117.94196740623421
42
-0.19891235745835853
10
221.20919019715518
20
-117.10929069200382
10
207.98483881549853
20
-9.4056279353768879
42
-0.41421358473539277
10
209.07318486391506
20
-8.0126085107136813
10
216.91678091189993
20
-7.0495362984221899
42
-0.41421356237315343
10
218.30980024183734
20
-8.1378823584695716
10
218.76681014667238
20
-11.859930443446768
10
214.89339912051148
20
-12.335525375064583
42
0.41421358473543979
10
213.58738386241168
20
-14.007148684660455
0
CIRCLE
5
143
100
AcDbEntity
8
0
100
AcDbCircle
10
221.90360198691539
20
-25.277853757815354
30
0
40
1.6000000000000014
210
0
220
0
230
1
0
CIRCLE
5
144
100
AcDbEntity
8
0
100
AcDbCircle
10
228.79864261663687
20
-81.433434416904689
30
0
40
1.6000000000000014
210
0
220
0
230
1
0
CIRCLE
5
145
100
AcDbEntity
8
0
100
AcDbCircle
10
225.1242807143098
20
-51.508168235384559
30
0
40
1.6000000000000014
210
0
220
0
230
1
0
CIRCLE
5
146
100
AcDbEntity
8
0
100
AcDbCircle
10
233.6045860718643
20
-120.57468968082723
30
0
40
1.6000000000000014
210
0
220
0
230
1
0
LWPOLYLINE
5
147
100
AcDbEntity
8
0
100
AcDbPolyline
90
8
70
1
43
0.0
10
224.56990109447304
20
-22.874338169220731
42
0.19891237730103972
10
224.26309800712067
20
-23.980634454907008
10
236.20782085954272
20
-121.26256267129732
42
0.1989123574583283
10
236.77314786949529
20
-122.26177472837367
10
232.35601018349138
20
-127.91545317648118
42
-0.19891235745836569
10
231.88490434186429
20
-127.08277646225078
10
218.6605529602075
20
-19.379113705623411
42
-0.19891237730095726
10
218.91622219966791
20
-18.457200134218201
0
CIRCLE
5
148
100
AcDbEntity
8
0
100
AcDbCircle
10
407.04751068467374
20
-2.6574626141108433
30
0
40
1.0999999999999999
210
0
220
0
230
1
0
CIRCLE
5
149
100
AcDbEntity
8
0
100
AcDbCircle
10
236.35309877799571
20
-23.815218583423125
30
0
40
1.0999999999999943
210
0
220
0
230
1
0
CIRCLE
5
150
100
AcDbEntity
8
0
100
AcDbCircle
10
230.83316022816069
20
-23.989226703836621
30
0
40
1.0999999999999943
210
0
220
0
230
1
0
CIRCLE
5
151
100
AcDbEntity
8
0
100
AcDbCircle
10
264.14159641094039
20
-14.861917095125579
30
0
40
1.0999999999999943
210
0
220
0
230
1
0
CIRCLE
5
152
100
AcDbEntity
8
0
100
AcDbCircle
10
412.0475101617227
20
-7.653182175563062
30
0
40
1.1000000000000001
210
0
220
0
230
1
0
CIRCLE
5
153
100
AcDbEntity
8
0
100
AcDbCircle
10
412.04750010467984
20
-103.72750000000003
30
0
40
1.100000000000003
210
0
220
0
230
1
0
CIRCLE
5
154
100
AcDbEntity
8
0
100
AcDbCircle
10
234.05383895555514
20
-50.219541181405852
30
0
40
1.0999999999999943
210
0
220
0
230
1
0
CIRCLE
5
155
100
AcDbEntity
8
0
100
AcDbCircle
10
245.61364858477947
20
-99.236318987204086
30
0
40
1.0999999999999943
210
0
220
0
230
1
0
CIRCLE
5
156
100
AcDbEntity
8
0
100
AcDbCircle
10
242.53414431310955
20
-119.28606262684868
30
0
40
1.0999999999999943
210
0
220
0
230
1
0
CIRCLE
5
157
100
AcDbEntity
8
0
100
AcDbCircle
10
259.55287179713997
20
-20.966645481095082
30
0
40
1.1000000000000121
210
0
220
0
230
1
0
CIRCLE
5
158
100
AcDbEntity
8
0
100
AcDbCircle
10
237.72820085788214
20
-80.144807362926045
30
0
40
1.0999999999999943
210
0
220
0
230
1
0
CIRCLE
5
159
100
AcDbEntity
8
0
100
AcDbCircle
10
248.10622201176233
20
-123.63944682051473
30
0
40
1.0999999999999943
210
0
220
0
230
1
0
CIRCLE
5
160
100
AcDbEntity
8
0
100
AcDbCircle
10
406.54750000000001
20
-103.22750000000001
30
0
40
1.0999999999999983
210
0
220
0
230
1
0
CIRCLE
5
161
100
AcDbEntity
8
0
100
AcDbCircle
10
406.54750000000001
20
-8.2150000000000016
30
0
40
1.0999999999999999
210
0
220
0
230
1
0
CIRCLE
5
162
100
AcDbEntity
8
0
100
AcDbCircle
10
407.04749957734094
20
-108.7651362819736
30
0
40
1.0999999999999943
210
0
220
0
230
1
0
LWPOLYLINE
5
163
100
AcDbEntity
8
0
100
AcDbPolyline
90
14
70
1
43
0.0
10
369.78367845109324
20
-111.22750000000003
42
0.030552754361746315
10
369.63134181614828
20
-111.23681730500765
10
242.20748190141597
20
-126.88249537359384
42
-0.41421354001083899
10
240.8144625831095
20
-125.7941494082722
10
227.59011120145283
20
-18.090486651644682
42
-0.41421358473538172
10
228.67845724986938
20
-16.697467226981487
10
261.20056537265219
20
-12.704255640538539
42
0.036329534497942975
10
261.37854252888781
20
-12.669140363551383
10
306.5679960211101
20
-0.28766797016579471
42
-0.066741538106757634
10
306.8972392445699
20
-0.24323584661723657
10
413.29644024836313
20
-0.15210977310362653
42
-0.41446446494311778
10
414.5475108160839
20
-1.4021094455072036
10
414.54749945043091
20
-109.97750013084982
42
-0.41421353171308789
10
413.29749945043091
20
-111.22750000000003
0
CIRCLE
5
164
100
AcDbEntity
8
0
100
AcDbCircle
10
262.50682902794546
20
-4.3118536268344165
30
0
40
1.6000000000000014
210
0
220
0
230
1
0
CIRCLE
5
165
100
AcDbEntity
8
0
100
AcDbCircle
10
405.41274330167869
20
7.892600854180305
30
0
40
1.6000000000000003
210
0
220
0
230
1
0
LWPOLYLINE
5
166
100
AcDbEntity
8
0
100
AcDbPolyline
90
26
70
1
43
0.0
10
232.86390412347089
20
-10.470320623041259
42
0.19891237730101796
10
231.8646919527234
20
-11.035647646950828
10
226.21101305791828
20
-6.6185096119483156
42
-0.19891237730096004
10
227.0436898668745
20
-6.1474037586903307
10
259.56579798965726
20
-2.154192172247372
42
0.036329534497967365
10
259.74377514589287
20
-2.1190768952602212
10
304.93322863811517
20
10.262395498125365
42
-0.066741538106744588
10
305.26247186157497
20
10.306827621673929
10
411.66167286536802
20
10.397953695187601
42
-0.1990236759612044
10
412.54624837192944
20
10.032216005713988
10
407.48747709329456
20
4.9249507753233939
42
0.19902367596119225
10
406.41689206657674
20
5.3934599453339338
10
338.23293667342773
20
5.3350634682717519
42
0.030554045888627295
10
338.05012497041116
20
5.3238826883250034
10
317.60168527298435
20
2.8131291554908113
42
-0.41421358473551162
10
317.04447750311908
20
3.2484675748574787
10
316.93997444943068
20
4.0995768981794019
42
0.41421358473544023
10
315.26835113983481
20
5.4055921562793863
10
298.34543924574342
20
3.3277191521460567
42
0.41421354001075927
10
297.03942408735736
20
1.6560959701783062
10
297.1439271369677
20
0.80498668007006735
42
-0.41421356237309237
10
296.70858871294865
20
0.2477789480951742
10
279.78567734057231
20
-1.8300926804411997
42
0.41421356237307244
10
278.47966206851549
20
-3.5017158763661094
10
278.58416512211568
20
-4.3528251989689783
42
-0.41421356237312268
10
278.14882669809668
20
-4.9100329309439239
0
CIRCLE
5
167
100
AcDbEntity
8
0
100
AcDbCircle
10
405.4025987272351
20
19.378689934124033
30
0
40
1.6000000000000003
210
0
220
0
230
1
0
CIRCLE
5
168
100
AcDbEntity
8
0
100
AcDbCircle
10
262.49668445350204
20
7.1742354531093744
30
0
40
1.6000000000000014
210
0
220
0
230
1
0
LWPOLYLINE
5
169
100
AcDbEntity
8
0
100
AcDbPolyline
90
25
70
1
43
0.0
10
338.22279209898426
20
16.821152548215501
42
0.030554045888656473
10
338.03998039596769
20
16.809971768268753
10
317.59154069854094
20
14.299218235434619
42
-0.41421358473555225
10
317.03433292867567
20
14.734556654801242
10
316.92982987498726
20
15.585665978123144
42
0.41421358473542602
10
315.25820656539139
20
16.89168123622315
10
298.33529467130001
20
14.813808232089825
42
0.41421354001075916
10
297.02927951291394
20
13.14218505012208
10
297.13378256252423
20
12.291075760013834
42
-0.41421356237304729
10
296.69844413850524
20
11.733868028038952
10
279.77553276612883
20
9.6559963995025768
42
0.41421356237306373
10
278.46951749407208
20
7.9843732035776815
10
278.57402054767226
20
7.1332638809748019
42
-0.41421356237312024
10
278.13868212365327
20
6.5760561489998759
10
255.3572615534377
20
3.7788502534544266
10
254.90025164860259
20
7.500898338431627
42
-0.41421356237309342
10
255.98859770865002
20
8.8939176683690668
10
259.55565341521384
20
9.3318969076964109
42
0.036329534498017284
10
259.73363057144951
20
9.3670121846835599
10
304.92308406367169
20
21.748484578069124
42
-0.06674153810676399
10
305.25232728713149
20
21.792916701617671
10
411.65152829092449
20
21.884042775131274
42
-0.19902367596119297
10
412.53610379748579
20
21.518305085657712
10
407.47733251885103
20
16.411039855267106
42
0.19902367596123849
10
406.40674749213309
20
16.879549025277676
0
CIRCLE
5
170
100
AcDbEntity
8
0
100
AcDbCircle
10
420.07876948924195
20
-103.20597905229587
30
0
40
1.5999999999999992
210
0
220
0
230
1
0
CIRCLE
5
171
100
AcDbEntity
8
0
100
AcDbCircle
10
420.07877954628475
20
-7.1316612278589986
30
0
40
1.6000000000000014
210
0
220
0
230
1
0
LWPOLYLINE
5
172
100
AcDbEntity
8
0
100
AcDbPolyline
90
8
70
1
43
0.0
10
417.57877964464012
20
-6.1920779210855237
42
0.19902367596123871
10
417.15351386085166
20
-5.1035917452636941
10
422.21228513948654
20
0.003673485126900744
42
-0.19902367596122841
10
422.57878020064601
20
-0.88058849780313864
10
422.57876883499301
20
-109.45597918314564
42
-0.19891235377699157
10
422.21265226521382
20
-110.33986257504142
10
417.1394295563419
20
-105.26663922407567
42
0.19891236737968768
10
417.57876938456207
20
-104.20597905229587
0
CIRCLE
5
173
100
AcDbEntity
8
0
100
AcDbCircle
10
428.07877954628481
20
-7.1316612278589986
30
0
40
1.6000000000000014
210
0
220
0
230
1
0
CIRCLE
5
174
100
AcDbEntity
8
0
100
AcDbCircle
10
428.07876948924189
20
-103.20597905229587
30
0
40
1.5999999999999992
210
0
220
0
230
1
0
LWPOLYLINE
5
175
100
AcDbEntity
8
0
100
AcDbPolyline
90
8
70
1
43
0.0
10
425.57877964464018
20
-6.1920779210855237
42
0.1990236759612477
10
425.15351386085172
20
-5.1035917452636976
10
430.21228513948648
20
0.003673485126900744
42
-0.19902367596122841
10
430.57878020064601
20
-0.88058849780313864
10
430.57876883499296
20
-109.45597918314564
42
-0.19891235377699157
10
430.21265226521382
20
-110.33986257504142
10
425.13942955634184
20
-105.26663922407567
42
0.19891236737968768
10
425.57876938456207
20
-104.20597905229587
0
CIRCLE
5
176
100
AcDbEntity
8
0
100
AcDbCircle
10
250.8569849966328
20
-132.12700649530638
30
0
40
1.5999999999999837
210
0
220
0
230
1
0
CIRCLE
5
177
100
AcDbEntity
8
0
100
AcDbCircle
10
409.79826256221116
20
-117.25269595676515
30
0
40
1.6000000000000041
210
0
220
0
230
1
0
LWPOLYLINE
5
178
100
AcDbEntity
8
0
100
AcDbPolyline
90
12
70
1
43
0.0
10
410.79826298487023
20
-114.7150596747916
42
0.19891236737971091
10
411.85892315665006
20
-114.27571984657143
10
416.93214586552193
20
-119.34894319753715
42
-0.19891235377693628
10
416.04826243530113
20
-119.7150596747916
10
372.53444143596357
20
-119.7150596747916
42
0.030552754361629825
10
372.3821048010185
20
-119.72437697979925
10
244.95824488628654
20
-135.3700550483855
42
-0.19891235745835253
10
244.0363314096071
20
-135.11438579729429
10
248.45346909561101
20
-129.46070734918678
42
0.19891235745831876
10
249.55976526762626
20
-129.76751045049636
10
372.12182181918621
20
-114.71878659679467
42
-0.030552754361774081
10
372.18275647316409
20
-114.71505967479163
0
CIRCLE
5
179
100
AcDbEntity
8
0
100
AcDbCircle
10
409.79826256221116
20
-127.25269595676515
30
0
40
1.6000000000000041
210
0
220
0
230
1
0
CIRCLE
5
180
100
AcDbEntity
8
0
100
AcDbCircle
10
250.8569849966328
20
-142.12700649530638
30
0
40
1.5999999999999837
210
0
220
0
230
1
0
LWPOLYLINE
5
181
100
AcDbEntity
8
0
100
AcDbPolyline
90
12
70
1
43
0.0
10
410.79826298487023
20
-124.7150596747916
42
0.19891236737971091
10
411.85892315665006
20
-124.27571984657143
10
416.93214586552193
20
-129.34894319753715
42
-0.19891235377693628
10
416.04826243530113
20
-129.7150596747916
10
372.53444143596357
20
-129.7150596747916
42
0.030552754361629825
10
372.3821048010185
20
-129.72437697979925
10
244.95824488628654
20
-145.3700550483855
42
-0.19891235745835253
10
244.0363314096071
20
-145.11438579729429
10
248.45346909561101
20
-139.46070734918678
42
0.19891235745831876
10
249.55976526762626
20
-139.76751045049636
10
372.12182181918621
20
-124.71878659679467
42
-0.030552754361774081
10
372.18275647316409
20
-124.71505967479163
0
CIRCLE
5
182
100
AcDbEntity
8
0
100
AcDbCircle
10
159.14301500336717
20
-132.12700649530638
30
0
40
1.5999999999999837
210
0
220
-0
230
1
0
CIRCLE
5
183
100
AcDbEntity
8
0
100
AcDbCircle
10
0.20173743778885367
20
-117.25269595676515
30
0
40
1.6000000000000041
210
0
220
-0
230
1
0
LWPOLYLINE
5
184
100
AcDbEntity
8
0
100
AcDbPolyline
90
12
70
1
43
0.0
10
-1.858923156650043
20
-114.27571984657142
42
0.19891236737966991
10
-0.79826298487022385
20
-114.71505967479162
10
37.81724352683591
20
-114.71505967479162
42
-0.030552754361683403
10
37.878178180813848
20
-114.71878659679464
10
160.44023473237374
20
-129.76751045049636
42
0.19891235745831651
10
161.54653090438899
20
-129.46070734918678
10
165.9636685903929
20
-135.11438579729432
42
-0.19891235745834987
10
165.04175511371346
20
-135.3700550483855
10
37.6178951989815
20
-119.72437697979925
42
0.030552754361708699
10
37.465558564036456
20
-119.71505967479162
10
-6.0482624353011607
20
-119.7150596747916
42
-0.19891235377695521
10
-6.9321458655219459
20
-119.34894319753717
0
CIRCLE
5
185
100
AcDbEntity
8
0
100
AcDbCircle
10
0.20173743778885367
20
-127.25269595676515
30
0
40
1.6000000000000041
210
0
220
-0
230
1
0
CIRCLE
5
186
100
AcDbEntity
8
0
100
AcDbCircle
10
159.14301500336717
20
-142.12700649530638
30
0
40
1.5999999999999837
210
0
220
-0
230
1
0
LWPOLYLINE
5
187
100
AcDbEntity
8
0
100
AcDbPolyline
90
12
70
1
43
0.0
10
-1.858923156650043
20
-124.27571984657142
42
0.19891236737966991
10
-0.79826298487022385
20
-124.71505967479162
10
37.81724352683591
20
-124.71505967479162
42
-0.030552754361683403
10
37.878178180813848
20
-124.71878659679464
10
160.44023473237374
20
-139.76751045049636
42
0.19891235745831651
10
161.54653090438899
20
-139.46070734918678
10
165.9636685903929
20
-145.11438579729432
42
-0.19891235745834987
10
165.04175511371346
20
-145.3700550483855
10
37.6178951989815
20
-129.72437697979925
42
0.030552754361708699
10
37.465558564036456
20
-129.71505967479163
10
-6.0482624353011607
20
-129.7150596747916
42
-0.19891235377695521
10
-6.9321458655219459
20
-129.34894319753715
0
ENDSEC
0
SECTION
2
OBJECTS
0
DICTIONARY
5
C
100
AcDbDictionary
3
ACAD_GROUP
350
D
3
ACAD_MLINESTYLE
350
17
0
DICTIONARY
5
D
100
AcDbDictionary
0
DICTIONARY
5
1A
330
C
100
AcDbDictionary
0
DICTIONARY
5
17
100
AcDbDictionary
0
ENDSEC
0
EOF
