0
SECTION
2
HEADER
9
$INSUNITS
70
4
9
$ACADVER
1
AC1014
9
$HANDSEED
5
FFFF
0
ENDSEC
0
SECTION
2
TABLES
0
TABLE
2
VPORT
5
8
100
AcDbSymbolTable
0
ENDTAB
0
TABLE
2
LTYPE
5
5
100
AcDbSymbolTable
0
LTYPE
5
14
100
AcDbSymbolTableRecord
100
AcDbLinetypeTableRecord
2
BYBLOCK
70
0
0
LTYPE
5
15
100
AcDbSymbolTableRecord
100
AcDbLinetypeTableRecord
2
BYLAYER
70
0
0
ENDTAB
0
TABLE
2
LAYER
5
2
100
AcDbSymbolTable
70
2
0
LAYER
5
50
100
AcDbSymbolTableRecord
100
AcDbLayerTableRecord
2
0
70
0
6
CONTINUOUS
0
ENDTAB
0
TABLE
2
STYLE
5
3
100
AcDbSymbolTable
70
1
0
STYLE
5
11
100
AcDbSymbolTableRecord
100
AcDbTextStyleTableRecord
2
STANDARD
70
0
0
ENDTAB
0
TABLE
2
VIEW
5
6
100
AcDbSymbolTable
70
0
0
ENDTAB
0
TABLE
2
UCS
5
7
100
AcDbSymbolTable
70
0
0
ENDTAB
0
TABLE
2
APPID
5
9
100
AcDbSymbolTable
70
2
0
APPID
5
12
100
AcDbSymbolTableRecord
100
AcDbRegAppTableRecord
2
ACAD
70
0
0
ENDTAB
0
TABLE
2
DIMSTYLE
5
A
100
AcDbSymbolTable
70
1
0
ENDTAB
0
TABLE
2
BLOCK_RECORD
5
1
100
AcDbSymbolTable
70
1
0
BLOCK_RECORD
5
1F
100
AcDbSymbolTableRecord
100
AcDbBlockTableRecord
2
*MODEL_SPACE
0
BLOCK_RECORD
5
1B
100
AcDbSymbolTableRecord
100
AcDbBlockTableRecord
2
*PAPER_SPACE
0
ENDTAB
0
ENDSEC
0
SECTION
2
BLOCKS
0
BLOCK
5
20
100
AcDbEntity
100
AcDbBlockBegin
2
*MODEL_SPACE
0
ENDBLK
5
21
100
AcDbEntity
100
AcDbBlockEnd
0
BLOCK
5
1C
100
AcDbEntity
100
AcDbBlockBegin
2
*PAPER_SPACE
0
ENDBLK
5
1D
100
AcDbEntity
100
AcDbBlockEnd
0
ENDSEC
0
SECTION
2
ENTITIES
0
CIRCLE
5
100
100
AcDbEntity
8
0
100
AcDbCircle
10
2.9524893153262841
20
2.3425373858891567
30
0
40
1.6000000000000003
210
0
220
0
230
1
0
CIRCLE
5
101
100
AcDbEntity
8
0
100
AcDbCircle
10
145.85840358905961
20
-9.8619170951255786
30
0
40
1.6000000000000014
210
0
220
0
230
1
0
CIRCLE
5
102
100
AcDbEntity
8
0
100
AcDbCircle
10
92.612003397967882
20
2.2657480927404023
30
0
40
1.6000000000000014
210
0
220
0
230
1
0
LWPOLYLINE
5
103
100
AcDbEntity
8
0
100
AcDbPolyline
90
26
70
1
43
0.0
10
148.62145747111219
20
-7.6691403635513842
42
0.036329534497957186
10
148.79943462734781
20
-7.7042556405385376
10
181.32154275013056
20
-11.697467226981484
42
-0.19891237730097538
10
182.15421955908678
20
-12.168573080239476
10
176.50054066428166
20
-16.585711115241992
42
0.19891237730100228
10
175.5013284935342
20
-16.020384091332414
10
130.21640591890832
20
-10.460096399235075
42
-0.41421356237320123
10
129.78106749488938
20
-9.9028886672601413
10
129.88557054848954
20
-9.0517793446572661
42
0.41421356237307216
10
128.57955527643273
20
-7.3801561487323664
10
111.65664390405632
20
-5.3022845201959807
42
-0.41421356237308193
10
111.22130548003732
20
-4.7450767882210965
10
111.32580852964766
20
-3.893967498112846
42
0.41421354001076421
10
110.0197933712616
20
-2.2223443161450929
10
93.096881477170186
20
-0.1444713120117691
42
0.41421358473543202
10
91.425258167574327
20
-1.4504865701117697
10
91.320755113885923
20
-2.3015958934336749
42
-0.41421358473549752
10
90.763547344020651
20
-2.7369343128003121
10
70.315107646593844
20
-0.22618077996615665
42
0.030554045888640746
10
70.132295943577276
20
-0.21500000001940966
10
1.9483405504282318
20
-0.15660352295721242
42
0.19902367596122617
10
0.87775552371038013
20
-0.62511269296776251
10
-4.1810157549244282
20
4.4821525374228433
42
-0.19902367596121698
10
-3.2964402483631083
20
4.8478902268963946
10
103.10276075543008
20
4.7567641533827629
42
-0.066741538106760867
10
103.43200397888987
20
4.7123320298342088
0
CIRCLE
5
104
100
AcDbEntity
8
0
100
AcDbCircle
10
-7.0475001046798358
20
-103.72750000000003
30
0
40
1.5999999999999988
210
0
220
0
230
1
0
CIRCLE
5
105
100
AcDbEntity
8
0
100
AcDbCircle
10
-7.0475101617226894
20
-7.653182175563062
30
0
40
1.600000000000001
210
0
220
0
230
1
0
LWPOLYLINE
5
106
100
AcDbEntity
8
0
100
AcDbPolyline
90
8
70
1
43
0.0
10
-4.5475000000000101
20
-104.72750000000005
10
-4.5475102600780923
20
-6.7135988687895862
42
-0.19902367596122575
10
-4.1222444762896213
20
-5.6251126929677628
10
-9.1810157549244291
20
-0.51784746257716552
42
0.19902367596121584
10
-9.5475108160839088
20
-1.4021094455072036
10
-9.5474994504309247
20
-109.97750013084982
42
0.19891235377695549
10
-9.1813828806517357
20
-110.8613835227456
10
-4.1081601717798168
20
-105.78816017177985
42
-0.1989123673796542
0
CIRCLE
5
107
100
AcDbEntity
8
0
100
AcDbCircle
10
6.2393094372560096
20
-10.740150876318509
30
0
40
1.6000000000000003
210
0
220
0
230
1
0
CIRCLE
5
108
100
AcDbEntity
8
0
100
AcDbCircle
10
95.898823519897604
20
-10.816940169467264
30
0
40
1.6000000000000014
210
0
220
0
230
1
0
CIRCLE
5
109
100
AcDbEntity
8
0
100
AcDbCircle
10
149.14522371098934
20
-22.944605357333245
30
0
40
1.6000000000000014
210
0
220
0
230
1
0
LWPOLYLINE
5
110
100
AcDbEntity
8
0
100
AcDbPolyline
90
25
70
1
43
0.0
10
156.74165651588879
20
-22.617942472010991
42
0.41421356237308771
10
155.65331045584139
20
-21.22492314207355
10
152.08625474927754
20
-20.786943902746202
42
-0.036329534497951434
10
151.90827759304193
20
-20.751828625759046
10
106.7188241008196
20
-8.3703562323734548
42
0.066741538106760701
10
106.3895808773598
20
-8.3259241088249034
10
-0.0096201264333828362
20
-8.2347980353112682
42
0.19902367596121689
10
-0.89419563299470262
20
-8.6005357247848231
10
4.1645756456401042
20
-13.707800955175426
42
-0.19902367596122483
10
5.2351606723579582
20
-13.239291785164877
10
73.419116065507012
20
-13.297688262227075
42
-0.030554045888633197
10
73.601927768523566
20
-13.308869042173821
10
94.050367465950373
20
-15.819622575007974
42
0.41421358473549724
10
94.607575235815645
20
-15.384284155641341
10
94.712078289504049
20
-14.533174832319435
42
-0.41421358473542713
10
96.383701599099908
20
-13.227159574219431
10
113.30661349319132
20
-15.305032578352762
42
-0.41421354001076399
10
114.61262865157738
20
-16.976655760320511
10
114.50812560196704
20
-17.827765050428759
42
0.41421356237308193
10
114.94346402598606
20
-18.384972782403647
10
131.86637539836249
20
-20.462844410940026
42
-0.41421356237307227
10
133.17239067041928
20
-22.134467606864927
10
133.06788761681912
20
-22.985576929467804
42
0.41421356237319995
10
133.50322604083806
20
-23.542784661442738
10
156.28464661105372
20
-26.339990556988198
0
CIRCLE
5
111
100
AcDbEntity
8
0
100
AcDbCircle
10
6.2393094372560096
20
-20.740150876318509
30
0
40
1.6000000000000003
210
0
220
0
230
1
0
CIRCLE
5
112
100
AcDbEntity
8
0
100
AcDbCircle
10
95.898823519897604
20
-20.816940169467266
30
0
40
1.6000000000000014
210
0
220
0
230
1
0
CIRCLE
5
113
100
AcDbEntity
8
0
100
AcDbCircle
10
149.14522371098934
20
-32.944605357333245
30
0
40
1.6000000000000014
210
0
220
0
230
1
0
LWPOLYLINE
5
114
100
AcDbEntity
8
0
100
AcDbPolyline
90
25
70
1
43
0.0
10
156.74165651588879
20
-32.617942472010995
42
0.41421356237308771
10
155.65331045584139
20
-31.22492314207355
10
152.08625474927754
20
-30.786943902746202
42
-0.036329534497978336
10
151.90827759304193
20
-30.751828625759053
10
106.7188241008196
20
-18.370356232373453
42
0.066741538106760909
10
106.3895808773598
20
-18.3259241088249
10
-0.0096201264333828362
20
-18.234798035311272
42
0.19902367596121714
10
-0.89419563299470262
20
-18.60053572478482
10
4.1645756456401042
20
-23.707800955175426
42
-0.19902367596122114
10
5.2351606723579582
20
-23.239291785164873
10
73.419116065507012
20
-23.297688262227073
42
-0.030554045888632531
10
73.601927768523566
20
-23.308869042173825
10
94.050367465950373
20
-25.819622575007976
42
0.41421358473549852
10
94.607575235815645
20
-25.384284155641339
10
94.712078289504049
20
-24.533174832319435
42
-0.41421358473542419
10
96.383701599099908
20
-23.227159574219431
10
113.30661349319132
20
-25.305032578352762
42
-0.41421354001076366
10
114.61262865157738
20
-26.976655760320511
10
114.50812560196704
20
-27.827765050428759
42
0.41421356237308182
10
114.94346402598606
20
-28.384972782403644
10
131.86637539836249
20
-30.462844410940026
42
-0.41421356237307227
10
133.17239067041928
20
-32.134467606864931
10
133.06788761681912
20
-32.985576929467804
42
0.41421356237319995
10
133.50322604083806
20
-33.542784661442738
10
156.28464661105372
20
-36.339990556988198
0
CIRCLE
5
115
100
AcDbEntity
8
0
100
AcDbCircle
10
29.134331949001258
20
-31.783932969514055
30
0
40
1.6000000000000014
210
0
220
-0
230
1
0
CIRCLE
5
116
100
AcDbEntity
8
0
100
AcDbCircle
10
55.545532807472526
20
-32.706233501204025
30
0
40
1.6000000000000014
210
0
220
-0
230
1
0
LWPOLYLINE
5
117
100
AcDbEntity
8
0
100
AcDbPolyline
90
10
70
1
43
0.0
10
21.406732087534813
20
-38.170634070678155
42
0.41421356237312112
10
22.612346296605597
20
-39.463496932271191
10
26.36006190260138
20
-39.594369911054592
10
26.49625703696632
20
-35.694247553750778
42
-0.41421358473544861
10
28.047692585332836
20
-34.247510506862682
10
62.953715156199564
20
-35.466457095047268
10
63.084588421119996
20
-31.718741499043652
42
0.41421356237307833
10
61.878974310758906
20
-30.425878545402256
10
22.975388036896423
20
-29.067333793980197
42
0.41421358473538394
10
21.682525079924353
20
-30.272947999720369
0
CIRCLE
5
118
100
AcDbEntity
8
0
100
AcDbCircle
10
65.294901211543632
20
-41.100099469135607
30
0
40
1.6000000000000014
210
-0
220
0
230
1
0
CIRCLE
5
119
100
AcDbEntity
8
0
100
AcDbCircle
10
38.883700353072363
20
-40.177798937445637
30
0
40
1.6000000000000014
210
-0
220
0
230
1
0
LWPOLYLINE
5
120
100
AcDbEntity
8
0
100
AcDbPolyline
90
10
70
1
43
0.0
10
73.022501073010076
20
-34.713398367971507
42
0.41421356237311902
10
71.816886863939288
20
-33.420535506378471
10
68.069171257943509
20
-33.28966252759507
10
67.932976123578555
20
-37.18978488489892
42
-0.41421358473544001
10
66.381540575212057
20
-38.63652193178698
10
31.475518004345329
20
-37.417575343602394
10
31.344644739424893
20
-41.165290939606045
42
0.41421356237307005
10
32.550258849785969
20
-42.458153893247406
10
71.453845123648449
20
-43.816698644669465
42
0.41421358473538139
10
72.746708080620522
20
-42.611084438929375
0
CIRCLE
5
121
100
AcDbEntity
8
0
100
AcDbCircle
10
5.0747614263995899
20
-51.128862222309294
30
0
40
1.5999999999999988
210
-0
220
0
230
1
0
CIRCLE
5
122
100
AcDbEntity
8
0
100
AcDbCircle
10
101.14907925083656
20
-51.128852165266387
30
0
40
1.600000000000001
210
-0
220
0
230
1
0
LWPOLYLINE
5
123
100
AcDbEntity
8
0
100
AcDbPolyline
90
8
70
1
43
0.0
10
4.0747614263995757
20
-53.628862326989122
10
102.08866255761004
20
-53.628852066910994
42
-0.1990236759612396
10
103.17714873343185
20
-54.054117850699456
10
108.28441396382246
20
-48.995346572064655
42
0.1990236759612159
10
107.40015198089242
20
-48.628851510905164
10
-1.1752387044501944
20
-48.628862876558202
42
0.1989123537769554
10
-2.059122096345976
20
-48.994979446337396
10
3.0141012546197765
20
-54.06820215520932
42
-0.19891236737964854
0
CIRCLE
5
124
100
AcDbEntity
8
0
100
AcDbCircle
10
5.0747614263996077
20
-59.128862222309294
30
0
40
1.5999999999999988
210
-0
220
0
230
1
0
CIRCLE
5
125
100
AcDbEntity
8
0
100
AcDbCircle
10
101.14907925083656
20
-59.128852165266395
30
0
40
1.600000000000001
210
-0
220
0
230
1
0
LWPOLYLINE
5
126
100
AcDbEntity
8
0
100
AcDbPolyline
90
8
70
1
43
0.0
10
4.0747614263995935
20
-61.628862326989122
10
102.08866255761006
20
-61.628852066910994
42
-0.19902367596123557
10
103.17714873343185
20
-62.054117850699456
10
108.28441396382247
20
-56.995346572064648
42
0.19902367596121848
10
107.40015198089242
20
-56.628851510905164
10
-1.1752387044501766
20
-56.628862876558202
42
0.1989123537769554
10
-2.0591220963459582
20
-56.994979446337396
10
3.0141012546197956
20
-62.06820215520932
42
-0.19891236737964968
0
CIRCLE
5
127
100
AcDbEntity
8
0
100
AcDbCircle
10
84.226157729199571
20
-70.959844007442072
30
0
40
1.6000000000000014
210
-0
220
0
230
1
0
CIRCLE
5
128
100
AcDbEntity
8
0
100
AcDbCircle
10
57.995843251630355
20
-67.739165280047644
30
0
40
1.6000000000000014
210
-0
220
0
230
1
0
CIRCLE
5
129
100
AcDbEntity
8
0
100
AcDbCircle
10
114.15142391071979
20
-74.634205909769122
30
0
40
1.6000000000000014
210
-0
220
0
230
1
0
CIRCLE
5
130
100
AcDbEntity
8
0
100
AcDbCircle
10
153.29267917464242
20
-79.440149364996529
30
0
40
1.6000000000000014
210
-0
220
0
230
1
0
LWPOLYLINE
5
131
100
AcDbEntity
8
0
100
AcDbPolyline
90
11
70
1
43
0.0
10
52.097103199438415
20
-64.49611625333975
42
0.41421358473538061
10
50.704083774775214
20
-65.584462301756318
10
49.741011562483727
20
-73.428058349741221
42
0.41421356237312035
10
50.829357622531106
20
-74.821077679678623
10
54.551405707508337
20
-75.278087584513685
10
55.027000639126143
20
-71.404676558352733
42
-0.41421358473544528
10
56.698623948722016
20
-70.098661300252914
10
153.9805521651125
20
-82.043384152674975
42
-0.19891235745827313
10
154.97976422218886
20
-82.608711162627557
10
160.63344267029635
20
-78.191573476623574
42
0.19891235745835126
10
159.80076595606596
20
-77.720467634996467
0
CIRCLE
5
132
100
AcDbEntity
8
0
100
AcDbCircle
10
133.6570832034123
20
-84.791063064557974
30
0
40
1.6000000000000014
210
0
220
-0
230
1
0
CIRCLE
5
133
100
AcDbEntity
8
0
100
AcDbCircle
10
159.88739768098154
20
-88.011741791952431
30
0
40
1.6000000000000014
210
0
220
-0
230
1
0
CIRCLE
5
134
100
AcDbEntity
8
0
100
AcDbCircle
10
103.73181702189211
20
-81.116701162230953
30
0
40
1.6000000000000014
210
0
220
-0
230
1
0
CIRCLE
5
135
100
AcDbEntity
8
0
100
AcDbCircle
10
64.590561757969468
20
-76.31075770700356
30
0
40
1.6000000000000014
210
0
220
-0
230
1
0
LWPOLYLINE
5
136
100
AcDbEntity
8
0
100
AcDbPolyline
90
11
70
1
43
0.0
10
165.78613773317352
20
-91.254790818660325
42
0.41421358473538455
10
167.1791571578367
20
-90.166444770243729
10
168.14222937012815
20
-82.322848722258868
42
0.41421356237312035
10
167.05388331008078
20
-80.929829392321452
10
163.33183522510353
20
-80.472819487486404
10
162.85624029348577
20
-84.346230513647356
42
-0.41421358473545022
10
161.18461698388987
20
-85.652245771747175
10
63.902688767499392
20
-73.707522919325115
42
-0.19891235745828398
10
62.903476710423043
20
-73.142195909372532
10
57.249798262315522
20
-77.559333595376501
42
0.19891235745835717
10
58.082474976545946
20
-78.030439437003608
0
CIRCLE
5
137
100
AcDbEntity
8
0
100
AcDbCircle
10
4.8266408847126447
20
-83.362050154123722
30
0
40
1.6000000000000041
210
0
220
0
230
1
0
CIRCLE
5
138
100
AcDbEntity
8
0
100
AcDbCircle
10
163.76791845029123
20
-98.236360692664846
30
0
40
1.6000000000000014
210
0
220
0
230
1
0
CIRCLE
5
139
100
AcDbEntity
8
0
100
AcDbCircle
10
84.860499048773846
20
-88.54775071016094
30
0
40
1.6000000000000014
210
0
220
0
230
1
0
LWPOLYLINE
5
140
100
AcDbEntity
8
0
100
AcDbPolyline
90
12
70
1
43
0.0
10
165.06513817929772
20
-95.876864647854802
10
42.503081627737686
20
-80.828140794153171
42
0.030552754361684305
10
42.442146973759748
20
-80.824413872150146
10
3.8266404620535659
20
-80.824413872150146
42
-0.19891236737966297
10
2.7659802902737529
20
-80.385074043929961
10
-2.307242418598169
20
-85.458297394895709
42
0.19891235377695596
10
-1.4233589883773801
20
-85.824413872150146
10
42.090462010960309
20
-85.824413872150146
42
-0.030552754361706406
10
42.242798645905339
20
-85.833731177157773
10
169.66665856063747
20
-101.47940924574397
42
0.19891235745835953
10
170.58857203731696
20
-101.22373999465276
10
166.171434351313
20
-95.57006154654529
42
-0.19891235745831248
0
CIRCLE
5
141
100
AcDbEntity
8
0
100
AcDbCircle
10
4.8266408847126447
20
-93.362050154123722
30
0
40
1.6000000000000041
210
0
220
0
230
1
0
CIRCLE
5
142
100
AcDbEntity
8
0
100
AcDbCircle
10
163.76791845029123
20
-108.23636069266485
30
0
40
1.6000000000000014
210
0
220
0
230
1
0
CIRCLE
5
143
100
AcDbEntity
8
0
100
AcDbCircle
10
84.860499048773846
20
-98.54775071016094
30
0
40
1.6000000000000014
210
0
220
0
230
1
0
LWPOLYLINE
5
144
100
AcDbEntity
8
0
100
AcDbPolyline
90
12
70
1
43
0.0
10
165.06513817929772
20
-105.8768646478548
10
42.503081627737686
20
-90.828140794153171
42
0.030552754361684305
10
42.442146973759748
20
-90.824413872150146
10
3.8266404620535659
20
-90.824413872150132
42
-0.19891236737966192
10
2.7659802902737529
20
-90.385074043929961
10
-2.307242418598169
20
-95.458297394895709
42
0.19891235377695596
10
-1.4233589883773801
20
-95.824413872150146
10
42.090462010960309
20
-95.824413872150146
42
-0.030552754361706406
10
42.242798645905339
20
-95.833731177157773
10
169.66665856063747
20
-111.47940924574397
42
0.19891235745835953
10
170.58857203731696
20
-111.22373999465276
10
166.171434351313
20
-105.57006154654529
42
-0.19891235745831248
0
CIRCLE
5
145
100
AcDbEntity
8
0
100
AcDbCircle
10
4.0049358542302178
20
-103.7651362819736
30
0
40
1.6000000000000041
210
0
220
0
230
1
0
CIRCLE
5
146
100
AcDbEntity
8
0
100
AcDbCircle
10
162.94621341980877
20
-118.63944682051473
30
0
40
1.6000000000000014
210
0
220
0
230
1
0
CIRCLE
5
147
100
AcDbEntity
8
0
100
AcDbCircle
10
84.038794018291426
20
-108.95083683801083
30
0
40
1.6000000000000014
210
0
220
0
230
1
0
LWPOLYLINE
5
148
100
AcDbEntity
8
0
100
AcDbPolyline
90
12
70
1
43
0.0
10
164.24343314881531
20
-116.27995077570469
10
41.681376597255252
20
-101.23122692200306
42
0.030552754361684305
10
41.620441943277328
20
-101.22750000000003
10
3.0049354315711385
20
-101.22750000000003
42
-0.198912367379664
10
1.9442752597913255
20
-100.78816017177985
10
-3.128947449080596
20
-105.8613835227456
42
0.19891235377695596
10
-2.2450640188598072
20
-106.22750000000003
10
41.268756980477889
20
-106.22750000000003
42
-0.030552754361707294
10
41.421093615422905
20
-106.23681730500765
10
168.8449535301551
20
-121.88249537359384
42
0.19891235745834487
10
169.7668670068345
20
-121.62682612250265
10
165.34972932083059
20
-115.97314767439514
42
-0.19891235745831237
0
CIRCLE
5
149
100
AcDbEntity
8
0
100
AcDbCircle
10
122.80415481751064
20
-53.793553934109788
30
0
40
1.6000000000000014
210
-0
220
0
230
1
0
CIRCLE
5
150
100
AcDbEntity
8
0
100
AcDbCircle
10
160.51622314108101
20
-65.323291957532348
30
0
40
1.6000000000000014
210
-0
220
0
230
1
0
LWPOLYLINE
5
151
100
AcDbEntity
8
0
100
AcDbPolyline
90
7
70
1
43
0.0
10
117.55817947737415
20
-49.575468661667792
42
0.41421357427462419
10
115.9973338529434
20
-50.405384960867764
10
114.90093997508356
20
-53.991527747155601
10
160.74159881826409
20
-68.006425650610581
42
-0.19891235745829022
10
161.62746259391201
20
-68.736675425813232
10
167.96227687232485
20
-65.368394946142772
42
0.19891235745835184
10
167.22405705928477
20
-64.759853466807286
0
CIRCLE
5
152
100
AcDbEntity
8
0
100
AcDbCircle
10
127.22401360193868
20
-45.069420857122786
30
0
40
1.6000000000000014
210
-0
220
0
230
1
0
CIRCLE
5
153
100
AcDbEntity
8
0
100
AcDbCircle
10
164.93608192550903
20
-56.599158880545311
30
0
40
1.6000000000000014
210
-0
220
0
230
1
0
LWPOLYLINE
5
154
100
AcDbEntity
8
0
100
AcDbPolyline
90
7
70
1
43
0.0
10
121.97803826180217
20
-40.85133558468079
42
0.41421357427462419
10
120.41719263737139
20
-41.681251883880762
10
119.32079875951159
20
-45.267394670168564
10
165.16145760269211
20
-59.282292573623579
42
-0.19891235745829022
10
166.04732137834003
20
-60.01254234882623
10
172.38213565675289
20
-56.644261869155805
42
0.19891235745836494
10
171.64391584371282
20
-56.035720389820256
0
CIRCLE
5
155
100
AcDbEntity
8
0
100
AcDbCircle
10
186.38544335414184
20
-24.43294742029714
30
0
40
1.6000000000000014
210
0
220
0
230
1
0
CIRCLE
5
156
100
AcDbEntity
8
0
100
AcDbCircle
10
183.16476462674743
20
-50.66326189786637
30
0
40
1.6000000000000014
210
0
220
0
230
1
0
CIRCLE
5
157
100
AcDbEntity
8
0
100
AcDbCircle
10
174.68445926919301
20
-119.72978334330919
30
0
40
1.6000000000000014
210
0
220
0
230
1
0
CIRCLE
5
158
100
AcDbEntity
8
0
100
AcDbCircle
10
179.49040272442039
20
-80.588528079386563
30
0
40
1.6000000000000014
210
0
220
0
230
1
0
LWPOLYLINE
5
159
100
AcDbEntity
8
0
100
AcDbPolyline
90
8
70
1
43
0.0
10
189.62849238084974
20
-18.5342073681052
42
0.19891237730096861
10
189.37282314138935
20
-17.612293796699994
10
183.71914424658422
20
-22.029431831702514
42
-0.19891237730102362
10
184.02594733393656
20
-23.135728117388808
10
172.08122448151457
20
-120.41765633377928
42
-0.19891235745830788
10
171.51589747156197
20
-121.41686839085565
10
175.93303515756594
20
-127.07054683896315
42
0.19891235745835306
10
176.40414099919303
20
-126.23787012473274
0
ENDSEC
0
SECTION
2
OBJECTS
0
DICTIONARY
5
C
100
AcDbDictionary
3
ACAD_GROUP
350
D
3
ACAD_MLINESTYLE
350
17
0
DICTIONARY
5
D
100
AcDbDictionary
0
DICTIONARY
5
1A
330
C
100
AcDbDictionary
0
DICTIONARY
5
17
100
AcDbDictionary
0
ENDSEC
0
EOF
