0
SECTION
2
HEADER
9
$INSUNITS
70
4
9
$ACADVER
1
AC1014
9
$HANDSEED
5
FFFF
0
ENDSEC
0
SECTION
2
TABLES
0
TABLE
2
VPORT
5
8
100
AcDbSymbolTable
0
ENDTAB
0
TABLE
2
LTYPE
5
5
100
AcDbSymbolTable
0
LTYPE
5
14
100
AcDbSymbolTableRecord
100
AcDbLinetypeTableRecord
2
BYBLOCK
70
0
0
LTYPE
5
15
100
AcDbSymbolTableRecord
100
AcDbLinetypeTableRecord
2
BYLAYER
70
0
0
ENDTAB
0
TABLE
2
LAYER
5
2
100
AcDbSymbolTable
70
2
0
LAYER
5
50
100
AcDbSymbolTableRecord
100
AcDbLayerTableRecord
2
0
70
0
6
CONTINUOUS
0
ENDTAB
0
TABLE
2
STYLE
5
3
100
AcDbSymbolTable
70
1
0
STYLE
5
11
100
AcDbSymbolTableRecord
100
AcDbTextStyleTableRecord
2
STANDARD
70
0
0
ENDTAB
0
TABLE
2
VIEW
5
6
100
AcDbSymbolTable
70
0
0
ENDTAB
0
TABLE
2
UCS
5
7
100
AcDbSymbolTable
70
0
0
ENDTAB
0
TABLE
2
APPID
5
9
100
AcDbSymbolTable
70
2
0
APPID
5
12
100
AcDbSymbolTableRecord
100
AcDbRegAppTableRecord
2
ACAD
70
0
0
ENDTAB
0
TABLE
2
DIMSTYLE
5
A
100
AcDbSymbolTable
70
1
0
ENDTAB
0
TABLE
2
BLOCK_RECORD
5
1
100
AcDbSymbolTable
70
1
0
BLOCK_RECORD
5
1F
100
AcDbSymbolTableRecord
100
AcDbBlockTableRecord
2
*MODEL_SPACE
0
BLOCK_RECORD
5
1B
100
AcDbSymbolTableRecord
100
AcDbBlockTableRecord
2
*PAPER_SPACE
0
ENDTAB
0
ENDSEC
0
SECTION
2
BLOCKS
0
BLOCK
5
20
100
AcDbEntity
100
AcDbBlockBegin
2
*MODEL_SPACE
0
ENDBLK
5
21
100
AcDbEntity
100
AcDbBlockEnd
0
BLOCK
5
1C
100
AcDbEntity
100
AcDbBlockBegin
2
*PAPER_SPACE
0
ENDBLK
5
1D
100
AcDbEntity
100
AcDbBlockEnd
0
ENDSEC
0
SECTION
2
ENTITIES
0
CIRCLE
5
100
100
AcDbEntity
8
0
100
AcDbCircle
10
145.85840358905961
20
-14.861917095125579
30
0
40
1.0999999999999943
210
0
220
0
230
1
0
CIRCLE
5
101
100
AcDbEntity
8
0
100
AcDbCircle
10
-2.0475001046798358
20
-103.72750000000003
30
0
40
1.100000000000003
210
0
220
0
230
1
0
CIRCLE
5
102
100
AcDbEntity
8
0
100
AcDbCircle
10
2.9525004226590807
20
-108.7651362819736
30
0
40
1.0999999999999943
210
0
220
0
230
1
0
CIRCLE
5
103
100
AcDbEntity
8
0
100
AcDbCircle
10
167.46585568689045
20
-119.28606262684868
30
0
40
1.0999999999999943
210
0
220
0
230
1
0
LWPOLYLINE
5
104
100
AcDbEntity
8
0
100
AcDbPolyline
90
8
70
1
43
0.0
10
43.789999999999971
20
-25.240000000000002
42
0.41421356237311585
10
44.290000000000006
20
-24.739999999999984
10
44.290000000000013
20
-5.740000000000018
42
0.41421356237310675
10
43.789999999999978
20
-5.240000000000002
10
24.790000000000028
20
-5.2400000000000002
42
0.41421356237310347
10
24.290000000000003
20
-5.740000000000018
10
24.290000000000006
20
-24.740000000000002
42
0.41421356237310802
10
24.79000000000001
20
-25.240000000000002
0
CIRCLE
5
105
100
AcDbEntity
8
0
100
AcDbCircle
10
2.9524893153262841
20
-2.6574626141108433
30
0
40
1.0999999999999999
210
0
220
0
230
1
0
CIRCLE
5
106
100
AcDbEntity
8
0
100
AcDbCircle
10
154.51475438280187
20
-82.911592113197315
30
0
40
12.262500000000003
210
0
220
0
230
1
0
CIRCLE
5
107
100
AcDbEntity
8
0
100
AcDbCircle
10
179.16683977183931
20
-23.989226703836621
30
0
40
1.0999999999999943
210
0
220
0
230
1
0
CIRCLE
5
108
100
AcDbEntity
8
0
100
AcDbCircle
10
-2.0475101617226894
20
-7.653182175563062
30
0
40
1.1000000000000001
210
0
220
0
230
1
0
LWPOLYLINE
5
109
100
AcDbEntity
8
0
100
AcDbPolyline
90
69
70
1
43
0.0
10
82.176909980297665
20
-91.157288503436163
10
92.716509308595064
20
-92.451389579256784
10
115.2659175955707
20
-95.220108456197579
10
118.38623456388007
20
-95.603235091905987
42
0.41421356237309631
10
118.94344229585501
20
-95.167896667887078
10
119.05403864556517
20
-94.267161416223928
42
0.41421354001080002
10
118.61870025943652
20
-93.709953688901294
10
100.70324294419592
20
-91.510211390116552
42
-0.41421354001075744
10
100.26790455806724
20
-90.953003662793947
10
100.49427675167394
20
-89.109349552037074
42
0.41421354001077804
10
100.05893836554527
20
-88.55214182471444
10
83.086399720159037
20
-86.468175419667404
42
0.41421358473541237
10
82.52919195029375
20
-86.903513839033991
10
82.302819594196677
20
-88.747169273169689
42
-0.41421358473541114
10
81.745611824331377
20
-89.182507692536319
10
65.242884850409993
20
-87.156226926655421
42
0.030552773466541897
10
65.181950158541682
20
-87.152500000000046
10
40.025000000000013
20
-87.152500000000032
42
0.4142135623730846
10
39.524999999999991
20
-87.652500000000074
10
39.524999999999977
20
-105.70250000000001
42
-0.41421356237307683
10
39.02500000000002
20
-106.2025
10
10.505000000000013
20
-106.20250000000001
42
-0.41421356237309764
10
10.005000000000006
20
-105.70250000000001
10
10.005000000000006
20
-87.652500000000032
42
0.41421356237309115
10
9.5050000000000008
20
-87.152500000000032
10
0.98374999999999002
20
-87.152500000000003
42
-0.41421356237308776
10
0.48374999999999974
20
-86.652500000000003
10
0.48375000000000112
20
-67.652500872797049
42
-0.41421353171310471
10
0.98374994766008861
20
-67.152500872797049
10
11.407500052339916
20
-67.152499781640714
42
0.41421353171308195
10
11.907499999999999
20
-66.652499781640756
10
11.907499999999999
20
-48.602500000000006
42
-0.41421356237309764
10
12.407500000000002
20
-48.102500000000006
10
18.077500000000004
20
-48.102500000000006
42
0.41421356237309503
10
18.577500000000001
20
-47.602500000000006
10
18.577500000000008
20
-29.552499999999966
42
-0.4142135623730937
10
19.077500000000001
20
-29.052499999999966
10
66.650000000000006
20
-29.05250000000003
42
-0.41421356237309764
10
67.150000000000006
20
-29.552500000000034
10
67.150000000000006
20
-45.440114343701239
42
0.44876269382159317
10
67.261623833265503
20
-45.539436478697503
10
67.382670924576743
20
-45.525270137964611
42
0.34591433867277743
10
67.470301706910632
20
-45.438134933763969
10
69.410633599482892
20
-29.635395149437059
42
-0.41421359565837379
10
69.967841387855827
20
-29.200056732342897
10
87.883300343272879
20
-31.399799910715736
42
0.41421359565838051
10
88.440508131645799
20
-30.964461493621577
10
88.666880377889314
20
-29.120806954172149
42
-0.41421356237309537
10
89.224088109864269
20
-28.685468530153194
10
108.08246504582785
20
-31.000985377889307
42
-0.41421356237307411
10
108.51780346984681
20
-31.558193109864266
10
108.29143111251305
20
-33.401848554071776
42
0.41421354001078359
10
108.72676949864172
20
-33.959056281394389
10
126.64222728314591
20
-36.158798637797538
42
-0.41421356237311147
10
127.07756566462223
20
-36.716006403010454
10
126.85119358147979
20
-38.559658450407532
42
0.41421356237309764
10
127.2865319629561
20
-39.116866215620483
10
145.20199005580403
20
-41.316608609883467
42
-0.41421354001073674
10
145.63732844193271
20
-41.873816337206115
10
138.79436672627631
20
-97.605283598346162
42
0.41421355721256953
10
139.22970514155142
20
-98.162491329247558
10
166.59916434937139
20
-101.52303785747708
42
-0.41421357957495913
10
167.03450275999418
20
-102.08024562626876
10
164.71898444463986
20
-120.93862261174777
42
-0.41421355286644529
10
164.16177669553488
20
-121.37396099520187
10
74.398384190621158
20
-110.35240151631015
42
-0.41421354951742767
10
73.963045788384562
20
-109.79519378700971
10
76.278562540798603
20
-90.936817627382283
42
-0.41421356237306406
10
76.835770272773559
20
-90.501479203363303
0
LWPOLYLINE
5
110
100
AcDbEntity
8
0
100
AcDbPolyline
90
8
70
1
43
0.0
10
153.80224160167666
20
-99.121994866242019
42
0.41421356237305978
10
154.63805322296145
20
-98.468987260064793
10
154.75992256636647
20
-97.476441108423444
42
0.41421356237303997
10
154.1069149601893
20
-96.640629487138625
10
151.62554958108592
20
-96.335956128626037
42
0.41421356237312262
10
150.78973795980113
20
-96.988963734803306
10
150.66786861639613
20
-97.981509886444584
42
0.41421356237302531
10
151.32087622257325
20
-98.817321507729361
0
CIRCLE
5
111
100
AcDbEntity
8
0
100
AcDbCircle
10
175.94616104444486
20
-50.219541181405852
30
0
40
1.0999999999999943
210
0
220
0
230
1
0
CIRCLE
5
112
100
AcDbEntity
8
0
100
AcDbCircle
10
172.27179914211786
20
-80.144807362926045
30
0
40
1.0999999999999943
210
0
220
0
230
1
0
CIRCLE
5
113
100
AcDbEntity
8
0
100
AcDbCircle
10
161.89377798823767
20
-123.63944682051473
30
0
40
1.0999999999999943
210
0
220
0
230
1
0
LWPOLYLINE
5
114
100
AcDbEntity
8
0
100
AcDbPolyline
90
39
70
1
43
0.0
10
107.81313953015328
20
-29.501990890135747
42
0.414213562373137
10
108.24847795417224
20
-30.059198622110721
10
126.16393646769049
20
-32.25893967956398
42
-0.41421356237306634
10
126.59927489170946
20
-32.816147411538964
10
126.37290253015321
20
-34.659802890135722
42
0.41421356237309215
10
126.80824095417216
20
-35.217010622110713
10
145.66661789013574
20
-37.532527469846805
42
0.41421356237312212
10
146.2238256221107
20
-37.097189045827854
10
148.53934246984682
20
-18.238812109864259
42
0.41421356237307794
10
148.10400404582785
20
-17.681604377889279
10
130.18854553230955
20
-15.481863320436036
42
-0.41421356237306484
10
129.75320710829061
20
-14.924655588461061
10
129.97957946984684
20
-13.081000109864283
42
0.41421356237307538
10
129.54424104582787
20
-12.523792377889304
10
111.62878351745746
20
-10.324051441396945
42
-0.41421356237311918
10
111.1934450934385
20
-9.7668437094219698
10
111.41981744193282
20
-7.9231883372061018
42
0.41421354001076022
10
110.98447905580417
20
-7.365980609883481
10
92.126102175668734
20
-5.0504623074637243
42
0.41421358473541769
10
91.568894405803434
20
-5.4858007268303322
10
91.342522034854198
20
-7.3294562819269693
42
-0.41421358473542558
10
90.785314264988912
20
-7.7647947012935781
10
72.869856403010516
20
-5.5650523353777945
42
0.41421356237309803
10
72.312648637797579
20
-6.0003907168540982
10
70.959999999999994
20
-17.016826117658734
10
70.959999999999994
20
-5.7400000000000118
42
0.41421356237309892
10
70.459999999999994
20
-5.2400000000000082
10
51.460000000000022
20
-5.2399999999999967
42
0.41421356237309698
10
50.960000000000022
20
-5.7399999999999984
10
50.960000000000008
20
-24.739999999999988
42
0.41421356237310542
10
51.460000000000022
20
-25.240000000000006
10
68.968683565472716
20
-25.239999999999995
42
-0.030552773466759588
10
69.029618257341028
20
-25.243726926655377
10
89.290845596989527
20
-27.731493664622221
42
0.41421356237309892
10
89.848053362202478
20
-27.296155283145914
10
90.074425898071112
20
-25.452499548591128
42
-0.41421356237312379
10
90.631633663284035
20
-25.017161167114821
10
107.60417350135839
20
-27.101127718605635
42
-0.41421354001080452
10
108.03951188748704
20
-27.658335445928266
0
LWPOLYLINE
5
115
100
AcDbEntity
8
0
100
AcDbPolyline
90
24
70
1
43
0.0
10
40.368658183851792
20
-111.23681730500763
10
167.79251809858394
20
-126.88249537359383
42
0.41421354001079819
10
169.18553741689055
20
-125.7941494082722
10
182.40988879854717
20
-18.090486651644682
42
0.41421358473539216
10
181.32154275013065
20
-16.697467226981473
10
173.47794679687155
20
-15.734395026320829
42
0.41421356237310558
10
172.08492746693412
20
-16.822741086368246
10
171.41464628480691
20
-22.281744849609066
10
167.23818240519736
20
-56.296302102576036
42
-0.41421356237305829
10
166.68097463998447
20
-56.73164048405237
10
149.04342998307334
20
-54.56602158045294
42
-0.4142135623730841
10
148.6080916015971
20
-54.008813815240018
10
152.78455528329582
20
-19.994258174126522
10
153.45483648868478
20
-14.535254221434164
42
0.41421356237310547
10
152.36649042863741
20
-13.142234891496745
10
148.79943462734781
20
-12.704255640538529
42
-0.0363295344980019
10
148.62145747111219
20
-12.669140363551389
10
103.43200397888987
20
-0.28766797016579027
42
0.06674153810675118
10
103.10276075543004
20
-0.24323584661723463
10
-3.2964402483631083
20
-0.15210977310360571
42
0.41446446494312639
10
-4.5475108160839088
20
-1.4021094455072036
10
-4.547499450430923
20
-109.97750013084982
42
0.41421353171307751
10
-3.2974994504309407
20
-111.22750000000002
10
40.216321548906741
20
-111.22750000000003
42
-0.030552754361583501
0
CIRCLE
5
116
100
AcDbEntity
8
0
100
AcDbCircle
10
194.05383895555514
20
-50.219541181405852
30
0
40
1.0999999999999943
210
0
220
0
230
1
0
CIRCLE
5
117
100
AcDbEntity
8
0
100
AcDbCircle
10
372.0475101617227
20
-7.653182175563062
30
0
40
1.0999999999999943
210
0
220
0
230
1
0
CIRCLE
5
118
100
AcDbEntity
8
0
100
AcDbCircle
10
224.14159641094039
20
-14.861917095125579
30
0
40
1.0999999999999943
210
0
220
0
230
1
0
LWPOLYLINE
5
119
100
AcDbEntity
8
0
100
AcDbPolyline
90
66
70
1
43
0.0
10
269.29675705580405
20
-91.510211390116552
42
0.41421354001074706
10
269.73209544193276
20
-90.953003662793947
10
269.50572324832603
20
-89.109349552037074
42
-0.41421354001077804
10
269.94106163445474
20
-88.55214182471444
10
286.91360027984098
20
-86.468175419667418
42
-0.41421358473540204
10
287.47080804970625
20
-86.903513839033991
10
287.69718040580335
20
-88.747169273169689
42
0.41421358473539177
10
288.25438817566862
20
-89.182507692536319
10
304.75711514959005
20
-87.156226926655421
42
-0.030552773466287746
10
304.81804984145833
20
-87.152500000000003
10
329.97499999999997
20
-87.152500000000089
42
-0.41421356237314705
10
330.47500000000002
20
-87.652500000000074
10
330.47500000000002
20
-105.70250000000001
42
0.41421356237312623
10
330.97499999999997
20
-106.20250000000001
10
359.49499999999995
20
-106.20250000000004
42
0.4142135623730846
10
359.995
20
-105.70250000000001
10
359.995
20
-87.652500000000032
10
359.99625000000003
20
-68.602500000000006
42
-0.41421356237318868
10
360.49624999999997
20
-68.102500000000006
10
367.11725000000001
20
-68.102500000000006
42
0.41421356237311063
10
367.61725000000001
20
-67.60250000000002
10
367.61725000000001
20
-48.602500000000006
42
0.4142135623730222
10
367.11725000000001
20
-48.102500000000035
10
351.9224999999999
20
-48.102500000000028
42
-0.41421356237314705
10
351.42249999999996
20
-47.602500000000035
10
351.42250000000001
20
-29.552499999999966
42
0.41421356237309503
10
350.92250000000001
20
-29.052499999999924
10
303.35000000000002
20
-29.052500000000041
42
0.41421356237304563
10
302.85000000000002
20
-29.552500000000034
10
302.85000000000002
20
-45.440114343701239
42
-0.4487626938215899
10
302.7383761667345
20
-45.539436478697503
10
302.6173290754233
20
-45.525270137964625
42
-0.34591433867280807
10
302.52969829308938
20
-45.438134933763969
10
300.58936640051712
20
-29.635395149437059
42
0.41421359565840088
10
300.0321586121442
20
-29.200056732342912
10
282.11669965672712
20
-31.399799910715771
42
-0.41421359565834959
10
281.5594918683542
20
-30.964461493621577
10
281.33311962211064
20
-29.120806954172149
42
0.41421356237307411
10
280.77591189013572
20
-28.685468530153187
10
261.9175349541722
20
-31.000985377889286
42
0.41421356237303603
10
261.4821965301532
20
-31.558193109864263
10
261.70856888748693
20
-33.401848554071783
42
-0.41421354001077804
10
261.27323050135828
20
-33.95905628139441
10
243.35777271685407
20
-36.158798637797538
42
0.41421356237306117
10
242.92243433537777
20
-36.716006403010454
10
243.14880641852022
20
-38.559658450407532
42
-0.41421356237308082
10
242.7134680370439
20
-39.116866215620469
10
224.79800994419594
20
-41.316608609883474
42
0.4142135400107238
10
224.36267155806732
20
-41.873816337206115
10
231.20563327372366
20
-97.605283598346162
42
-0.41421355721262249
10
230.77029485844858
20
-98.162491329247587
10
203.40083565062858
20
-101.52303785747706
42
0.41421357957490745
10
202.96549724000582
20
-102.08024562626876
10
205.28101555536014
20
-120.93862261174779
42
0.41421355286644662
10
205.83822330446512
20
-121.37396099520187
10
295.60161580937881
20
-110.35240151631015
42
0.4142135495174174
10
296.03695421161541
20
-109.79519378700972
10
293.72143745920141
20
-90.936817627382254
42
0.41421356237305118
10
293.16422972722643
20
-90.501479203363317
10
287.82309001970236
20
-91.157288503436163
10
277.28349069140495
20
-92.451389579256784
10
254.73408240442927
20
-95.220108456197593
10
251.61376543611993
20
-95.603235091905972
42
-0.41421356237306406
10
251.05655770414501
20
-95.167896667887078
10
250.94596135443481
20
-94.267161416223928
42
-0.41421354001078969
10
251.38129974056346
20
-93.709953688901294
0
CIRCLE
5
120
100
AcDbEntity
8
0
100
AcDbCircle
10
215.48524561719813
20
-82.911592113197315
30
0
40
12.262500000000003
210
0
220
0
230
1
0
CIRCLE
5
121
100
AcDbEntity
8
0
100
AcDbCircle
10
367.04751068467374
20
-2.6574626141108433
30
0
40
1.0999999999999943
210
0
220
0
230
1
0
CIRCLE
5
122
100
AcDbEntity
8
0
100
AcDbCircle
10
208.10622201176233
20
-123.63944682051473
30
0
40
1.0999999999999943
210
0
220
0
230
1
0
CIRCLE
5
123
100
AcDbEntity
8
0
100
AcDbCircle
10
202.53414431310955
20
-119.28606262684868
30
0
40
1.0999999999999943
210
0
220
0
230
1
0
LWPOLYLINE
5
124
100
AcDbEntity
8
0
100
AcDbPolyline
90
8
70
1
43
0.0
10
218.67912377742672
20
-98.817321507729361
42
0.41421356237301077
10
219.33213138360389
20
-97.981509886444584
10
219.21026204019887
20
-96.98896373480332
42
0.41421356237314405
10
218.37445041891408
20
-96.335956128626052
10
215.8930850398107
20
-96.640629487138639
42
0.4142135623730116
10
215.24007743363353
20
-97.476441108423444
10
215.36194677703858
20
-98.468987260064793
42
0.41421356237307527
10
216.19775839832334
20
-99.121994866242005
0
LWPOLYLINE
5
125
100
AcDbEntity
8
0
100
AcDbPolyline
90
8
70
1
43
0.0
10
325.70999999999998
20
-24.739999999999984
42
0.41421356237309243
10
326.21000000000004
20
-25.240000000000023
10
345.21000000000004
20
-25.240000000000002
42
0.41421356237311063
10
345.70999999999998
20
-24.740000000000002
10
345.71000000000004
20
-5.740000000000018
42
0.41421356237303131
10
345.21000000000004
20
-5.2400000000000002
10
326.21000000000004
20
-5.2400000000000002
42
0.41421356237313472
10
325.70999999999998
20
-5.7400000000000162
0
CIRCLE
5
126
100
AcDbEntity
8
0
100
AcDbCircle
10
372.04750010467984
20
-103.72750000000003
30
0
40
1.0999999999999943
210
0
220
0
230
1
0
CIRCLE
5
127
100
AcDbEntity
8
0
100
AcDbCircle
10
190.83316022816069
20
-23.989226703836621
30
0
40
1.0999999999999943
210
0
220
0
230
1
0
CIRCLE
5
128
100
AcDbEntity
8
0
100
AcDbCircle
10
367.04749957734094
20
-108.7651362819736
30
0
40
1.0999999999999943
210
0
220
0
230
1
0
LWPOLYLINE
5
129
100
AcDbEntity
8
0
100
AcDbPolyline
90
39
70
1
43
0.0
10
240.45575895417213
20
-12.523792377889308
42
0.414213562373066
10
240.02042053015316
20
-13.081000109864283
10
240.24679289170939
20
-14.924655588461061
42
-0.414213562373066
10
239.81145446769045
20
-15.481863320436036
10
221.89599595417212
20
-17.681604377889283
42
0.41421356237303475
10
221.46065753015318
20
-18.238812109864256
10
223.77617437788928
20
-37.097189045827854
42
0.41421356237307533
10
224.33338210986426
20
-37.532527469846798
10
243.19175904582781
20
-35.217010622110706
42
0.4142135623731264
10
243.6270974698468
20
-34.659802890135715
10
243.4007251082906
20
-32.816147411538964
42
-0.41421356237303858
10
243.83606353230954
20
-32.258939679563987
10
261.75152204582776
20
-30.059198622110721
42
0.41421356237309798
10
262.18686046984669
20
-29.501990890135747
10
261.96048811251296
20
-27.658335445928266
42
-0.41421354001075972
10
262.39582649864161
20
-27.101127718605635
10
279.36836633671595
20
-25.017161167114846
42
-0.4142135623731712
10
279.92557410192887
20
-25.452499548591128
10
280.15194663779755
20
-27.296155283145914
42
0.41421356237313861
10
280.70915440301047
20
-27.731493664622203
10
300.97038174265896
20
-25.243726926655373
42
-0.030552773466795146
10
301.0313164345273
20
-25.239999999999991
10
318.53999999999996
20
-25.240000000000006
42
0.41421356237310542
10
319.04000000000002
20
-24.739999999999984
10
319.04000000000002
20
-5.7399999999999984
42
0.41421356237310281
10
318.53999999999996
20
-5.2399999999999913
10
299.54000000000002
20
-5.2400000000000073
42
0.41421356237312557
10
299.04000000000002
20
-5.7400000000000162
10
299.04000000000002
20
-17.016826117658734
10
297.68735136220243
20
-6.0003907168540982
42
0.41421356237311702
10
297.13014359698951
20
-5.5650523353777981
10
279.21468573501107
20
-7.7647947012936083
42
-0.41421358473539305
10
278.6574779651458
20
-7.3294562819269693
10
278.43110559419654
20
-5.485800726830333
42
0.4142135847354278
10
277.87389782433127
20
-5.0504623074637145
10
259.01552094419583
20
-7.3659806098834748
42
0.41421354001077537
10
258.58018255806718
20
-7.9231883372061152
10
258.80655490656153
20
-9.7668437094219644
42
-0.41421356237311863
10
258.37121648254254
20
-10.324051441396946
0
CIRCLE
5
130
100
AcDbEntity
8
0
100
AcDbCircle
10
197.72820085788214
20
-80.144807362926045
30
0
40
1.0999999999999943
210
0
220
0
230
1
0
LWPOLYLINE
5
131
100
AcDbEntity
8
0
100
AcDbPolyline
90
24
70
1
43
0.0
10
220.95657001692669
20
-54.566021580452926
10
203.31902536001559
20
-56.731640484052392
42
-0.41421356237302276
10
202.76181759480264
20
-56.296302102576036
10
198.58535371519309
20
-22.281744849609066
10
197.91507253306577
20
-16.822741086368246
42
0.41421356237312651
10
196.52205320312839
20
-15.734395026320856
10
188.67845724986938
20
-16.697467226981466
42
0.41421358473538555
10
187.59011120145283
20
-18.090486651644685
10
200.81446258310947
20
-125.7941494082722
42
0.41421354001083072
10
202.20748190141603
20
-126.88249537359384
10
329.63134181614816
20
-111.23681730500765
42
-0.030552754361485045
10
329.78367845109318
20
-111.22750000000003
10
373.29749945043091
20
-111.22750000000002
42
0.4142135318219311
10
374.54749945043096
20
-109.9775001303852
10
374.5475108160839
20
-1.4021094450425764
42
0.41446446483423355
10
373.29644024836313
20
-0.15210977310360943
10
266.8972392445699
20
-0.24323584661723324
42
0.066741538106746948
10
266.5679960211101
20
-0.28766797016578777
10
221.37854252888781
20
-12.669140363551378
42
-0.036329534498008013
10
221.20056537265216
20
-12.704255640538531
10
217.63350957136259
20
-13.142234891496734
42
0.41421356237307999
10
216.54516351131522
20
-14.535254221434162
10
217.21544471670421
20
-19.994258174126522
10
221.39190839840293
20
-54.008813815240018
42
-0.41421356237299628
0
ENDSEC
0
SECTION
2
OBJECTS
0
DICTIONARY
5
C
100
AcDbDictionary
3
ACAD_GROUP
350
D
3
ACAD_MLINESTYLE
350
17
0
DICTIONARY
5
D
100
AcDbDictionary
0
DICTIONARY
5
1A
330
C
100
AcDbDictionary
0
DICTIONARY
5
17
100
AcDbDictionary
0
ENDSEC
0
EOF
