0
SECTION
2
HEADER
9
$INSUNITS
70
4
9
$ACADVER
1
AC1014
9
$HANDSEED
5
FFFF
0
ENDSEC
0
SECTION
2
TABLES
0
TABLE
2
VPORT
5
8
100
AcDbSymbolTable
0
ENDTAB
0
TABLE
2
LTYPE
5
5
100
AcDbSymbolTable
0
LTYPE
5
14
100
AcDbSymbolTableRecord
100
AcDbLinetypeTableRecord
2
BYBLOCK
70
0
0
LTYPE
5
15
100
AcDbSymbolTableRecord
100
AcDbLinetypeTableRecord
2
BYLAYER
70
0
0
ENDTAB
0
TABLE
2
LAYER
5
2
100
AcDbSymbolTable
70
2
0
LAYER
5
50
100
AcDbSymbolTableRecord
100
AcDbLayerTableRecord
2
0
70
0
6
CONTINUOUS
0
ENDTAB
0
TABLE
2
STYLE
5
3
100
AcDbSymbolTable
70
1
0
STYLE
5
11
100
AcDbSymbolTableRecord
100
AcDbTextStyleTableRecord
2
STANDARD
70
0
0
ENDTAB
0
TABLE
2
VIEW
5
6
100
AcDbSymbolTable
70
0
0
ENDTAB
0
TABLE
2
UCS
5
7
100
AcDbSymbolTable
70
0
0
ENDTAB
0
TABLE
2
APPID
5
9
100
AcDbSymbolTable
70
2
0
APPID
5
12
100
AcDbSymbolTableRecord
100
AcDbRegAppTableRecord
2
ACAD
70
0
0
ENDTAB
0
TABLE
2
DIMSTYLE
5
A
100
AcDbSymbolTable
70
1
0
ENDTAB
0
TABLE
2
BLOCK_RECORD
5
1
100
AcDbSymbolTable
70
1
0
BLOCK_RECORD
5
1F
100
AcDbSymbolTableRecord
100
AcDbBlockTableRecord
2
*MODEL_SPACE
0
BLOCK_RECORD
5
1B
100
AcDbSymbolTableRecord
100
AcDbBlockTableRecord
2
*PAPER_SPACE
0
ENDTAB
0
ENDSEC
0
SECTION
2
BLOCKS
0
BLOCK
5
20
100
AcDbEntity
100
AcDbBlockBegin
2
*MODEL_SPACE
0
ENDBLK
5
21
100
AcDbEntity
100
AcDbBlockEnd
0
BLOCK
5
1C
100
AcDbEntity
100
AcDbBlockBegin
2
*PAPER_SPACE
0
ENDBLK
5
1D
100
AcDbEntity
100
AcDbBlockEnd
0
ENDSEC
0
SECTION
2
ENTITIES
0
CIRCLE
5
100
100
AcDbEntity
8
0
100
AcDbCircle
10
194.05383895555514
20
-50.219541181405852
30
0
40
1.0999999999999943
210
-0
220
0
230
1
0
LWPOLYLINE
5
101
100
AcDbEntity
8
0
100
AcDbPolyline
90
66
70
1
43
0.0
10
277.28349069140495
20
-92.451389579256784
10
287.82309001970236
20
-91.157288503436163
10
293.16422972722643
20
-90.501479203363317
42
-0.41421356237307311
10
293.72143745920141
20
-90.936817627382254
10
296.03695421161541
20
-109.79519378700972
42
-0.41421354951742645
10
295.60161580937881
20
-110.35240151631015
10
205.83822330446512
20
-121.37396099520187
42
-0.41421355286644529
10
205.28101555536014
20
-120.93862261174779
10
202.96549724000582
20
-102.08024562626876
42
-0.41421357957490745
10
203.40083565062858
20
-101.52303785747706
10
230.77029485844858
20
-98.162491329247587
42
0.41421355721262249
10
231.20563327372366
20
-97.605283598346162
10
224.36267155806732
20
-41.873816337206115
42
-0.414213540010689
10
224.79800994419594
20
-41.316608609883474
10
242.7134680370439
20
-39.116866215620469
42
0.41421356237308082
10
243.14880641852022
20
-38.559658450407532
10
242.92243433537777
20
-36.716006403010454
42
-0.41421356237310702
10
243.35777271685407
20
-36.158798637797538
10
261.27323050135828
20
-33.95905628139441
42
0.41421354001077804
10
261.70856888748693
20
-33.401848554071783
10
261.4821965301532
20
-31.558193109864263
42
-0.41421356237306384
10
261.9175349541722
20
-31.000985377889286
10
280.77591189013572
20
-28.685468530153187
42
-0.41421356237307472
10
281.33311962211064
20
-29.120806954172149
10
281.5594918683542
20
-30.964461493621577
42
0.41421359565834959
10
282.11669965672712
20
-31.399799910715771
10
300.0321586121442
20
-29.200056732342912
42
-0.41421359565836441
10
300.58936640051712
20
-29.635395149437059
10
302.52969829308938
20
-45.438134933763969
42
0.34591433867280807
10
302.6173290754233
20
-45.525270137964625
10
302.7383761667345
20
-45.539436478697503
42
0.4487626938215899
10
302.85000000000002
20
-45.440114343701239
10
302.85000000000002
20
-29.552500000000034
42
-0.41421356237309243
10
303.35000000000002
20
-29.052500000000041
10
350.92250000000001
20
-29.052499999999924
42
-0.41421356237309503
10
351.42250000000001
20
-29.552499999999966
10
351.42249999999996
20
-47.602500000000035
42
0.41421356237314705
10
351.9224999999999
20
-48.102500000000028
10
367.11725000000001
20
-48.102500000000035
42
-0.41421356237309503
10
367.61725000000001
20
-48.602500000000006
10
367.61725000000001
20
-67.60250000000002
42
-0.41421356237309503
10
367.11725000000001
20
-68.102500000000006
10
360.49624999999997
20
-68.102500000000006
42
0.41421356237318868
10
359.99625000000003
20
-68.602500000000006
10
359.995
20
-87.652500000000032
10
359.995
20
-105.70250000000001
42
-0.41421356237309503
10
359.49499999999995
20
-106.20250000000004
10
330.97499999999997
20
-106.20250000000001
42
-0.41421356237311585
10
330.47500000000002
20
-105.70250000000001
10
330.47500000000002
20
-87.652500000000074
42
0.41421356237314705
10
329.97499999999997
20
-87.152500000000089
10
304.81804984145833
20
-87.152500000000003
42
0.030552773466286584
10
304.75711514959005
20
-87.156226926655407
10
288.25438817566862
20
-89.182507692536319
42
-0.41421358473543307
10
287.69718040580335
20
-88.747169273169689
10
287.47080804970625
20
-86.903513839033991
42
0.41421358473540204
10
286.91360027984098
20
-86.468175419667418
10
269.94106163445474
20
-88.55214182471444
42
0.41421354001077804
10
269.50572324832603
20
-89.109349552037074
10
269.73209544193276
20
-90.953003662793947
42
-0.41421354001078836
10
269.29675705580405
20
-91.510211390116552
10
251.38129974056346
20
-93.709953688901294
42
0.41421354001078969
10
250.94596135443481
20
-94.267161416223928
10
251.05655770414501
20
-95.167896667887078
42
0.41421356237308221
10
251.61376543611993
20
-95.603235091906015
10
254.73408240442927
20
-95.220108456197593
0
CIRCLE
5
102
100
AcDbEntity
8
0
100
AcDbCircle
10
224.14159641094039
20
-14.861917095125579
30
0
40
1.0999999999999943
210
-0
220
0
230
1
0
CIRCLE
5
103
100
AcDbEntity
8
0
100
AcDbCircle
10
372.0475101617227
20
-7.653182175563062
30
0
40
1.1000000000000001
210
-0
220
0
230
1
0
LWPOLYLINE
5
104
100
AcDbEntity
8
0
100
AcDbPolyline
90
8
70
1
43
0.0
10
345.71000000000004
20
-5.740000000000018
42
0.41421356237309825
10
345.21000000000004
20
-5.2400000000000002
10
326.21000000000004
20
-5.2400000000000002
42
0.41421356237309631
10
325.70999999999998
20
-5.740000000000018
10
325.70999999999998
20
-24.739999999999984
42
0.41421356237310025
10
326.21000000000004
20
-25.240000000000002
10
345.21000000000004
20
-25.240000000000002
42
0.41421356237309764
10
345.70999999999998
20
-24.740000000000002
0
CIRCLE
5
105
100
AcDbEntity
8
0
100
AcDbCircle
10
215.48524561719813
20
-82.911592113197315
30
0
40
12.262500000000003
210
-0
220
0
230
1
0
CIRCLE
5
106
100
AcDbEntity
8
0
100
AcDbCircle
10
202.53414431310955
20
-119.28606262684868
30
0
40
1.0999999999999943
210
-0
220
0
230
1
0
CIRCLE
5
107
100
AcDbEntity
8
0
100
AcDbCircle
10
197.72820085788214
20
-80.144807362926045
30
0
40
1.0999999999999943
210
-0
220
0
230
1
0
CIRCLE
5
108
100
AcDbEntity
8
0
100
AcDbCircle
10
208.10622201176233
20
-123.63944682051473
30
0
40
1.0999999999999943
210
-0
220
0
230
1
0
LWPOLYLINE
5
109
100
AcDbEntity
8
0
100
AcDbPolyline
90
8
70
1
43
0.0
10
215.8930850398107
20
-96.640629487138639
42
0.41421356237303908
10
215.24007743363353
20
-97.476441108423444
10
215.36194677703858
20
-98.468987260064793
42
0.41421356237306667
10
216.19775839832334
20
-99.121994866242019
10
218.67912377742672
20
-98.817321507729361
42
0.41421356237302454
10
219.33213138360387
20
-97.981509886444584
10
219.21026204019887
20
-96.98896373480332
42
0.41421356237314322
10
218.37445041891408
20
-96.335956128626037
0
CIRCLE
5
110
100
AcDbEntity
8
0
100
AcDbCircle
10
367.04751068467374
20
-2.6574626141108433
30
0
40
1.0999999999999999
210
-0
220
0
230
1
0
CIRCLE
5
111
100
AcDbEntity
8
0
100
AcDbCircle
10
287.01364141327974
20
-113.95083683801083
30
0
40
1.0999999999999943
210
-0
220
0
230
1
0
CIRCLE
5
112
100
AcDbEntity
8
0
100
AcDbCircle
10
372.04750010467984
20
-103.72750000000003
30
0
40
1.100000000000003
210
-0
220
0
230
1
0
CIRCLE
5
113
100
AcDbEntity
8
0
100
AcDbCircle
10
367.04749957734094
20
-108.7651362819736
30
0
40
1.0999999999999943
210
-0
220
0
230
1
0
CIRCLE
5
114
100
AcDbEntity
8
0
100
AcDbCircle
10
190.83316022816069
20
-23.989226703836621
30
0
40
1.0999999999999943
210
-0
220
0
230
1
0
CIRCLE
5
115
100
AcDbEntity
8
0
100
AcDbCircle
10
277.3879966020321
20
-2.7342519072595977
30
0
40
1.0999999999999943
210
-0
220
0
230
1
0
LWPOLYLINE
5
116
100
AcDbEntity
8
0
100
AcDbPolyline
90
24
70
1
43
0.0
10
198.58535371519309
20
-22.281744849609066
10
197.91507253306577
20
-16.822741086368246
42
0.41421356237312651
10
196.52205320312839
20
-15.734395026320856
10
188.67845724986938
20
-16.697467226981466
42
0.41421358473538505
10
187.59011120145283
20
-18.090486651644685
10
200.81446258310947
20
-125.7941494082722
42
0.41421354001083072
10
202.20748190141603
20
-126.88249537359384
10
329.63134181614816
20
-111.23681730500765
42
-0.030552754361472707
10
329.78367845109324
20
-111.22750000000003
10
373.29749945043091
20
-111.22750000000002
42
0.4142135318219311
10
374.54749945043096
20
-109.9775001303852
10
374.5475108160839
20
-1.4021094450425764
42
0.41446446483423355
10
373.29644024836313
20
-0.15210977310360932
10
266.8972392445699
20
-0.24323584661723657
42
0.066741538106747156
10
266.5679960211101
20
-0.28766797016578965
10
221.37854252888781
20
-12.669140363551374
42
-0.036329534498000013
10
221.20056537265216
20
-12.704255640538531
10
217.63350957136259
20
-13.142234891496734
42
0.41421356237307999
10
216.54516351131522
20
-14.535254221434162
10
217.21544471670421
20
-19.994258174126522
10
221.3919083984029
20
-54.008813815240018
42
-0.41421356237302859
10
220.95657001692669
20
-54.566021580452926
10
203.31902536001553
20
-56.73164048405237
42
-0.41421356237305829
10
202.76181759480264
20
-56.296302102576036
0
LWPOLYLINE
5
117
100
AcDbEntity
8
0
100
AcDbPolyline
90
39
70
1
43
0.0
10
258.80655490656153
20
-9.766843709421968
10
258.58018255806718
20
-7.923188337206108
42
-0.41421354001076971
10
259.01552094419583
20
-7.3659806098834739
10
277.87389782433127
20
-5.0504623074637189
42
-0.41421358473542613
10
278.43110559419654
20
-5.485800726830333
10
278.6574779651458
20
-7.3294562819269693
42
0.4142135847353931
10
279.21468573501107
20
-7.7647947012936065
10
297.13014359698951
20
-5.5650523353778034
42
-0.41421356237310519
10
297.68735136220243
20
-6.0003907168540982
10
299.04000000000002
20
-17.016826117658734
10
299.04000000000002
20
-5.7400000000000162
42
-0.41421356237310153
10
299.54000000000002
20
-5.2400000000000073
10
318.53999999999996
20
-5.2399999999999878
42
-0.41421356237309698
10
319.04000000000002
20
-5.7399999999999984
10
319.04000000000002
20
-24.739999999999984
42
-0.41421356237310281
10
318.53999999999996
20
-25.240000000000006
10
301.0313164345273
20
-25.239999999999991
42
0.030552773466795618
10
300.97038174265896
20
-25.243726926655377
10
280.70915440301047
20
-27.731493664622203
42
-0.41421356237309859
10
280.15194663779755
20
-27.296155283145914
10
279.92557410192887
20
-25.452499548591128
42
0.41421356237317086
10
279.36836633671595
20
-25.017161167114843
10
262.39582649864161
20
-27.101127718605635
42
0.41421354001075972
10
261.96048811251296
20
-27.658335445928266
10
262.18686046984669
20
-29.501990890135747
42
-0.41421356237310702
10
261.75152204582776
20
-30.059198622110721
10
243.83606353230954
20
-32.258939679563987
42
0.41421356237303858
10
243.4007251082906
20
-32.816147411538964
10
243.6270974698468
20
-34.659802890135715
42
-0.41421356237313306
10
243.19175904582781
20
-35.217010622110706
10
224.33338210986426
20
-37.532527469846798
42
-0.41421356237311052
10
223.77617437788928
20
-37.097189045827854
10
221.46065753015318
20
-18.238812109864256
42
-0.41421356237306356
10
221.89599595417212
20
-17.681604377889283
10
239.81145446769045
20
-15.481863320436036
42
0.414213562373066
10
240.24679289170939
20
-14.924655588461061
10
240.02042053015316
20
-13.081000109864283
42
-0.41421356237306484
10
240.45575895417213
20
-12.523792377889308
10
258.37121648254254
20
-10.324051441396946
42
0.41421356237311741
0
ENDSEC
0
SECTION
2
OBJECTS
0
DICTIONARY
5
C
100
AcDbDictionary
3
ACAD_GROUP
350
D
3
ACAD_MLINESTYLE
350
17
0
DICTIONARY
5
D
100
AcDbDictionary
0
DICTIONARY
5
1A
330
C
100
AcDbDictionary
0
DICTIONARY
5
17
100
AcDbDictionary
0
ENDSEC
0
EOF
