0
SECTION
2
HEADER
9
$INSUNITS
70
4
9
$ACADVER
1
AC1014
9
$HANDSEED
5
FFFF
0
ENDSEC
0
SECTION
2
TABLES
0
TABLE
2
VPORT
5
8
100
AcDbSymbolTable
0
ENDTAB
0
TABLE
2
LTYPE
5
5
100
AcDbSymbolTable
0
LTYPE
5
14
100
AcDbSymbolTableRecord
100
AcDbLinetypeTableRecord
2
BYBLOCK
70
0
0
LTYPE
5
15
100
AcDbSymbolTableRecord
100
AcDbLinetypeTableRecord
2
BYLAYER
70
0
0
ENDTAB
0
TABLE
2
LAYER
5
2
100
AcDbSymbolTable
70
2
0
LAYER
5
50
100
AcDbSymbolTableRecord
100
AcDbLayerTableRecord
2
0
70
0
6
CONTINUOUS
0
ENDTAB
0
TABLE
2
STYLE
5
3
100
AcDbSymbolTable
70
1
0
STYLE
5
11
100
AcDbSymbolTableRecord
100
AcDbTextStyleTableRecord
2
STANDARD
70
0
0
ENDTAB
0
TABLE
2
VIEW
5
6
100
AcDbSymbolTable
70
0
0
ENDTAB
0
TABLE
2
UCS
5
7
100
AcDbSymbolTable
70
0
0
ENDTAB
0
TABLE
2
APPID
5
9
100
AcDbSymbolTable
70
2
0
APPID
5
12
100
AcDbSymbolTableRecord
100
AcDbRegAppTableRecord
2
ACAD
70
0
0
ENDTAB
0
TABLE
2
DIMSTYLE
5
A
100
AcDbSymbolTable
70
1
0
ENDTAB
0
TABLE
2
BLOCK_RECORD
5
1
100
AcDbSymbolTable
70
1
0
BLOCK_RECORD
5
1F
100
AcDbSymbolTableRecord
100
AcDbBlockTableRecord
2
*MODEL_SPACE
0
BLOCK_RECORD
5
1B
100
AcDbSymbolTableRecord
100
AcDbBlockTableRecord
2
*PAPER_SPACE
0
ENDTAB
0
ENDSEC
0
SECTION
2
BLOCKS
0
BLOCK
5
20
100
AcDbEntity
100
AcDbBlockBegin
2
*MODEL_SPACE
0
ENDBLK
5
21
100
AcDbEntity
100
AcDbBlockEnd
0
BLOCK
5
1C
100
AcDbEntity
100
AcDbBlockBegin
2
*PAPER_SPACE
0
ENDBLK
5
1D
100
AcDbEntity
100
AcDbBlockEnd
0
ENDSEC
0
SECTION
2
ENTITIES
0
LWPOLYLINE
5
100
100
AcDbEntity
8
0
100
AcDbPolyline
90
24
70
1
43
0.0
10
171.41464628480691
20
-22.281744849609066
10
167.23818240519736
20
-56.296302102576036
42
-0.41421356237306989
10
166.68097463998447
20
-56.73164048405237
10
149.04342998307334
20
-54.566021580452933
42
-0.41421356237306534
10
148.6080916015971
20
-54.008813815240018
10
152.78455528329582
20
-19.994258174126522
10
153.45483648868478
20
-14.535254221434164
42
0.41421356237310181
10
152.36649042863741
20
-13.142234891496729
10
148.79943462734781
20
-12.704255640538529
42
-0.036329534498002677
10
148.62145747111219
20
-12.669140363551385
10
103.43200397888987
20
-0.2876679701657911
42
0.06674153810675118
10
103.10276075543004
20
-0.24323584661723477
10
-3.2964402483631083
20
-0.15210977310360516
42
0.41446446494312639
10
-4.5475108160839088
20
-1.4021094455072036
10
-4.5474994504309247
20
-109.97750013084982
42
0.41421353171307751
10
-3.2974994504309407
20
-111.22750000000002
10
40.216321548906741
20
-111.22750000000005
42
-0.030552754361543383
10
40.368658183851778
20
-111.23681730500765
10
167.79251809858394
20
-126.88249537359384
42
0.41421354001079663
10
169.18553741689053
20
-125.7941494082722
10
182.40988879854717
20
-18.090486651644682
42
0.41421358473539227
10
181.32154275013065
20
-16.69746722698147
10
173.47794679687155
20
-15.734395026320829
42
0.41421356237310558
10
172.08492746693412
20
-16.822741086368246
0
CIRCLE
5
101
100
AcDbEntity
8
0
100
AcDbCircle
10
154.51475438280187
20
-82.911592113197315
30
0
40
12.262499999999996
210
0
220
0
230
1
0
LWPOLYLINE
5
102
100
AcDbEntity
8
0
100
AcDbPolyline
90
8
70
1
43
0.0
10
24.290000000000006
20
-24.740000000000002
42
0.41421356237309764
10
24.789999999999999
20
-25.240000000000002
10
43.789999999999978
20
-25.240000000000002
42
0.41421356237310802
10
44.290000000000013
20
-24.739999999999984
10
44.290000000000013
20
-5.740000000000018
42
0.41421356237310542
10
43.789999999999978
20
-5.240000000000002
10
24.790000000000024
20
-5.2400000000000002
42
0.41421356237309631
10
24.290000000000006
20
-5.740000000000018
0
LWPOLYLINE
5
103
100
AcDbEntity
8
0
100
AcDbPolyline
90
39
70
1
43
0.0
10
51.460000000000022
20
-5.2399999999999967
42
0.41421356237309698
10
50.960000000000029
20
-5.7399999999999984
10
50.960000000000008
20
-24.739999999999995
42
0.41421356237311585
10
51.460000000000022
20
-25.240000000000009
10
68.968683565472716
20
-25.239999999999995
42
-0.030552773466714468
10
69.029618257341028
20
-25.243726926655373
10
88.347928094444626
20
-27.615717914212091
42
0.41421358473537173
10
88.905135864309869
20
-27.180379494845468
10
89.131508250111281
20
-25.336723818787821
42
-0.41421358473539044
10
89.688716019976539
20
-24.901385399421212
10
108.54709290011199
20
-27.216903701841005
42
-0.41421354001082322
10
108.9824312862406
20
-27.774111429163604
10
108.7560589377463
20
-29.617766801379481
42
0.4142135623731083
10
109.19139736176524
20
-30.174974533354451
10
127.10685489013572
20
-32.374715469846826
42
-0.41421356237309215
10
127.5421933141547
20
-32.931923201821796
10
127.31582095259847
20
-34.775578680418555
42
0.41421356237310536
10
127.75115937661745
20
-35.332786412393517
10
145.66661789013574
20
-37.532527469846812
42
0.41421356237310081
10
146.2238256221107
20
-37.097189045827854
10
148.53934246984682
20
-18.238812109864256
42
0.41421356237306234
10
148.10400404582788
20
-17.681604377889286
10
130.1885455323096
20
-15.481863320436036
42
-0.41421356237309004
10
129.75320710829061
20
-14.924655588461063
10
129.97957946984684
20
-13.081000109864284
42
0.41421356237306745
10
129.54424104582787
20
-12.523792377889304
10
111.62878351745746
20
-10.324051441396945
42
-0.41421356237313556
10
111.19344509343848
20
-9.766843709421968
10
111.41981744193281
20
-7.9231883372061027
42
0.41421354001076921
10
110.98447905580416
20
-7.3659806098834677
10
92.126102175668734
20
-5.0504623074637252
42
0.41421358473541792
10
91.568894405803434
20
-5.4858007268303313
10
91.342522034854198
20
-7.3294562819269693
42
-0.4142135847354213
10
90.785314264988912
20
-7.7647947012935781
10
72.869856403010516
20
-5.5650523353777945
42
0.41421356237309287
10
72.312648637797579
20
-6.0003907168540991
10
70.960000000000008
20
-17.016826117658734
10
70.960000000000008
20
-5.7400000000000118
42
0.41421356237310281
10
70.459999999999994
20
-5.2400000000000082
0
LWPOLYLINE
5
104
100
AcDbEntity
8
0
100
AcDbPolyline
90
69
70
1
43
0.0
10
108.08246504582785
20
-31.00098537788929
10
89.224088109864269
20
-28.685468530153194
42
0.41421356237308959
10
88.666880377889314
20
-29.120806954172149
10
88.440508131645799
20
-30.964461493621577
42
-0.41421359565838184
10
87.883300343272879
20
-31.399799910715736
10
69.967841387855827
20
-29.200056732342897
42
0.41421359565835925
10
69.410633599482892
20
-29.635395149437059
10
67.470301706910632
20
-45.438134933763969
42
-0.34591433867278049
10
67.382670924576743
20
-45.525270137964611
10
67.261623833265503
20
-45.539436478697503
42
-0.44876269382159317
10
67.150000000000006
20
-45.440114343701239
10
67.150000000000006
20
-29.552500000000034
42
0.41421356237309503
10
66.650000000000006
20
-29.052500000000038
10
19.077500000000001
20
-29.052499999999966
42
0.41421356237308982
10
18.577500000000001
20
-29.552499999999966
10
18.577500000000001
20
-47.602500000000006
42
-0.41421356237309631
10
18.077500000000001
20
-48.102500000000006
10
12.407500000000002
20
-48.102500000000006
42
0.41421356237309503
10
11.907500000000002
20
-48.602500000000006
10
11.907499999999999
20
-66.652499781640728
42
-0.41421353171309361
10
11.407500052339914
20
-67.152499781640714
10
0.98374994766008861
20
-67.152500872797049
42
0.41421353171310338
10
0.4837500000000034
20
-67.652500872797049
10
0.48374999999999974
20
-86.652500000000003
42
0.41421356237308971
10
0.98374999999999768
20
-87.152500000000003
10
9.5050000000000008
20
-87.152500000000032
42
-0.41421356237309115
10
10.005000000000003
20
-87.652500000000032
10
10.005000000000006
20
-105.70250000000001
42
0.41421356237309115
10
10.505000000000004
20
-106.2025
10
39.02500000000002
20
-106.2025
42
0.4142135623730846
10
39.525000000000013
20
-105.70250000000001
10
39.524999999999991
20
-87.652500000000074
42
-0.4142135623730846
10
40.025000000000013
20
-87.152500000000032
10
65.181950158541682
20
-87.152500000000046
42
-0.03055277346654189
10
65.242884850409993
20
-87.156226926655421
10
81.745611824331377
20
-89.182507692536319
42
0.41421358473543174
10
82.302819594196649
20
-88.747169273169689
10
82.52919195029375
20
-86.903513839033991
42
-0.41421358473541114
10
83.086399720159037
20
-86.468175419667404
10
100.05893836554527
20
-88.55214182471444
42
-0.41421354001077937
10
100.49427675167394
20
-89.109349552037074
10
100.26790455806724
20
-90.953003662793947
42
0.41421354001079874
10
100.70324294419592
20
-91.510211390116552
10
118.61870025943652
20
-93.709953688901294
42
-0.41421354001079874
10
119.05403864556517
20
-94.267161416223928
10
118.94344229585501
20
-95.167896667887078
42
-0.41421356237309503
10
118.38623456388007
20
-95.603235091906015
10
115.2659175955707
20
-95.220108456197593
10
92.716509308595064
20
-92.451389579256784
10
82.176909980297665
20
-91.157288503436163
10
76.835770272773559
20
-90.501479203363303
42
0.41421356237306989
10
76.278562540798575
20
-90.936817627382283
10
73.963045788384562
20
-109.79519378700971
42
0.41421354951743289
10
74.398384190621172
20
-110.35240151631015
10
164.16177669553488
20
-121.37396099520187
42
0.41421355286645695
10
164.71898444463986
20
-120.93862261174777
10
167.03450275999418
20
-102.08024562626876
42
0.41421357957492938
10
166.59916434937142
20
-101.52303785747708
10
139.22970514155142
20
-98.162491329247558
42
-0.41421355721257086
10
138.79436672627631
20
-97.605283598346162
10
145.63732844193271
20
-41.873816337206115
42
0.41421354001072003
10
145.20199005580403
20
-41.316608609883474
10
127.2865319629561
20
-39.116866215620483
42
-0.41421356237309698
10
126.85119358147979
20
-38.559658450407532
10
127.07756566462223
20
-36.716006403010454
42
0.41421356237309764
10
126.64222728314593
20
-36.158798637797524
10
108.72676949864172
20
-33.959056281394389
42
-0.41421354001077515
10
108.29143111251305
20
-33.401848554071776
10
108.51780346984681
20
-31.558193109864266
42
0.4142135623730937
0
LINE
5
105
100
AcDbEntity
8
0
100
AcDbLine
10
65.242884850409993
20
-87.156226926655421
30
0
11
76.075689802457205
21
-88.486328572859705
31
0
0
LWPOLYLINE
5
106
100
AcDbEntity
8
0
100
AcDbPolyline
90
8
70
1
43
0.0
10
154.63805322296145
20
-98.468987260064793
10
154.75992256636647
20
-97.476441108423444
42
0.41421356237303908
10
154.1069149601893
20
-96.640629487138639
10
151.62554958108592
20
-96.335956128626037
42
0.41421356237313639
10
150.78973795980113
20
-96.98896373480332
10
150.66786861639613
20
-97.981509886444584
42
0.41421356237302531
10
151.32087622257325
20
-98.817321507729361
10
153.80224160167666
20
-99.121994866242019
42
0.4142135623730675
0
CIRCLE
5
107
100
AcDbEntity
8
0
100
AcDbCircle
10
145.85840358905961
20
-14.861917095125579
30
0
40
1.100000000000001
210
0
220
0
230
1
0
CIRCLE
5
108
100
AcDbEntity
8
0
100
AcDbCircle
10
179.16683977183931
20
-23.989226703836621
30
0
40
1.1000000000000045
210
0
220
0
230
1
0
CIRCLE
5
109
100
AcDbEntity
8
0
100
AcDbCircle
10
175.94616104444486
20
-50.219541181405852
30
0
40
1.0999999999999976
210
0
220
0
230
1
0
CIRCLE
5
110
100
AcDbEntity
8
0
100
AcDbCircle
10
172.27179914211786
20
-80.144807362926045
30
0
40
1.0999999999999852
210
0
220
0
230
1
0
CIRCLE
5
111
100
AcDbEntity
8
0
100
AcDbCircle
10
167.46585568689045
20
-119.28606262684868
30
0
40
1.0999999999999943
210
0
220
0
230
1
0
CIRCLE
5
112
100
AcDbEntity
8
0
100
AcDbCircle
10
161.89377798823767
20
-123.63944682051473
30
0
40
1.0999999999999912
210
0
220
0
230
1
0
CIRCLE
5
113
100
AcDbEntity
8
0
100
AcDbCircle
10
82.986358586720286
20
-113.95083683801083
30
0
40
1.1000000000000028
210
0
220
0
230
1
0
CIRCLE
5
114
100
AcDbEntity
8
0
100
AcDbCircle
10
2.9525004226590807
20
-108.7651362819736
30
0
40
1.0999999999999943
210
0
220
0
230
1
0
CIRCLE
5
115
100
AcDbEntity
8
0
100
AcDbCircle
10
-2.0475001046798358
20
-103.72750000000003
30
0
40
1.100000000000003
210
0
220
0
230
1
0
CIRCLE
5
116
100
AcDbEntity
8
0
100
AcDbCircle
10
-2.0475101617226894
20
-7.653182175563062
30
0
40
1.1000000000000001
210
0
220
0
230
1
0
CIRCLE
5
117
100
AcDbEntity
8
0
100
AcDbCircle
10
2.9524893153262841
20
-2.6574626141108433
30
0
40
1.1000000000000001
210
0
220
0
230
1
0
CIRCLE
5
118
100
AcDbEntity
8
0
100
AcDbCircle
10
92.612003397967882
20
-2.7342519072595977
30
0
40
1.1000000000000005
210
0
220
0
230
1
0
ENDSEC
0
SECTION
2
OBJECTS
0
DICTIONARY
5
C
100
AcDbDictionary
3
ACAD_GROUP
350
D
3
ACAD_MLINESTYLE
350
17
0
DICTIONARY
5
D
100
AcDbDictionary
0
DICTIONARY
5
1A
330
C
100
AcDbDictionary
0
DICTIONARY
5
17
100
AcDbDictionary
0
ENDSEC
0
EOF
