0
SECTION
2
HEADER
9
$INSUNITS
70
4
9
$ACADVER
1
AC1014
9
$HANDSEED
5
FFFF
0
ENDSEC
0
SECTION
2
TABLES
0
TABLE
2
VPORT
5
8
100
AcDbSymbolTable
0
ENDTAB
0
TABLE
2
LTYPE
5
5
100
AcDbSymbolTable
0
LTYPE
5
14
100
AcDbSymbolTableRecord
100
AcDbLinetypeTableRecord
2
BYBLOCK
70
0
0
LTYPE
5
15
100
AcDbSymbolTableRecord
100
AcDbLinetypeTableRecord
2
BYLAYER
70
0
0
ENDTAB
0
TABLE
2
LAYER
5
2
100
AcDbSymbolTable
70
2
0
LAYER
5
50
100
AcDbSymbolTableRecord
100
AcDbLayerTableRecord
2
0
70
0
6
CONTINUOUS
0
ENDTAB
0
TABLE
2
STYLE
5
3
100
AcDbSymbolTable
70
1
0
STYLE
5
11
100
AcDbSymbolTableRecord
100
AcDbTextStyleTableRecord
2
STANDARD
70
0
0
ENDTAB
0
TABLE
2
VIEW
5
6
100
AcDbSymbolTable
70
0
0
ENDTAB
0
TABLE
2
UCS
5
7
100
AcDbSymbolTable
70
0
0
ENDTAB
0
TABLE
2
APPID
5
9
100
AcDbSymbolTable
70
2
0
APPID
5
12
100
AcDbSymbolTableRecord
100
AcDbRegAppTableRecord
2
ACAD
70
0
0
ENDTAB
0
TABLE
2
DIMSTYLE
5
A
100
AcDbSymbolTable
70
1
0
ENDTAB
0
TABLE
2
BLOCK_RECORD
5
1
100
AcDbSymbolTable
70
1
0
BLOCK_RECORD
5
1F
100
AcDbSymbolTableRecord
100
AcDbBlockTableRecord
2
*MODEL_SPACE
0
BLOCK_RECORD
5
1B
100
AcDbSymbolTableRecord
100
AcDbBlockTableRecord
2
*PAPER_SPACE
0
ENDTAB
0
ENDSEC
0
SECTION
2
BLOCKS
0
BLOCK
5
20
100
AcDbEntity
100
AcDbBlockBegin
2
*MODEL_SPACE
0
ENDBLK
5
21
100
AcDbEntity
100
AcDbBlockEnd
0
BLOCK
5
1C
100
AcDbEntity
100
AcDbBlockBegin
2
*PAPER_SPACE
0
ENDBLK
5
1D
100
AcDbEntity
100
AcDbBlockEnd
0
ENDSEC
0
SECTION
2
ENTITIES
0
CIRCLE
5
100
100
AcDbEntity
8
0
100
AcDbCircle
10
-1.5475106327372443
20
-3.153608751998183
30
0
40
1.6000000000000003
210
0
220
0
230
1
0
CIRCLE
5
101
100
AcDbEntity
8
0
100
AcDbCircle
10
-1.5474996336206213
20
-108.22750000000001
30
0
40
1.6500000000000048
210
0
220
0
230
1
0
CIRCLE
5
102
100
AcDbEntity
8
0
100
AcDbCircle
10
82.677489322474372
20
-2.7257434480660625
30
0
40
1.6000000000000014
210
0
220
0
230
1
0
CIRCLE
5
103
100
AcDbEntity
8
0
100
AcDbCircle
10
151.3174074470262
20
-15.532198288883688
30
0
40
1.6000000000000014
210
0
220
0
230
1
0
CIRCLE
5
104
100
AcDbEntity
8
0
100
AcDbCircle
10
175.33681412576175
20
-55.182271914852052
30
0
40
1.6000000000000014
210
0
220
0
230
1
0
LWPOLYLINE
5
105
100
AcDbEntity
8
0
100
AcDbPolyline
90
24
70
1
43
0.0
10
129.88557054848954
20
-14.051779344657266
10
129.78106749488938
20
-14.902888667260141
42
0.41421356237318285
10
130.21640591890832
20
-15.460096399235075
10
175.5013284935342
20
-21.020384091332414
42
-0.41421358473542835
10
176.80734375163405
20
-22.692007400928272
10
164.862620899212
20
-119.97393561731876
42
-0.41421354001072297
10
163.19099771724416
20
-121.27995077570469
10
40.628941165684118
20
-106.23122692200306
42
0.030552754361684305
10
40.568006511706187
20
-106.22750000000003
10
1.9525000000000015
20
-106.22750000000002
42
-0.41421356237308826
10
0.45249999999999652
20
-104.72750000000005
10
0.45248973992190716
20
-6.7135988687895853
42
-0.41446446494314426
10
1.9483405504282314
20
-5.1566035229572122
10
70.132295943577276
20
-5.2150000000194101
42
-0.030554045888644847
10
70.315107646593844
20
-5.2261807799661577
10
90.763547344020651
20
-7.7369343128003107
42
0.41421358473549841
10
91.320755113885923
20
-7.3015958934336735
10
91.425258167574327
20
-6.45048657011177
42
-0.41421358473543446
10
93.096881477170186
20
-5.144471312011766
10
110.0197933712616
20
-7.2223443161450929
42
-0.41421354001077243
10
111.32580852964766
20
-8.8939674981128469
10
111.22130548003732
20
-9.7450767882210965
42
0.41421356237312779
10
111.65664390405631
20
-10.302284520195979
10
128.57955527643273
20
-12.380156148732366
42
-0.4142135623730846
0
CIRCLE
5
106
100
AcDbEntity
8
0
100
AcDbCircle
10
166.42117038207871
20
-123.69158563297221
30
0
40
1.6000000000000014
210
0
220
0
230
1
0
CIRCLE
5
107
100
AcDbEntity
8
0
100
AcDbCircle
10
179.21897892065721
20
-19.461834389757023
30
0
40
1.6000000000000014
210
0
220
0
230
1
0
CIRCLE
5
108
100
AcDbEntity
8
0
100
AcDbCircle
10
82.677500961527983
20
-113.9129139013173
30
0
40
1.6000000000000014
210
0
220
0
230
1
0
LWPOLYLINE
5
109
100
AcDbEntity
8
0
100
AcDbPolyline
90
14
70
1
43
0.0
10
181.32154275013062
20
-16.69746722698147
10
148.79943462734781
20
-12.704255640538538
42
-0.036329534497972167
10
148.62145747111219
20
-12.669140363551383
10
103.43200397888987
20
-0.28766797016579027
42
0.066741538106732126
10
103.10276075543007
20
-0.24323584661723466
10
-3.2964402483631083
20
-0.15210977310360516
42
0.41446446494312583
10
-4.5475108160839088
20
-1.4021094455072036
10
-4.5474994504309247
20
-109.97750013084982
42
0.41421353171308711
10
-3.2974994504309407
20
-111.22750000000002
10
40.216321548906741
20
-111.22750000000003
42
-0.030552754361700494
10
40.368658183851771
20
-111.23681730500765
10
167.79251809858394
20
-126.88249537359384
42
0.41421354001082711
10
169.18553741689053
20
-125.7941494082722
10
182.40988879854717
20
-18.090486651644682
42
0.41421358473538622
0
CIRCLE
5
110
100
AcDbEntity
8
0
100
AcDbCircle
10
371.54751063273721
20
-3.153608751998183
30
0
40
1.6000000000000003
210
0
220
0
230
1
0
CIRCLE
5
111
100
AcDbEntity
8
0
100
AcDbCircle
10
371.54749963362076
20
-108.22750000000001
30
0
40
1.6500000000000048
210
0
220
0
230
1
0
CIRCLE
5
112
100
AcDbEntity
8
0
100
AcDbCircle
10
287.32251067752566
20
-2.7257434480660625
30
0
40
1.6000000000000014
210
0
220
0
230
1
0
CIRCLE
5
113
100
AcDbEntity
8
0
100
AcDbCircle
10
218.68259255297386
20
-15.532198288883688
30
0
40
1.6000000000000014
210
0
220
0
230
1
0
CIRCLE
5
114
100
AcDbEntity
8
0
100
AcDbCircle
10
194.66318587423828
20
-55.182271914852052
30
0
40
1.6000000000000014
210
0
220
0
230
1
0
LWPOLYLINE
5
115
100
AcDbEntity
8
0
100
AcDbPolyline
90
24
70
1
43
0.0
10
329.43199348829381
20
-106.22750000000003
42
0.030552754361773213
10
329.37105883431582
20
-106.23122692200306
10
206.80900228275587
20
-121.27995077570469
42
-0.41421354001073635
10
205.13737910078802
20
-119.97393561731874
10
193.19265624836601
20
-22.692007400928254
42
-0.41421358473540726
10
194.49867150646583
20
-21.020384091332414
10
239.78359408109171
20
-15.460096399235079
42
0.41421356237314055
10
240.2189325051107
20
-14.902888667260141
10
240.11442945151046
20
-14.051779344657261
42
-0.4142135623730987
10
241.4204447235673
20
-12.380156148732366
10
258.3433560959437
20
-10.302284520195981
42
0.41421356237318913
10
258.7786945199627
20
-9.7450767882210947
10
258.6741914703523
20
-8.8939674981128505
42
-0.41421354001077726
10
259.98020662873842
20
-7.2223443161450964
10
276.9031185228298
20
-5.1444713120117811
42
-0.41421358473542408
10
278.57474183242567
20
-6.4504865701117637
10
278.67924488611408
20
-7.3015958934336727
42
0.41421358473548542
10
279.23645265597929
20
-7.7369343128003063
10
299.68489235340616
20
-5.2261807799661595
42
-0.030554045888639147
10
299.86770405642278
20
-5.2150000000194074
10
368.05165944957167
20
-5.1566035229572247
42
-0.41446446494318068
10
369.54751026007807
20
-6.7135988687895818
10
369.54750000000001
20
-104.72750000000005
42
-0.41421356237309159
10
368.04750000000007
20
-106.22750000000002
0
CIRCLE
5
116
100
AcDbEntity
8
0
100
AcDbCircle
10
203.57882961792129
20
-123.69158563297221
30
0
40
1.6000000000000014
210
0
220
0
230
1
0
CIRCLE
5
117
100
AcDbEntity
8
0
100
AcDbCircle
10
190.78102107934282
20
-19.461834389757023
30
0
40
1.6000000000000014
210
0
220
0
230
1
0
CIRCLE
5
118
100
AcDbEntity
8
0
100
AcDbCircle
10
287.32249903847207
20
-113.9129139013173
30
0
40
1.6000000000000014
210
0
220
0
230
1
0
LWPOLYLINE
5
119
100
AcDbEntity
8
0
100
AcDbPolyline
90
14
70
1
43
0.0
10
188.67845724986933
20
-16.69746722698147
42
0.41421358473539366
10
187.59011120145286
20
-18.090486651644682
10
200.81446258310947
20
-125.7941494082722
42
0.41421354001078065
10
202.20748190141606
20
-126.88249537359383
10
329.63134181614816
20
-111.23681730500765
42
-0.030552754361689551
10
329.78367845109341
20
-111.22750000000003
10
373.29749945043091
20
-111.22750000000002
42
0.41421353171304631
10
374.54749945043091
20
-109.97750013084982
10
374.5475108160839
20
-1.4021094455072003
42
0.41446446494311451
10
373.29644024836313
20
-0.15210977310362986
10
266.89723924457002
20
-0.24323584661723449
42
0.066741538106748752
10
266.56799602111016
20
-0.28766797016579149
10
221.37854252888786
20
-12.66914036355139
42
-0.036329534498032841
10
221.20056537265216
20
-12.704255640538531
0
LWPOLYLINE
5
120
100
AcDbEntity
8
0
100
AcDbPolyline
90
12
70
1
43
0.0
10
26.713754783185127
20
-38.43792548725137
42
0.41421354001077543
10
27.963754732392157
20
-39.687925442607138
10
33.213754942353908
20
-39.687925655937647
10
68.141054329834517
20
-39.687927075186181
10
83.291054289199963
20
-39.687927690796784
10
131.22625394896068
20
-39.687929638613085
10
136.47625373899891
20
-39.687929851943842
42
0.41421358473542746
10
137.72625378979191
20
-38.437929807299646
10
137.72625370050358
20
-35.937929807299255
42
0.41421354001078792
10
136.47625375129653
20
-34.687929851943423
10
27.963754744689709
20
-34.687925442607238
42
0.41421358473540559
10
26.713754693896753
20
-35.93792548725142
0
CIRCLE
5
121
100
AcDbEntity
8
0
100
AcDbCircle
10
29.713754756398632
20
-37.687925513717353
30
0
40
1.0999999999999932
210
0
220
0
230
1
0
CIRCLE
5
122
100
AcDbEntity
8
0
100
AcDbCircle
10
65.641054431420415
20
-37.187926973600334
30
0
40
1.1000000000000001
210
0
220
0
230
1
0
CIRCLE
5
123
100
AcDbEntity
8
0
100
AcDbCircle
10
134.72625376300545
20
-37.687929780833358
30
0
40
1.1000000000000039
210
0
220
0
230
1
0
LWPOLYLINE
5
124
100
AcDbEntity
8
0
100
AcDbPolyline
90
12
70
1
43
0.0
10
236.71375478318512
20
-38.43792548725137
42
0.41421354001077959
10
237.96375473239215
20
-39.687925442607138
10
243.21375494235389
20
-39.687925655937647
10
278.14105432983456
20
-39.687927075186181
10
293.29105428919996
20
-39.687927690796784
10
341.22625394896068
20
-39.687929638613085
10
346.47625373899893
20
-39.687929851943842
42
0.41421358473542746
10
347.72625378979194
20
-38.437929807299646
10
347.72625370050355
20
-35.937929807299255
42
0.41421354001079208
10
346.4762537512965
20
-34.687929851943423
10
237.96375474468971
20
-34.687925442607238
42
0.41421358473540143
10
236.71375469389676
20
-35.93792548725142
0
CIRCLE
5
125
100
AcDbEntity
8
0
100
AcDbCircle
10
239.71375475639863
20
-37.687925513717353
30
0
40
1.0999999999999932
210
0
220
0
230
1
0
CIRCLE
5
126
100
AcDbEntity
8
0
100
AcDbCircle
10
275.6410544314204
20
-37.187926973600334
30
0
40
1.1000000000000001
210
0
220
0
230
1
0
CIRCLE
5
127
100
AcDbEntity
8
0
100
AcDbCircle
10
344.72625376300539
20
-37.687929780833358
30
0
40
1.1000000000000039
210
0
220
0
230
1
0
ENDSEC
0
SECTION
2
OBJECTS
0
DICTIONARY
5
C
100
AcDbDictionary
3
ACAD_GROUP
350
D
3
ACAD_MLINESTYLE
350
17
0
DICTIONARY
5
D
100
AcDbDictionary
0
DICTIONARY
5
1A
330
C
100
AcDbDictionary
0
DICTIONARY
5
17
100
AcDbDictionary
0
ENDSEC
0
EOF
