0
SECTION
2
HEADER
9
$INSUNITS
70
4
9
$ACADVER
1
AC1014
9
$HANDSEED
5
FFFF
0
ENDSEC
0
SECTION
2
TABLES
0
TABLE
2
VPORT
5
8
100
AcDbSymbolTable
0
ENDTAB
0
TABLE
2
LTYPE
5
5
100
AcDbSymbolTable
0
LTYPE
5
14
100
AcDbSymbolTableRecord
100
AcDbLinetypeTableRecord
2
BYBLOCK
70
0
0
LTYPE
5
15
100
AcDbSymbolTableRecord
100
AcDbLinetypeTableRecord
2
BYLAYER
70
0
0
ENDTAB
0
TABLE
2
LAYER
5
2
100
AcDbSymbolTable
70
2
0
LAYER
5
50
100
AcDbSymbolTableRecord
100
AcDbLayerTableRecord
2
0
70
0
6
CONTINUOUS
0
ENDTAB
0
TABLE
2
STYLE
5
3
100
AcDbSymbolTable
70
1
0
STYLE
5
11
100
AcDbSymbolTableRecord
100
AcDbTextStyleTableRecord
2
STANDARD
70
0
0
ENDTAB
0
TABLE
2
VIEW
5
6
100
AcDbSymbolTable
70
0
0
ENDTAB
0
TABLE
2
UCS
5
7
100
AcDbSymbolTable
70
0
0
ENDTAB
0
TABLE
2
APPID
5
9
100
AcDbSymbolTable
70
2
0
APPID
5
12
100
AcDbSymbolTableRecord
100
AcDbRegAppTableRecord
2
ACAD
70
0
0
ENDTAB
0
TABLE
2
DIMSTYLE
5
A
100
AcDbSymbolTable
70
1
0
ENDTAB
0
TABLE
2
BLOCK_RECORD
5
1
100
AcDbSymbolTable
70
1
0
BLOCK_RECORD
5
1F
100
AcDbSymbolTableRecord
100
AcDbBlockTableRecord
2
*MODEL_SPACE
0
BLOCK_RECORD
5
1B
100
AcDbSymbolTableRecord
100
AcDbBlockTableRecord
2
*PAPER_SPACE
0
ENDTAB
0
ENDSEC
0
SECTION
2
BLOCKS
0
BLOCK
5
20
100
AcDbEntity
100
AcDbBlockBegin
2
*MODEL_SPACE
0
ENDBLK
5
21
100
AcDbEntity
100
AcDbBlockEnd
0
BLOCK
5
1C
100
AcDbEntity
100
AcDbBlockBegin
2
*PAPER_SPACE
0
ENDBLK
5
1D
100
AcDbEntity
100
AcDbBlockEnd
0
ENDSEC
0
SECTION
2
ENTITIES
0
CIRCLE
5
100
100
AcDbEntity
8
0
100
AcDbCircle
10
-1.5475106327372439
20
-3.153608751998183
30
0
40
1.6000000000000003
210
0
220
0
230
1
0
CIRCLE
5
101
100
AcDbEntity
8
0
100
AcDbCircle
10
-1.547499633620621
20
-108.22749999999999
30
0
40
1.6500000000000046
210
0
220
0
230
1
0
CIRCLE
5
102
100
AcDbEntity
8
0
100
AcDbCircle
10
82.677489322474358
20
-2.7257434480660625
30
0
40
1.6000000000000014
210
0
220
0
230
1
0
CIRCLE
5
103
100
AcDbEntity
8
0
100
AcDbCircle
10
151.3174074470262
20
-15.532198288883684
30
0
40
1.6000000000000014
210
0
220
0
230
1
0
CIRCLE
5
104
100
AcDbEntity
8
0
100
AcDbCircle
10
175.33681412576175
20
-55.182271914852052
30
0
40
1.6000000000000014
210
0
220
0
230
1
0
LWPOLYLINE
5
105
100
AcDbEntity
8
0
100
AcDbPolyline
90
24
70
1
43
0.0
10
163.19099771724416
20
-121.27995077570468
10
40.628941165684118
20
-106.23122692200306
42
0.030552754361532028
10
40.568006511706187
20
-106.22750000000003
10
1.9525000000000015
20
-106.22749999999999
42
-0.41421356237309337
10
0.45249999999999652
20
-104.72750000000005
10
0.45248973992190716
20
-6.7135988687895853
42
-0.41446446494314387
10
1.9483405504282312
20
-5.1566035229572122
10
70.132295943577276
20
-5.2150000000194101
42
-0.030554045888648088
10
70.315107646593844
20
-5.2261807799661577
10
90.763547344020651
20
-7.7369343128003107
42
0.41421358473548625
10
91.320755113885923
20
-7.3015958934336709
10
91.425258167574327
20
-6.4504865701117691
42
-0.41421358473543163
10
93.096881477170186
20
-5.144471312011766
10
110.0197933712616
20
-7.2223443161450929
42
-0.41421354001077715
10
111.32580852964766
20
-8.8939674981128469
10
111.22130548003733
20
-9.7450767882210965
42
0.41421356237312912
10
111.6566439040563
20
-10.302284520195981
10
128.57955527643273
20
-12.380156148732365
42
-0.41421356237309387
10
129.88557054848954
20
-14.051779344657263
10
129.78106749488938
20
-14.902888667260141
42
0.41421356237315671
10
130.21640591890832
20
-15.460096399235079
10
175.5013284935342
20
-21.020384091332414
42
-0.41421358473541842
10
176.80734375163405
20
-22.692007400928262
10
164.862620899212
20
-119.97393561731874
42
-0.41421354001073674
0
CIRCLE
5
106
100
AcDbEntity
8
0
100
AcDbCircle
10
166.42117038207871
20
-123.69158563297221
30
0
40
1.6000000000000014
210
0
220
0
230
1
0
CIRCLE
5
107
100
AcDbEntity
8
0
100
AcDbCircle
10
179.21897892065718
20
-19.461834389757026
30
0
40
1.6000000000000014
210
0
220
0
230
1
0
CIRCLE
5
108
100
AcDbEntity
8
0
100
AcDbCircle
10
82.677500961527969
20
-113.9129139013173
30
0
40
1.6000000000000014
210
0
220
0
230
1
0
LWPOLYLINE
5
109
100
AcDbEntity
8
0
100
AcDbPolyline
90
14
70
1
43
0.0
10
40.368658183851778
20
-111.23681730500763
10
167.79251809858394
20
-126.88249537359383
42
0.41421354001079719
10
169.18553741689053
20
-125.7941494082722
10
182.40988879854717
20
-18.090486651644682
42
0.41421358473539327
10
181.32154275013065
20
-16.69746722698147
10
148.79943462734781
20
-12.704255640538534
42
-0.036329534497970439
10
148.62145747111219
20
-12.669140363551385
10
103.43200397888987
20
-0.28766797016579027
42
0.06674153810675118
10
103.10276075543004
20
-0.24323584661723463
10
-3.2964402483631083
20
-0.15210977310360516
42
0.41446446494312628
10
-4.5475108160839088
20
-1.4021094455072036
10
-4.5474994504309247
20
-109.9775001308498
42
0.41421353171307751
10
-3.2974994504309403
20
-111.22749999999999
10
40.216321548906748
20
-111.22750000000003
42
-0.030552754361580833
0
CIRCLE
5
110
100
AcDbEntity
8
0
100
AcDbCircle
10
371.54751063273721
20
-3.153608751998183
30
0
40
1.6000000000000003
210
-0
220
0
230
1
0
CIRCLE
5
111
100
AcDbEntity
8
0
100
AcDbCircle
10
371.54749963362065
20
-108.22749999999999
30
0
40
1.6500000000000046
210
-0
220
0
230
1
0
CIRCLE
5
112
100
AcDbEntity
8
0
100
AcDbCircle
10
287.32251067752566
20
-2.7257434480660625
30
0
40
1.6000000000000014
210
-0
220
0
230
1
0
CIRCLE
5
113
100
AcDbEntity
8
0
100
AcDbCircle
10
218.6825925529738
20
-15.532198288883684
30
0
40
1.6000000000000014
210
-0
220
0
230
1
0
CIRCLE
5
114
100
AcDbEntity
8
0
100
AcDbCircle
10
194.66318587423825
20
-55.182271914852052
30
0
40
1.6000000000000014
210
-0
220
0
230
1
0
LWPOLYLINE
5
115
100
AcDbEntity
8
0
100
AcDbPolyline
90
24
70
1
43
0.0
10
329.37105883431582
20
-106.23122692200306
10
206.80900228275584
20
-121.27995077570469
42
-0.41421354001075056
10
205.137379100788
20
-119.97393561731874
10
193.19265624836595
20
-22.692007400928258
42
-0.41421358473540509
10
194.4986715064658
20
-21.020384091332414
10
239.78359408109171
20
-15.460096399235079
42
0.41421356237312551
10
240.21893250511067
20
-14.902888667260141
10
240.11442945151046
20
-14.051779344657261
42
-0.41421356237309287
10
241.4204447235673
20
-12.380156148732366
10
258.3433560959437
20
-10.302284520195981
42
0.41421356237317397
10
258.7786945199627
20
-9.7450767882210947
10
258.6741914703523
20
-8.8939674981128505
42
-0.41421354001078053
10
259.98020662873842
20
-7.2223443161450929
10
276.9031185228298
20
-5.1444713120117811
42
-0.41421358473544012
10
278.57474183242567
20
-6.4504865701117637
10
278.67924488611408
20
-7.3015958934336709
42
0.4142135847354646
10
279.23645265597935
20
-7.7369343128003374
10
299.68489235340616
20
-5.2261807799661586
42
-0.030554045888655759
10
299.86770405642278
20
-5.2150000000194101
10
368.05165944957173
20
-5.1566035229572247
42
-0.41446446494314332
10
369.54751026007807
20
-6.7135988687895818
10
369.54749999999996
20
-104.72750000000005
42
-0.41421356237308815
10
368.04750000000001
20
-106.22749999999999
10
329.43199348829381
20
-106.22750000000003
42
0.030552754361560297
0
CIRCLE
5
116
100
AcDbEntity
8
0
100
AcDbCircle
10
203.57882961792129
20
-123.69158563297221
30
0
40
1.6000000000000014
210
-0
220
0
230
1
0
CIRCLE
5
117
100
AcDbEntity
8
0
100
AcDbCircle
10
190.78102107934282
20
-19.461834389757026
30
0
40
1.6000000000000014
210
-0
220
0
230
1
0
CIRCLE
5
118
100
AcDbEntity
8
0
100
AcDbCircle
10
287.32249903847207
20
-113.9129139013173
30
0
40
1.6000000000000014
210
-0
220
0
230
1
0
LWPOLYLINE
5
119
100
AcDbEntity
8
0
100
AcDbPolyline
90
14
70
1
43
0.0
10
202.20748190141606
20
-126.88249537359383
10
329.63134181614816
20
-111.23681730500765
42
-0.030552754361575389
10
329.78367845109341
20
-111.22750000000003
10
373.29749945043091
20
-111.22749999999999
42
0.41421353171309205
10
374.54749945043085
20
-109.9775001308498
10
374.5475108160839
20
-1.4021094455072003
42
0.41446446494311623
10
373.29644024836313
20
-0.15210977310362986
10
266.89723924456996
20
-0.24323584661723435
42
0.066741538106740703
10
266.56799602111016
20
-0.28766797016579065
10
221.37854252888781
20
-12.669140363551389
42
-0.036329534497999569
10
221.20056537265219
20
-12.704255640538531
10
188.67845724986935
20
-16.69746722698147
42
0.41421358473539405
10
187.59011120145283
20
-18.090486651644682
10
200.81446258310947
20
-125.7941494082722
42
0.41421354001079719
0
ENDSEC
0
SECTION
2
OBJECTS
0
DICTIONARY
5
C
100
AcDbDictionary
3
ACAD_GROUP
350
D
3
ACAD_MLINESTYLE
350
17
0
DICTIONARY
5
D
100
AcDbDictionary
0
DICTIONARY
5
1A
330
C
100
AcDbDictionary
0
DICTIONARY
5
17
100
AcDbDictionary
0
ENDSEC
0
EOF
