0
SECTION
2
HEADER
9
$INSUNITS
70
4
9
$ACADVER
1
AC1014
9
$HANDSEED
5
FFFF
0
ENDSEC
0
SECTION
2
TABLES
0
TABLE
2
VPORT
5
8
100
AcDbSymbolTable
0
ENDTAB
0
TABLE
2
LTYPE
5
5
100
AcDbSymbolTable
0
LTYPE
5
14
100
AcDbSymbolTableRecord
100
AcDbLinetypeTableRecord
2
BYBLOCK
70
0
0
LTYPE
5
15
100
AcDbSymbolTableRecord
100
AcDbLinetypeTableRecord
2
BYLAYER
70
0
0
ENDTAB
0
TABLE
2
LAYER
5
2
100
AcDbSymbolTable
70
2
0
LAYER
5
50
100
AcDbSymbolTableRecord
100
AcDbLayerTableRecord
2
0
70
0
6
CONTINUOUS
0
ENDTAB
0
TABLE
2
STYLE
5
3
100
AcDbSymbolTable
70
1
0
STYLE
5
11
100
AcDbSymbolTableRecord
100
AcDbTextStyleTableRecord
2
STANDARD
70
0
0
ENDTAB
0
TABLE
2
VIEW
5
6
100
AcDbSymbolTable
70
0
0
ENDTAB
0
TABLE
2
UCS
5
7
100
AcDbSymbolTable
70
0
0
ENDTAB
0
TABLE
2
APPID
5
9
100
AcDbSymbolTable
70
2
0
APPID
5
12
100
AcDbSymbolTableRecord
100
AcDbRegAppTableRecord
2
ACAD
70
0
0
ENDTAB
0
TABLE
2
DIMSTYLE
5
A
100
AcDbSymbolTable
70
1
0
ENDTAB
0
TABLE
2
BLOCK_RECORD
5
1
100
AcDbSymbolTable
70
1
0
BLOCK_RECORD
5
1F
100
AcDbSymbolTableRecord
100
AcDbBlockTableRecord
2
*MODEL_SPACE
0
BLOCK_RECORD
5
1B
100
AcDbSymbolTableRecord
100
AcDbBlockTableRecord
2
*PAPER_SPACE
0
ENDTAB
0
ENDSEC
0
SECTION
2
BLOCKS
0
BLOCK
5
20
100
AcDbEntity
100
AcDbBlockBegin
2
*MODEL_SPACE
0
ENDBLK
5
21
100
AcDbEntity
100
AcDbBlockEnd
0
BLOCK
5
1C
100
AcDbEntity
100
AcDbBlockBegin
2
*PAPER_SPACE
0
ENDBLK
5
1D
100
AcDbEntity
100
AcDbBlockEnd
0
ENDSEC
0
SECTION
2
ENTITIES
0
CIRCLE
5
100
100
AcDbEntity
8
0
100
AcDbCircle
10
3.4524999999999983
20
-103.22750000000001
30
0
40
1.0999999999999985
210
0
220
0
230
1
0
CIRCLE
5
101
100
AcDbEntity
8
0
100
AcDbCircle
10
179.21897892065718
20
-19.461834389757026
30
0
40
1.0999999999999943
210
0
220
0
230
1
0
CIRCLE
5
102
100
AcDbEntity
8
0
100
AcDbCircle
10
3.4524999999999983
20
-8.2150000000000016
30
0
40
1.0999999999999999
210
0
220
0
230
1
0
CIRCLE
5
103
100
AcDbEntity
8
0
100
AcDbCircle
10
-1.5475106327372439
20
-3.153608751998183
30
0
40
1.1000000000000003
210
0
220
0
230
1
0
CIRCLE
5
104
100
AcDbEntity
8
0
100
AcDbCircle
10
150.44712820286003
20
-20.966645481095082
30
0
40
1.1000000000000119
210
0
220
0
230
1
0
CIRCLE
5
105
100
AcDbEntity
8
0
100
AcDbCircle
10
166.42117038207871
20
-123.69158563297221
30
0
40
1.0999999999999943
210
0
220
0
230
1
0
CIRCLE
5
106
100
AcDbEntity
8
0
100
AcDbCircle
10
82.677489322474358
20
-2.7257434480660625
30
0
40
1.1000000000000119
210
0
220
0
230
1
0
CIRCLE
5
107
100
AcDbEntity
8
0
100
AcDbCircle
10
175.33681412576175
20
-55.182271914852052
30
0
40
1.0999999999999943
210
0
220
0
230
1
0
CIRCLE
5
108
100
AcDbEntity
8
0
100
AcDbCircle
10
173.64690122200429
20
-23.815218583423125
30
0
40
1.0999999999999943
210
0
220
0
230
1
0
CIRCLE
5
109
100
AcDbEntity
8
0
100
AcDbCircle
10
-1.547499633620621
20
-108.22749999999999
30
0
40
1.0999999999999959
210
0
220
0
230
1
0
CIRCLE
5
110
100
AcDbEntity
8
0
100
AcDbCircle
10
164.38635141522053
20
-99.236318987204086
30
0
40
1.0999999999999943
210
0
220
0
230
1
0
CIRCLE
5
111
100
AcDbEntity
8
0
100
AcDbCircle
10
82.677500961527969
20
-113.9129139013173
30
0
40
1.0999999999999943
210
0
220
0
230
1
0
CIRCLE
5
112
100
AcDbEntity
8
0
100
AcDbCircle
10
151.3174074470262
20
-15.532198288883684
30
0
40
1.0999999999999943
210
0
220
0
230
1
0
LWPOLYLINE
5
113
100
AcDbEntity
8
0
100
AcDbPolyline
90
14
70
1
43
0.0
10
40.368658183851778
20
-111.23681730500763
10
167.79251809858394
20
-126.88249537359383
42
0.41421354001079719
10
169.18553741689053
20
-125.7941494082722
10
182.40988879854717
20
-18.090486651644682
42
0.41421358473539327
10
181.32154275013065
20
-16.69746722698147
10
148.79943462734781
20
-12.704255640538534
42
-0.036329534497970439
10
148.62145747111219
20
-12.669140363551385
10
103.43200397888987
20
-0.28766797016579915
42
0.066741538106751722
10
103.10276075543004
20
-0.24323584661723463
10
-3.2964402483631083
20
-0.15210977310360363
42
0.41446446494312628
10
-4.5475108160839088
20
-1.4021094455072036
10
-4.5474994504309247
20
-109.9775001308498
42
0.41421353171307751
10
-3.2974994504309403
20
-111.22749999999999
10
40.216321548906748
20
-111.22750000000003
42
-0.030552754361580833
0
CIRCLE
5
114
100
AcDbEntity
8
0
100
AcDbCircle
10
366.54750000000001
20
-103.22750000000001
30
0
40
1.0999999999999985
210
-0
220
0
230
1
0
CIRCLE
5
115
100
AcDbEntity
8
0
100
AcDbCircle
10
190.78102107934282
20
-19.461834389757026
30
0
40
1.0999999999999943
210
-0
220
0
230
1
0
CIRCLE
5
116
100
AcDbEntity
8
0
100
AcDbCircle
10
366.54750000000001
20
-8.2150000000000016
30
0
40
1.0999999999999999
210
-0
220
0
230
1
0
CIRCLE
5
117
100
AcDbEntity
8
0
100
AcDbCircle
10
371.54751063273721
20
-3.153608751998183
30
0
40
1.1000000000000003
210
-0
220
0
230
1
0
CIRCLE
5
118
100
AcDbEntity
8
0
100
AcDbCircle
10
219.55287179713997
20
-20.966645481095082
30
0
40
1.1000000000000119
210
-0
220
0
230
1
0
CIRCLE
5
119
100
AcDbEntity
8
0
100
AcDbCircle
10
203.57882961792129
20
-123.69158563297221
30
0
40
1.0999999999999943
210
-0
220
0
230
1
0
CIRCLE
5
120
100
AcDbEntity
8
0
100
AcDbCircle
10
287.32251067752566
20
-2.7257434480660625
30
0
40
1.1000000000000119
210
-0
220
0
230
1
0
CIRCLE
5
121
100
AcDbEntity
8
0
100
AcDbCircle
10
194.66318587423825
20
-55.182271914852052
30
0
40
1.0999999999999943
210
-0
220
0
230
1
0
CIRCLE
5
122
100
AcDbEntity
8
0
100
AcDbCircle
10
196.35309877799571
20
-23.815218583423125
30
0
40
1.0999999999999943
210
-0
220
0
230
1
0
CIRCLE
5
123
100
AcDbEntity
8
0
100
AcDbCircle
10
371.54749963362065
20
-108.22749999999999
30
0
40
1.0999999999999959
210
-0
220
0
230
1
0
CIRCLE
5
124
100
AcDbEntity
8
0
100
AcDbCircle
10
205.61364858477947
20
-99.236318987204086
30
0
40
1.0999999999999943
210
-0
220
0
230
1
0
CIRCLE
5
125
100
AcDbEntity
8
0
100
AcDbCircle
10
287.32249903847207
20
-113.9129139013173
30
0
40
1.0999999999999943
210
-0
220
0
230
1
0
CIRCLE
5
126
100
AcDbEntity
8
0
100
AcDbCircle
10
218.6825925529738
20
-15.532198288883684
30
0
40
1.0999999999999943
210
-0
220
0
230
1
0
LWPOLYLINE
5
127
100
AcDbEntity
8
0
100
AcDbPolyline
90
14
70
1
43
0.0
10
202.20748190141606
20
-126.88249537359383
10
329.63134181614816
20
-111.23681730500765
42
-0.030552754361575389
10
329.78367845109341
20
-111.22750000000003
10
373.29749945043091
20
-111.22749999999999
42
0.41421353171309205
10
374.54749945043085
20
-109.9775001308498
10
374.5475108160839
20
-1.4021094455072003
42
0.41446446494311623
10
373.29644024836313
20
-0.15210977310362986
10
266.89723924456996
20
-0.24323584661724212
42
0.066741538106740703
10
266.56799602111016
20
-0.28766797016579065
10
221.37854252888781
20
-12.669140363551389
42
-0.036329534498000013
10
221.20056537265219
20
-12.704255640538531
10
188.67845724986935
20
-16.697467226981466
42
0.41421358473539416
10
187.59011120145283
20
-18.090486651644682
10
200.81446258310947
20
-125.7941494082722
42
0.41421354001079719
0
ENDSEC
0
SECTION
2
OBJECTS
0
DICTIONARY
5
C
100
AcDbDictionary
3
ACAD_GROUP
350
D
3
ACAD_MLINESTYLE
350
17
0
DICTIONARY
5
D
100
AcDbDictionary
0
DICTIONARY
5
1A
330
C
100
AcDbDictionary
0
DICTIONARY
5
17
100
AcDbDictionary
0
ENDSEC
0
EOF
